<svg xmlns="http://www.w3.org/2000/svg" width="3271.086" height="1300.92" viewBox="0 0 3271.086 1300.92">
  <g id="Group_59" data-name="Group 59" transform="translate(176.438 63.303)">
    <g id="Group_39" data-name="Group 39" transform="translate(-176.437 -63.303)">
      <path id="Path_13" data-name="Path 13" d="M3134.7,1087.626H136.387A136.41,136.41,0,0,0,0,951.239V508.086A136.41,136.41,0,0,0,136.387,371.7H3134.7a136.41,136.41,0,0,0,136.386,136.386V951.239A136.41,136.41,0,0,0,3134.7,1087.626Z" transform="translate(0 16.961)" fill="#e05934"/>
      <g id="Group_25" data-name="Group 25" transform="translate(255.516 570.544)">
        <path id="Path_14" data-name="Path 14" d="M441.977,890.882c-3.033,0-3.975-.521-3.975-3.556v-9.518c0-3.031,1.046-3.973,3.975-3.973l14.538-.523c9.1-.521,10.04-3.452,10.04-41.731V630.764h-.941l-65.788,263.15c-.523,2.511-1.57,3.56-3.975,3.56H369.286c-1.987,0-3.033-.525-3.556-3.56l-66.31-264.2h-.942V770.393c0,85.872,5.543,101.978,25.625,102.919l8.054.523c3.033,0,3.974,1.045,3.974,3.973v9.518c0,3.035-1.046,3.556-3.974,3.556H248.275c-3.034,0-3.975-.521-3.975-3.556v-9.518c0-3.031,1.046-3.554,3.975-3.973l5.543-.523c15.061-.941,22.592-17.572,22.592-102.919V612.148c0-38.177-1.988-41.732-11.087-42.15l-15.061-1.045c-3.033,0-3.975-.523-3.975-3.556V555.355c0-3.032.942-3.555,3.975-3.555H334.98c2.51,0,4.5.523,5.02,3.973l60.245,249.137h1.046L463.1,555.773c.523-3.556,2.511-3.973,5.021-3.973H552.53c3.033,0,3.974.523,3.974,3.555V565.4c0,3.033-.941,3.556-3.974,3.556L537.469,570c-8.994.523-10.563,3.557-10.563,42.15V831.685c0,38.175.522,41.21,10.04,41.731l14.538.523c3.033,0,3.974,1.047,3.974,3.974v9.519c0,3.032-1.046,3.553-3.974,3.553H441.977Z" transform="translate(-244.3 -545.314)" fill="#fff"/>
        <path id="Path_15" data-name="Path 15" d="M813.287,569.475c-14.537,1.568-21.128,17.571-21.128,103.022v96.956c0,89.427-25.1,128.125-92.459,128.125-66.31,0-98.942-42.674-98.942-112.019V611.1c0-38.177-.522-41.209-10.563-41.734l-14.121-.52c-3.032-.525-3.974-1.048-3.974-3.976v-9.518c0-3.032,1.048-3.555,3.974-3.555H685.582c3.033,0,3.974.523,3.974,3.555v9.518c0,3.035-1.046,3.557-3.974,3.976l-14.539.52C661.528,569.894,661,572.926,661,611.1V775.834c0,62.753,13.492,92.458,53.76,92.458,40.686,0,53.76-28.66,53.76-99.467V672.392c0-85.868-3.556-101.453-28.135-103.023l-8.995-.52c-3.034-.525-3.974-1.048-3.974-3.976v-9.518c0-3.032,1.045-3.555,3.974-3.555h86.915c3.031,0,3.974.523,3.974,3.555v9.518c0,3.035-.943,3.557-3.974,3.976Z" transform="translate(-229.251 -545.314)" fill="#fff"/>
        <path id="Path_16" data-name="Path 16" d="M910.936,897.759c-20.082,0-41.209-5.545-56.791-15.585l-1.046,7.007c-.525,3.033-1.569,4.5-4.5,4.5H841.6c-3.454,0-3.976-1.466-3.976-4.5l-5.02-107c0-3.554.523-4.5,3.972-4.5h10.565c3.032,0,3.555,1.045,3.555,3.975l.941,11.085c2.511,43.2,23.639,85.869,59.829,85.869,28.13,0,43.717-18.092,43.717-50.2,0-45.182-23.637-63.277-59.723-91.413-30.12-22.59-56.268-46.752-56.268-97.478,0-53.76,31.168-93.924,82.419-93.924,18.093,0,36.186,7.007,47.692,15.584l1.465-7.008c0-3.034,1.044-4.5,3.976-4.5h7.007c3.555,0,3.972,1.57,3.972,4.5v96.956c0,3.556-.523,4.5-3.972,4.5H971.183c-2.512,0-3.033-.942-3.556-4.5v-5.02c-2.51-47.694-21.128-81.9-49.157-81.9-20.6,0-33.157,17.049-33.157,42.672,0,37.236,22.068,57.736,52.293,81.373,35.144,26.67,66.312,51.773,66.312,108.984C1003.814,857.072,965.117,897.759,910.936,897.759Z" transform="translate(-217.29 -545.6)" fill="#fff"/>
        <path id="Path_17" data-name="Path 17" d="M1030.173,890.882c-3.028,0-3.973-.521-3.973-3.556v-9.518c0-3.031,1.044-3.554,3.973-3.973l14.54-.523c9.519-.941,10.042-3.452,10.042-41.731V611.1c0-38.177-.524-41.209-10.042-41.734l-14.54-.52c-3.028-.525-3.973-1.048-3.973-3.976v-9.518c0-3.032,1.044-3.555,3.973-3.555h109.509c3.033,0,3.973.523,3.973,3.555v9.518c0,3.035-1.05,3.557-3.973,3.976l-14.019.52c-10.039.525-10.039,3.557-10.039,41.734V831.581c0,38.175,0,40.686,10.039,41.731l14.019.523c3.033.522,3.973,1.045,3.973,3.973v9.518c0,3.035-1.05,3.556-3.973,3.556Z" transform="translate(-208.403 -545.314)" fill="#fff"/>
        <path id="Path_18" data-name="Path 18" d="M1344.979,890.882c-3.557,0-4.5-1.045-6.067-5.019L1278.664,735.67c-10.561,15.062-15.06,28.66-15.06,49.784v46.23c0,38.175.523,41.21,10.042,41.731l14.537.523c3.032.523,3.972,1.047,3.972,3.974v9.516c0,3.036-1.04,3.557-3.972,3.557H1178.153c-3.035,0-3.553-.521-3.553-3.557v-9.516c0-3.034.519-3.556,3.553-3.974l14.541-.523c9.519-.521,10.036-3.451,10.036-41.731V611.1c0-38.177-.517-41.209-10.036-41.734l-14.123-.52c-3.033-.525-3.971-1.048-3.971-3.976v-9.518c0-3.032,1.044-3.555,3.971-3.555h109.511c3.033,0,3.971.523,3.971,3.555v9.518c0,3.035-1.046,3.557-3.971,3.976l-14.542.52c-9.521.525-10.038,3.557-10.038,41.734V727.722h.517c7.009-17.573,22.594-40.165,59.725-95.491,11.085-18.619,20.6-34.1,20.6-47.172,0-10.04-3.972-15.061-13.073-15.584l-9.1-.522c-3.034-.523-3.556-1.045-3.556-3.975v-9.519c0-3.031.522-3.557,3.556-3.557h92.877c3.033,0,3.972.525,3.972,3.557v9.519c0,3.032-.939,3.557-3.972,3.975l-6.069.522c-19.555,1.988-26.561,11.088-52.188,51.249l-36.714,53.759,60.246,149.149c17.046,43.2,20.083,48.214,31.168,49.68l5.017.523c3.035.522,3.563,1.045,3.563,3.973v9.518c0,3.035-.528,3.556-3.562,3.556Z" transform="translate(-201.59 -545.314)" fill="#fff"/>
        <path id="Path_19" data-name="Path 19" d="M1588.425,890.882c-3.033,0-3.972-.521-3.972-3.556v-9.518c0-3.031,1.044-3.554,3.972-3.973l14.123-.523c10.041-.521,10.559-3.452,10.559-41.731V720.609H1521.7V831.581c0,38.175.521,41.209,10.563,41.731l14.121.523c3.033.522,3.973,1.045,3.973,3.973v9.518c0,3.035-1.045,3.556-3.973,3.556H1436.871c-3.033,0-3.971-.521-3.971-3.556v-9.518c0-3.031,1.043-3.554,3.971-3.973l14.123-.523c9.52-.521,10.56-3.452,10.56-41.731V611.1c0-38.177-.935-41.209-10.56-41.734l-14.123-.52c-3.033-.525-3.971-1.048-3.971-3.976v-9.518c0-3.032,1.043-3.555,3.971-3.555H1546.38c3.033,0,3.973.523,3.973,3.555v9.518c0,3.035-1.045,3.557-3.973,3.976l-14.121.52c-10.042.525-10.563,3.557-10.563,41.734v88.378h91.411V611.1c0-38.177-.519-41.209-10.559-41.734l-14.123-.52c-3.033-.525-3.972-1.048-3.972-3.976v-9.518c0-3.032,1.044-3.555,3.972-3.555h109.507c3.035,0,3.978.523,3.978,3.555v9.518c0,3.035-1.048,3.557-3.978,3.976l-14.541.52c-8.993.525-10.036,3.557-10.036,41.734V831.581c0,38.175,1.043,41.209,10.036,41.731l14.541.523c3.035.522,3.978,1.045,3.978,3.973v9.518c0,3.035-1.048,3.556-3.978,3.556Z" transform="translate(-189.731 -545.314)" fill="#fff"/>
        <path id="Path_20" data-name="Path 20" d="M1852.374,891.158c-3.033,0-3.978-.521-3.978-3.555v-9.518c0-3.032,1.048-3.554,3.978-3.974l10.038-.523c7.008-.522,11.51-1.987,11.51-11.5,0-8.577-2.52-22.068-9-45.183l-10.048-44.661h-75.3l-1.569,6.067c-5.544,20.082-10.565,44.66-10.565,64.323,0,19.037,6.063,30.122,17.569,31.168l8.577.524c3.03.521,3.976,1.045,3.976,3.973v9.517c0,3.034-1.046,3.556-3.976,3.556h-82.418c-3.029,0-3.974-.522-3.974-3.556v-9.517c0-3.033,1.046-3.556,3.974-3.973l3.973-.524c10.042-1.465,13.6-8.054,22.071-36.19,5.025-15.583,12.548-41.731,18.613-63.8l62.344-224.033c.519-3.034.937-3.976,3.976-3.976h29.594c3.033,0,3.56.524,4.5,3.976l73.842,267.23c14.016,52.294,16.63,55.745,27.089,56.792l6.483.524c3.032.521,3.978,1.045,3.978,3.973v9.517c0,3.034-1.046,3.556-3.978,3.556H1852.374Zm-34.62-259.595h-.523l-31.591,120.489h63.283Z" transform="translate(-177.139 -545.591)" fill="#fff"/>
        <path id="Path_21" data-name="Path 21" d="M2166.762,897.474c-2,0-3.039-1.048-4.507-3.56L2032.671,632.752h-.521V770.393c0,85.872,10.565,101.978,32.631,102.919l11.508.523c3.03.522,3.972,1.045,3.972,3.973v9.518c0,3.035-.941,3.556-3.972,3.556h-95.911c-3.035,0-3.979-.521-3.979-3.556v-9.518c0-3.031.945-3.554,3.979-3.973l5.54-.523c15.063-.941,23.115-17.572,23.115-102.919V612.148c0-38.7-1.46-41.732-10.563-42.15l-15.584-1.045c-3.03,0-3.975-.523-3.975-3.556V555.355c0-3.032.945-3.555,3.975-3.555h74.785c3.031,0,3.976,1.043,5.54,3.973L2174.184,785.35h1.05V672.392c0-85.868-11.088-101.453-32.637-103.023l-11.605-.52c-3.038-.525-3.979-1.048-3.979-3.976v-9.518c0-3.032.941-3.555,3.979-3.555h94.967c3.03,0,3.976.523,3.976,3.555v9.518c0,3.035-1.046,3.557-3.976,3.976l-5.544.52c-14.539,1.57-22.593,17.572-22.593,103.023V893.914c0,2.511-1.046,3.56-3.976,3.56Z" transform="translate(-164.777 -545.314)" fill="#fff"/>
        <path id="Path_22" data-name="Path 22" d="M2371.434,890.882H2249.377c-3.033,0-3.978-.521-3.978-3.556v-9.518c0-3.031,1.046-3.554,3.978-3.973l14.116-.523c10.045-.521,10.569-3.452,10.569-41.731V611.1c0-38.177-.524-41.209-10.569-41.734l-14.116-.52c-3.033-.525-3.978-1.048-3.978-3.976v-9.518c0-3.032,1.046-3.555,3.978-3.555h115.57c82.42,0,137.646,54.282,137.646,165.778C2502.593,829.593,2443.814,890.882,2371.434,890.882ZM2357.42,572.926H2334.3v296.83h28.133c53.759,0,73.84-44.241,73.84-148.729C2436.277,610.684,2411.182,572.926,2357.42,572.926Z" transform="translate(-152.429 -545.314)" fill="#fff"/>
        <path id="Path_23" data-name="Path 23" d="M2506.96,890.882c-3.036,0-3.562-.521-3.562-3.556v-9.518c0-3.031.525-3.973,3.562-3.973l14.537-.523c9.521-.521,10.56-3.452,10.56-41.731V611.1c0-38.177-.937-41.209-10.56-41.734l-14.121-.52c-3.032-.525-3.978-1.048-3.978-3.976v-9.518c0-3.032,1.051-3.555,3.978-3.555h178.85c3.557,0,3.973,1.568,3.973,4.5v97.478c0,3.557-.521,4.5-3.973,4.5h-10.56c-2.508,0-3.041-.941-3.558-4.5v-6.481c-1.566-47.278-11.6-75.309-44.668-75.309H2592.3v132.1h16.628c20.085,0,26.565-16.108,27.615-40.684l.521-4.5c0-3.557.521-4.5,3.562-4.5h8.992c3.554,0,3.978,1.463,3.978,4.5V770.393c0,3.453-.529,4.5-3.978,4.5h-8.992c-3.041,0-3.562-1.047-3.562-4.5l-.521-7.007c-.521-24.159-7.53-40.164-27.615-40.164H2592.3V870.906h50.2c35.146,0,44.663-36.606,47.691-77.815l.521-4.5c.528-3.034,1.054-4.5,3.562-4.5h10.563c3.557,0,3.977,1.568,3.977,4.5l-4.506,97.9c0,3.031-.517,4.495-3.966,4.495H2506.96Z" transform="translate(-140.584 -545.314)" fill="#fff"/>
        <path id="Path_24" data-name="Path 24" d="M2728.572,890.882c-3.032,0-3.974-.521-3.974-3.556v-9.518c0-3.031,1.05-3.554,3.974-3.973l14.536-.523c9-.521,10.047-3.452,10.047-41.731V611.1c0-38.177-.941-41.209-10.047-41.734l-14.536-.52c-3.032-.525-3.974-1.048-3.974-3.976v-9.518c0-3.032,1.05-3.555,3.974-3.555H2845.1c3.028,0,3.969.523,3.969,3.555v9.518c0,3.035-1.046,3.976-3.969,3.976l-21.551.52c-9.521.525-10.043,3.557-10.043,41.734V870.8h38.39c34.084,0,46.747-33.155,49.259-97.9,0-3.557.94-4.5,3.452-4.5h10.56c3.036,0,3.562,1.046,3.562,4.5l-5.023,113.48c0,3.035-.521,4.5-3.974,4.5Z" transform="translate(-130.424 -545.314)" fill="#fff"/>
      </g>
      <g id="Group_35" data-name="Group 35" transform="translate(979.705 0)">
        <g id="Group_32" data-name="Group 32" transform="translate(146.251 0)">
          <g id="Group_26" data-name="Group 26" transform="translate(0 49.834)">
            <path id="Path_25" data-name="Path 25" d="M1176.277,275.184c-1.989.418-2.826.209-3.241-1.778-.419-1.778-.734-3.556-1.153-5.334-.417-1.987.211-2.51,2.2-2.929,2.09-.627,4.286-1.36,6.377-1.987,5.127-1.464,8.37-2.719,7.013-9.518-1.258-6.38-5.231-15.375-13.183-30.75-4.494-9.936-8.993-19.768-13.49-29.7q-27.611,5.8-55.012,12.237c-.106,1.778-.106,3.556-.211,5.334-.419,15.584-.315,34.2,3.031,47.8,3.032,12.656,8.474,18.3,15.689,16.944l5.648-.628c2.089-.523,2.823-.314,3.245,1.674q.622,2.667,1.251,5.334c.417,1.987-.1,2.51-2.194,2.928q-25.574,5.962-50.833,12.551c-1.987.523-2.821.418-3.344-1.569-.422-1.778-.943-3.556-1.36-5.23-.524-1.987.1-2.51,1.984-3.347.63-.314,1.363-.523,1.988-.837,6.593-2.824,7.429-8.995,7.846-25,1.048-10.145,1.673-30.018,2.092-45.288q2.979-80.953,9.413-162.325c.315-2.2.523-2.929,2.51-3.347,3.765-.837,7.636-1.673,11.4-2.51,1.883-.418,2.3-.1,3.553,1.987q46.288,82.522,88.175,166.614c17.255,33.992,19.141,37.13,25.832,36.607h3.557c2.092-.314,2.824-.1,3.137,1.883l.945,5.334c.309,1.987-.315,2.51-2.3,2.824Q1206.555,268.96,1176.277,275.184ZM1111.012,98.006c-.106,0-.31.1-.419.1q-2.509,47.38-3.973,94.55c16-3.765,32.112-7.321,48.218-10.773Q1133.5,139.843,1111.012,98.006Z" transform="translate(-1076.53 -47.747)" fill="#161a1e"/>
          </g>
          <g id="Group_27" data-name="Group 27" transform="translate(143.711 9.567)">
            <path id="Path_26" data-name="Path 26" d="M1373.816,245.051c-2.089.209-2.822,0-3.032-2.092-.21-1.778-.418-3.661-.523-5.439-.21-2.092.418-2.51,2.51-2.719,3.557-.628,7.11-1.151,10.67-1.778,6.17-.941,6.378-2.719,3.972-28.553q-7.057-74.521-14.117-149.042h-.315q-16,97.27-27.509,194.749c-.1,1.674-.733,2.51-1.777,2.615l-10.668,1.255c-1.046.1-1.464-.209-2.4-2.092q-34.518-91.779-73.216-182.407c-.208,0-.523.1-.733.1q8.158,54.6,16.315,109.193c8.68,57.839,12.762,65.788,27.3,64.428,1.882-.1,3.765-.314,5.544-.418,2.09-.314,2.823,0,3.138,1.987.21,1.778.521,3.556.733,5.439.315,2.092-.42,2.406-2.407,2.719-18.092,2.51-36.293,5.23-54.284,8.263-2.092.314-2.823.1-3.135-1.883-.315-1.778-.63-3.556-.941-5.439-.315-1.987.311-2.51,2.4-2.824,1.151-.314,2.3-.628,3.348-.941,9.828-2.615,12.968-11.819,3.973-69.239q-8.782-56.008-17.571-112.122c-3.976-25.311-5.752-26.775-11.508-26.252-3.763.314-7.422.732-11.189,1.15-2.3.418-3.032.209-3.448-1.883-.315-1.883-.63-3.87-.943-5.753-.313-1.987.418-2.51,2.613-2.824,16.737-2.719,33.473-5.334,50.307-7.74,1.573-.209,2.724,0,3.455,2.3q35.927,86.758,67.987,174.563c.315,0,.731-.1,1.04-.1q10.99-92.877,25.841-185.649c.206-2.406,1.669-2.929,3.238-3.033,16.84-1.569,33.681-3.033,50.62-4.288,2.3-.209,3.035.1,3.247,2.2.1,1.987.311,3.87.418,5.857.1,2.092-.63,2.406-2.93,2.615-3.555.523-7.113.941-10.771,1.464-6.172.837-7.533,2.3-5.441,27.821q6.118,76.247,12.344,152.6c2.09,25.939,2.615,27.612,9.2,27.4,3.45,0,7.01-.1,10.456-.1,2.1-.1,2.827.209,2.932,2.2.1,1.778.208,3.661.42,5.439.1,2.092-.525,2.406-2.617,2.615Q1405.142,241.913,1373.816,245.051Z" transform="translate(-1213.933 -9.247)" fill="#161a1e"/>
          </g>
          <g id="Group_28" data-name="Group 28" transform="translate(386.317)">
            <path id="Path_27" data-name="Path 27" d="M1546.1,235.012c-2.1,0-2.726-.314-2.825-2.3,0-1.778,0-3.661-.109-5.439,0-2.092.628-2.406,2.719-2.406,2.2-.209,4.392-.523,6.592-.732,5.229-.418,8.677-1.046,8.677-7.949,0-6.485-2.087-16-6.9-32.737-2.406-10.564-4.918-21.127-7.424-31.8-18.722.209-37.343.628-56.065,1.36-.414,1.778-.838,3.452-1.251,5.23-3.354,15.166-6.9,33.469-6.281,47.484.525,12.969,4.708,19.663,12.031,19.768,1.882.1,3.763.314,5.544.418,2.092-.1,2.823.209,2.823,2.3.107,1.778.107,3.661.214,5.439.1,2.092-.63,2.406-2.726,2.51-17.361.628-34.718,1.36-51.979,2.406-2.094.1-2.825-.1-2.93-2.2-.1-1.778-.21-3.661-.311-5.439-.109-2.092.517-2.51,2.609-2.929.735-.1,1.365-.314,2.1-.418,6.9-1.464,8.99-7.426,12.445-23.01,3.035-9.727,7.426-29.181,10.667-44.033q18.513-78.914,40.369-157.41c.739-2.092,1.155-2.719,3.037-2.824C1521,.2,1524.863.1,1528.733.1c1.88,0,2.3.314,3.14,2.719q29.18,89.9,53.864,180.629c10.354,36.607,11.508,40.163,18.2,40.9,1.149.209,2.3.523,3.453.732,2.087,0,2.713.418,2.713,2.51,0,1.778-.1,3.661-.1,5.439,0,2.092-.731,2.406-2.823,2.3C1587.1,234.8,1566.6,234.7,1546.1,235.012ZM1516.708,48.421h-.422c-7.739,30.645-15.06,61.29-22.172,91.936,16.319-.628,32.74-.941,49.053-1.151C1534.694,108.979,1525.913,78.648,1516.708,48.421Z" transform="translate(-1445.889 -0.1)" fill="#161a1e"/>
          </g>
          <g id="Group_29" data-name="Group 29" transform="translate(565.958 4.201)">
            <path id="Path_28" data-name="Path 28" d="M1741.637,244.868c-1.668-.1-2.4-.523-3.234-3.033q-2.52-5.02-5.023-10.041a2.058,2.058,0,0,1-.733-.1c-10.771,7.321-26.46,12.551-43.721,11.505-45.91-2.929-72.689-51.773-71.224-119.966,1.466-70.6,32.32-122.685,91.2-118.92,17.05,1.15,32.53,7.531,40.793,14.434q.781-2.667,1.567-5.334c.521-1.987,1.046-3.033,3.763-2.719,1.466.1,2.829.209,4.291.418,2.717.209,3.032,1.255,2.822,3.347-2.1,22.592-4.078,45.183-6.168,67.775-.214,2.406-.73,3.033-3.242,2.824-1.991-.209-3.978-.314-5.96-.523-2.306-.209-2.512-.941-2.306-3.242,0-1.987.109-3.87.109-5.857,2.2-28.658-9.313-57.839-37.555-59.722-45.281-2.824-52.816,41.418-55.639,109.3-2.825,70.39,8.888,105.219,41,107.31,11.5.732,22.273-3.556,30.119-9.413.941-11.4,1.781-22.7,2.717-34.1,2.1-25.834,1.882-27.612-4.6-28.449-5.853-.837-11.712-1.569-17.569-2.3-2.194-.1-2.827-.523-2.722-2.615.109-1.778.21-3.661.424-5.439.1-1.987.835-2.3,3.032-2.2,22.8,1.569,45.6,3.451,68.4,5.857,2.2.209,2.821.628,2.615,2.719-.21,1.778-.418,3.661-.517,5.439-.216,1.987-.945,2.3-3.141,2.092-2.93,0-5.861.1-8.789.1-6.907-.314-7.423,1.36-9.83,27.194-1.567,17.258-3.247,34.515-4.813,51.773-.208,2.092-.63,2.719-2.719,2.51A11.833,11.833,0,0,0,1741.637,244.868Z" transform="translate(-1617.645 -4.117)" fill="#161a1e"/>
          </g>
          <g id="Group_30" data-name="Group 30" transform="translate(731.858 18.094)">
            <path id="Path_29" data-name="Path 29" d="M1778.813,246.768c-2.094-.209-2.72-.628-2.512-2.719.206-1.778.418-3.661.626-5.439.206-2.092.943-2.3,3.037-2.092,3.45.209,7,.314,10.456.523,7.008.523,7.529-1.15,10.668-26.984Q1810.349,134.28,1819.7,58.4c3.142-25.834,2.621-27.926-4.6-28.763-3.764-.732-7.636-1.36-11.4-1.987-2.3-.314-3.036-.732-2.826-2.719.212-1.778.418-3.661.63-5.439.21-1.987,1.046-2.3,3.349-1.987q60.391,6.9,120.592,17.048c3.032.523,3.347,1.255,2.929,3.242-3.347,19.872-6.8,39.745-10.147,59.617-.42,2.3-.836,2.929-3.451,2.51-1.985-.314-3.973-.628-5.962-1.046-2.195-.418-2.51-1.15-2.409-3.556.214-1.255.42-2.51.63-3.661,3.871-30.541-1.361-48.112-23.531-51.459-9.836-1.464-19.556-2.929-29.39-4.184-4.186,30.331-8.262,60.767-12.447,91.1,4.288.628,8.576,1.15,12.863,1.778,15.691,2.3,21.964-7.112,25-21.86.107-1.046.315-1.987.416-3.033.63-1.987,1.151-2.615,3.348-2.3,1.571.209,3.245.523,4.811.732,2.613.418,2.827,1.151,2.512,3.138-3.665,23.115-7.323,46.125-10.979,69.239-.422,2.3-.737,2.615-3.35,2.2-1.569-.209-3.135-.523-4.71-.732-2.087-.314-2.717-1.15-2.4-3.138.206-1.569.521-3.138.733-4.707,1.882-14.538-1.569-25.834-17.258-28.135-4.291-.628-8.474-1.15-12.762-1.778-4.6,33.888-9.306,67.775-13.9,101.558,12.548,1.673,25.2,3.556,37.753,5.543,22.38,3.556,32.214-20.709,37.862-44.347a6.218,6.218,0,0,0,.521-1.255c.315-1.987.84-2.615,2.936-2.3l5.647.941c2.816.523,3.131,1.255,2.713,3.242q-7.059,29.652-14.117,59.3c-.315,1.987-.836,2.615-3.558,2.2C1856.941,256.809,1817.926,251.161,1778.813,246.768Z" transform="translate(-1776.263 -17.4)" fill="#161a1e"/>
          </g>
          <g id="Group_31" data-name="Group 31" transform="translate(880.503 43.122)">
            <path id="Path_30" data-name="Path 30" d="M2032.508,168.586a.393.393,0,0,1-.1.314c19.871,12.76,26.776,29.076,18.3,71.017-6.9,34.933-7.115,46.543.731,48.53,4.393,1.15,8.579-4.811,11.926-14.852.727-1.255,1.672-2.092,3.239-1.255.836.418,1.68.942,2.619,1.36,1.566.837,2.091,1.987,1.043,4.183-6.695,19.454-17.468,24.684-30.022,21.441-25.308-6.38-22.483-32.946-17.357-65.579,7.323-41.523,4.08-59.826-14.644-64.114-6.275-1.36-12.443-2.719-18.722-4.079-5.227,24.474-10.457,49.053-15.794,73.527-5.437,25.416-5.437,27.194.941,28.867,3.347.941,6.8,1.883,10.147,2.929,2.088.418,2.718.941,2.2,2.929-.414,1.778-.838,3.556-1.146,5.334-.424,1.987-1.159,2.2-3.247,1.673q-30.748-6.9-61.809-12.76c-2.094-.418-2.724-.837-2.306-2.824.315-1.778.628-3.556,1.046-5.334.422-1.987,1.151-2.3,3.243-1.883,3.448.418,6.9.941,10.456,1.36,7.014,1.046,7.638-.628,12.764-26.043q14.9-74.835,29.911-149.775c5.124-25.52,5.124-27.194-2.51-29.076-3.768-.941-7.527-1.883-11.191-2.824-2.3-.418-2.929-.941-2.614-2.929.315-1.778.735-3.556,1.05-5.439.416-1.987,1.25-2.2,3.553-1.778q34.361,6.589,68.51,14.224c40.365,8.995,66.517,30.122,56.16,69.449C2081.039,154.885,2059.914,168.063,2032.508,168.586ZM2030,67.446l-18.516-4.079c-6.491,30.122-12.869,60.14-19.354,90.262l18.518,4.079c23.846,5.334,38.07-5.857,45.809-37.757C2065.038,84.286,2053.538,72.676,2030,67.446Z" transform="translate(-1918.383 -41.329)" fill="#161a1e"/>
          </g>
        </g>
        <g id="Group_33" data-name="Group 33" transform="translate(0 181.152)">
          <path id="Path_31" data-name="Path 31" d="M976.862,230.825Q956.938,221.256,936.7,212c7.321-12.969,14.851-25.835,22.487-38.7,13.6,6.275,26.986,12.76,40.266,19.349C991.819,205.3,984.287,218.065,976.862,230.825Z" transform="translate(-936.7 -173.3)" fill="#161a1e"/>
        </g>
        <g id="Group_34" data-name="Group 34" transform="translate(1248.922 181.152)">
          <path id="Path_32" data-name="Path 32" d="M2153.39,230.825c-7.32-12.76-14.95-25.52-22.59-38.175,13.282-6.589,26.777-12.969,40.264-19.349,7.641,12.864,15.173,25.73,22.494,38.7Q2173.321,221.255,2153.39,230.825Z" transform="translate(-2130.8 -173.3)" fill="#161a1e"/>
        </g>
      </g>
      <g id="Group_38" data-name="Group 38" transform="translate(1153.849 1205.073)">
        <g id="Group_36" data-name="Group 36" transform="translate(0 39.561)">
          <rect id="Rectangle_148" data-name="Rectangle 148" width="963.493" height="16.735" fill="#161a1e"/>
        </g>
        <g id="Group_37" data-name="Group 37" transform="translate(433.805 0)">
          <rect id="Rectangle_149" data-name="Rectangle 149" width="67.775" height="67.775" transform="translate(47.924 0) rotate(45)" fill="#161a1e"/>
        </g>
      </g>
    </g>
  </g>
</svg>
