<svg id="Layer_1" data-name="Layer 1" xmlns="http://www.w3.org/2000/svg" viewBox="0 0 130 170"><defs><style>.cls-1{fill:none;}.cls-2{fill:#eaba8b;}.cls-3{fill:#ffcd97;}.cls-4{fill:#ffd9e8;}.cls-5{fill:#efc5d6;}.cls-6{fill:#f29ec3;}.cls-7{fill:#ffb3d2;}.cls-8{fill:#ffe9ee;}.cls-9{fill:#ffcadc;}.cls-10{fill:#e2c3ce;}.cls-11{fill:#d8a4ba;}.cls-12{fill:#efb4c2;}.cls-13{fill:#ffc5d0;}.cls-14{fill:#d696ab;}.cls-15{fill:#c47c96;}.cls-16{fill:#b2547e;}.cls-17{fill:#9b426c;}.cls-18{fill:#872d52;}.cls-19{fill:#c1688d;}.cls-20{fill:#6b1d37;}</style></defs><title>cupcake_2</title><path class="cls-1" d="M58.42,90.53l.33.12,1.52.56-1.52-.56-.33-.12L57,90h0Z"/><path class="cls-1" d="M35.79,77.81l.08.07-.08-.07c-.29-.25-.57-.5-.84-.76L34.86,77l.09.08C35.22,77.31,35.5,77.56,35.79,77.81Z"/><path class="cls-1" d="M48.92,86.39,48,85.94l-.23-.11.22.11Z"/><path class="cls-1" d="M55.44,89.35l-.25-.1L54,88.77l1.15.48Z"/><path class="cls-1" d="M50.64,87.24l.15.06-.15-.07c-.44-.2-.88-.42-1.31-.63h0Z"/><path class="cls-1" d="M37.82,79.5l.23.18.66.49-.66-.49-.23-.18-.92-.74,0-.05,0,.05Z"/><path class="cls-1" d="M42.57,82.83l-.14-.09-1-.66,1,.66Z"/><path class="cls-1" d="M41.33,82l0,0-.1-.06.1.06Z"/><path class="cls-1" d="M52.31,88l1.41.62.15.06-.15-.06L52.31,88l-.23-.11-.66-.3.66.3Z"/><path class="cls-1" d="M62,21.73l.07,0Z"/><path class="cls-1" d="M49,55.39a3.66,3.66,0,0,1-.48-.2A3.66,3.66,0,0,0,49,55.39Z"/><path class="cls-1" d="M40.33,50.7l.15-.17h0Z"/><path class="cls-1" d="M59.15,86.58l.37.06,1.72.21-1.72-.22Z"/><path class="cls-1" d="M43.81,83.59Z"/><path class="cls-1" d="M32.22,81.55l.12.14h0Z"/><path class="cls-1" d="M66.2,92.85h0l2.31.11Z"/><path class="cls-1" d="M66.53,22.16a1.2,1.2,0,0,1,.21.17A1.2,1.2,0,0,0,66.53,22.16Z"/><path class="cls-1" d="M30,49.11l0,0s0,0,0,0l-.8.88-.07.08.07-.07C29.47,49.7,29.74,49.4,30,49.11Z"/><path class="cls-1" d="M64.61,87.23,62.19,87Z"/><path class="cls-1" d="M61.7,21.89l0,0Z"/><path class="cls-1" d="M29.41,50c-.15.24-.3.48-.44.72l0,0c-.16.26-.31.52-.45.79l-.1.17,0,.05,0-.05.1-.17c.14-.27.29-.53.45-.79l0,0q.21-.36.45-.72l.12-.2c.17-.25.33-.51.51-.76-.18.25-.34.51-.51.76Z"/><path class="cls-1" d="M28.12,51.29l.1-.12a.58.58,0,0,1,.1-.12l-.11.12-.09.12c-.23.28-.44.56-.66.85l-.1.14.1-.14C27.67,51.85,27.89,51.57,28.12,51.29Z"/><path class="cls-1" d="M49.33,84.88l-1.87-.41-.73-.17.72.17,1.88.41,1.8.37.7.13-.7-.13Z"/><path class="cls-1" d="M56.19,86.15l.81.13,1,.13-1-.14Z"/><path class="cls-1" d="M53.57,85.71l-.77-.14.77.14.94.16,1.07.18-1.07-.18Z"/><path class="cls-1" d="M27.6,66.86v0s0,0,0,0-.1-.25-.14-.38c0,.13.09.26.14.39Z"/><path class="cls-1" d="M31.75,73.69c-.05-.07-.11-.13-.16-.19a.18.18,0,0,1-.05-.07l.05.07Z"/><path class="cls-1" d="M30.85,72.56a.21.21,0,0,1,0-.06l-.23-.31.23.31Z"/><path class="cls-1" d="M34.25,76.39l-.15-.15,0,0,0,0Z"/><path class="cls-1" d="M33.11,75.23l-.06-.06L32.92,75l.13.15Z"/><path class="cls-1" d="M28.46,68.78v0l-.06-.14.06.14Z"/><path class="cls-1" d="M29.42,70.46c-.14-.22-.28-.44-.4-.67l-.09-.14.08.14C29.14,70,29.28,70.24,29.42,70.46Z"/><path class="cls-1" d="M30.1,71.52l0,0,0,0c-.18-.26-.35-.52-.52-.79a.21.21,0,0,0,0-.06l0,.06C29.75,71,29.92,71.26,30.1,71.52Z"/><path class="cls-1" d="M66.9,22.46l.24.23Z"/><path class="cls-1" d="M62.69,23.13l0,0Z"/><path class="cls-1" d="M61.14,25.39h0Z"/><path class="cls-1" d="M61.68,24.21l0-.05Z"/><path class="cls-1" d="M61.25,25.09l0,0Z"/><path class="cls-1" d="M61.87,23.93l0,0Z"/><path class="cls-1" d="M62.47,23.28l.05,0Z"/><path class="cls-1" d="M62,23.7s0,0,0,0S62.06,23.69,62,23.7Z"/><path class="cls-1" d="M62.25,23.48s0,0,0-.05S62.26,23.46,62.25,23.48Z"/><path class="cls-1" d="M61.52,24.5l0,0Z"/><path class="cls-1" d="M68.06,29l-.09.18Z"/><path class="cls-1" d="M67.88,29.32l-.1.16Z"/><path class="cls-1" d="M68.63,26.88c0-.14,0-.28,0-.43a5.63,5.63,0,0,0-.39-2,5.63,5.63,0,0,1,.39,2C68.65,26.6,68.64,26.74,68.63,26.88Z"/><path class="cls-1" d="M63.4,21.32a4.43,4.43,0,0,0-1,.23l-.1,0,.1,0A4.43,4.43,0,0,1,63.4,21.32Z"/><path class="cls-1" d="M65.57,27.35l-.1.07Z"/><path class="cls-1" d="M65.13,27.63l-.1.06Z"/><path class="cls-1" d="M67.24,22.79a2.11,2.11,0,0,1,.19.23A2.11,2.11,0,0,0,67.24,22.79Z"/><path class="cls-1" d="M66,27.06l-.13.09Z"/><path class="cls-1" d="M68.62,27a1.53,1.53,0,0,1,0,.3A1.53,1.53,0,0,0,68.62,27Z"/><path class="cls-1" d="M68.57,27.44c0,.09,0,.17,0,.25C68.54,27.61,68.55,27.53,68.57,27.44Z"/><path class="cls-1" d="M68.48,27.86l-.06.22Z"/><path class="cls-1" d="M68.06,24c0,.09.09.19.13.28C68.15,24.17,68.11,24.07,68.06,24Z"/><path class="cls-1" d="M46.23,26.91l0,.26h0C46.25,27.08,46.24,27,46.23,26.91Z"/><path class="cls-1" d="M62.93,23,63,23Z"/><path class="cls-1" d="M67.82,23.55a1.62,1.62,0,0,1,.1.18A1.62,1.62,0,0,0,67.82,23.55Z"/><path class="cls-1" d="M67.55,23.16c0,.06.09.13.14.2S67.6,23.22,67.55,23.16Z"/><path class="cls-1" d="M66.15,27l.13-.09a3.17,3.17,0,0,0,.34-.3,3.17,3.17,0,0,1-.34.3Z"/><path class="cls-1" d="M64.64,27.91l.08-.05-.08.05Z"/><path class="cls-1" d="M63.2,22.92h0Z"/><path class="cls-1" d="M64.49,23a8.35,8.35,0,0,0-1-.06h0A8.35,8.35,0,0,1,64.49,23Z"/><path class="cls-1" d="M68.23,28.62l-.09.19Z"/><path class="cls-1" d="M67.45,25a.34.34,0,0,0,0-.1,1.24,1.24,0,0,0,0-.27,1.24,1.24,0,0,1,0,.27Z"/><path class="cls-1" d="M68.37,28.25l-.08.2Z"/><path class="cls-1" d="M61.39,24.77h0Z"/><path class="cls-1" d="M59.67,24.16l0-.1Z"/><path class="cls-1" d="M59.52,24.54s0-.08,0-.12S59.53,24.5,59.52,24.54Z"/><path class="cls-1" d="M59.39,24.93a1,1,0,0,0,0-.14A1,1,0,0,1,59.39,24.93Z"/><path class="cls-1" d="M59.29,25.33c0-.06,0-.11,0-.16S59.3,25.27,59.29,25.33Z"/><path class="cls-1" d="M59.85,23.8a.56.56,0,0,0,0-.08A.56.56,0,0,1,59.85,23.8Z"/><path class="cls-1" d="M19.84,107.16l.85.17L19,107l.38.08Z"/><path class="cls-1" d="M60.28,23.14l0-.05Z"/><path class="cls-1" d="M59.22,25.74l0-.19Z"/><path class="cls-1" d="M46.13,25.32c0-.11,0-.22,0-.32C46.14,25.1,46.13,25.21,46.13,25.32Z"/><path class="cls-1" d="M46.16,26.32l0,.23a2,2,0,0,1,0-.34Z"/><path class="cls-1" d="M46.2,26.67h0v0Z"/><path class="cls-1" d="M48.41,18.43l.54-.05h0Z"/><path class="cls-1" d="M46.31,23.55a10.2,10.2,0,0,1,.75-2.37A10.2,10.2,0,0,0,46.31,23.55Z"/><path class="cls-1" d="M59.19,26.16c0-.07,0-.14,0-.21S59.19,26.09,59.19,26.16Z"/><path class="cls-1" d="M60.06,23.46l0-.06Z"/><path class="cls-1" d="M60.53,22.84l0,0Z"/><path class="cls-1" d="M61.08,22.32l.05,0Z"/><path class="cls-1" d="M65.87,92.78l0,0h0l-.1,0Z"/><path class="cls-1" d="M61.38,22.09l0,0Z"/><path class="cls-1" d="M60.8,22.57l0,0Z"/><path class="cls-2" d="M3.57,102.93l.33.06c.92.16,2.09.47,3.45.85l4.57,1.33c1.09.31,2.22.63,3.39.93s2.44.62,3.68.89l1.7.34,1.62.31,3.48.63,3.3.59c1.36.24,2.72.47,4.1.69l3.28.51,2,.28,3.28.44,2.73.32q1.62.18,3.27.33t3.12.27c1.07.09,2.16.17,3.27.23.87.06,1.75.1,2.65.15,1.07,0,2.16.09,3.26.12l3.29.07h3.26c1.24,0,2.46,0,3.66,0l3.26-.08,2.66-.11c1.11-.05,2.19-.11,3.26-.18s2.09-.14,3.12-.23,2.2-.18,3.28-.29c.91-.09,1.82-.19,2.72-.3,1.11-.12,2.2-.26,3.28-.41l2-.28c1.11-.16,2.2-.33,3.28-.51,1.39-.24,2.75-.48,4.11-.75,1.11-.21,2.21-.44,3.31-.67s2.33-.51,3.49-.79,2.23-.53,3.34-.81l.17,0,3.54-.89,3.38-.84,5.42-1.34,3.15-.78a1.54,1.54,0,0,1,.3,0l.19,0a7.66,7.66,0,0,0,.43-1.66c-11.46,5.57-31.08,9.24-53.37,9.24-23.31,0-43.71-4-54.9-10A19.26,19.26,0,0,1,6.68,91.81c-3.17,2.57-4.92,5.4-4.92,8.37a7.84,7.84,0,0,0,.59,2.95A1.8,1.8,0,0,1,3.57,102.93Z"/><path class="cls-3" d="M80.89,95.33c-1.94-.25-3.87-.52-5.76-.82C77,94.81,79,95.08,80.89,95.33Z"/><path class="cls-3" d="M32.34,81.69a2.85,2.85,0,0,1,.23.26,2.85,2.85,0,0,0-.23-.26Z"/><path class="cls-3" d="M65.92,92.8l0,0Z"/><path class="cls-3" d="M118.77,96.75a19.4,19.4,0,0,1-4.35,2.59c-.53.23-1.08.43-1.64.61s-1.06.31-1.6.44a18.85,18.85,0,0,1-3.14.44,18.94,18.94,0,0,0-2.71.34l-3.73.75-.39.07-2,.41-3.46.7-5.32,1.07c-.69.09-1.88.2-3.37.31l-2.87.21h0l-4.34.27c-4.71.27-9.49.5-11.19.53-2.32.05-4.65.05-7,0l-.76,0c-3.19-.09-12.08-.75-17-1.3l-6.73-1.09-11-1.79-1-.17a10.55,10.55,0,0,0-1.38-.1c-.58,0-1.19-.25-1.78-.28a19.1,19.1,0,0,1-2.41-.27c11.19,6,31.59,10,54.9,10,22.29,0,41.91-3.67,53.37-9.24a7.59,7.59,0,0,0,.07-1.07c0-2.93-1.71-5.72-4.8-8.27A19.94,19.94,0,0,1,118.77,96.75Z"/><path class="cls-4" d="M60.84,169.43l-3.27-.08C58.72,169.39,59.81,169.41,60.84,169.43Z"/><path class="cls-4" d="M55.65,169.29l-3.27-.15Z"/><path class="cls-4" d="M127.44,102.91l-.19,0L117.55,161c2.84-4.06,5.09-16.09,8.58-31.64C127.66,122.51,131,103.52,127.44,102.91Z"/><path class="cls-5" d="M26.2,155.4,27,165.78h0l2.37.52-.6-9.59C27.93,156.29,27.05,155.85,26.2,155.4Z"/><path class="cls-4" d="M22.31,107.64,26.2,155.4c.85.45,1.73.89,2.62,1.31l-3-48.44Z"/><path class="cls-5" d="M66.56,166.58v2.89H69.4l0-2.61Q68,166.73,66.56,166.58Z"/><path class="cls-4" d="M66.56,112.28v54.3q1.43.15,2.88.27l.78-54.62C69,112.26,67.8,112.27,66.56,112.28Z"/><path class="cls-5" d="M49.89,163.84l.22,5.16,2.27.14-.13-4.78Z"/><path class="cls-4" d="M47.71,111.43l2.18,52.41,2.36.52L50.83,111.7Q49.26,111.58,47.71,111.43Z"/><path class="cls-5" d="M60.78,165.86l.06,3.57,2.46,0v-3.25C62.45,166.1,61.62,166,60.78,165.86Z"/><path class="cls-4" d="M60,112.2l.77,53.66c.84.13,1.67.24,2.52.35V112.27Z"/><path class="cls-5" d="M44.13,162.37l.29,6.16,2.41.22L46.6,163C45.77,162.82,45,162.6,44.13,162.37Z"/><path class="cls-4" d="M41.71,110.78l2.42,51.59c.82.23,1.64.45,2.47.66L44.44,111.1Z"/><path class="cls-5" d="M32.18,158.22l.55,8.71c.84.15,1.68.3,2.51.43l-.28-8C34,159,33.09,158.6,32.18,158.22Z"/><path class="cls-4" d="M29.09,108.86l3.09,49.36c.91.38,1.84.75,2.78,1.11l-1.77-49.78C31.81,109.33,30.45,109.1,29.09,108.86Z"/><path class="cls-5" d="M38.27,160.54l.26,7.3,2.61.34-.32-6.8C40,161.11,39.11,160.82,38.27,160.54Z"/><path class="cls-4" d="M36.47,110.06l1.8,50.48c.84.28,1.69.57,2.55.84l-2.39-51Z"/><path class="cls-5" d="M55.53,165l.12,4.29,1.92.06-.06-4Z"/><path class="cls-4" d="M54.1,111.93,55.53,165l2,.35-.76-53.27C55.85,112,55,112,54.1,111.93Z"/><path class="cls-5" d="M89.15,167.27l-.06,1.25c.86-.09,1.74-.18,2.61-.29l0-1.09C90.88,167.19,90,167.24,89.15,167.27Z"/><path class="cls-4" d="M91.8,110.63l-2.65,56.64c.87,0,1.73-.08,2.59-.13l2-56.79Z"/><path class="cls-5" d="M83.47,167.4,83.4,169l2.41-.18.07-1.46C85.08,167.39,84.28,167.4,83.47,167.4Z"/><path class="cls-4" d="M85.8,111.34,83.47,167.4c.81,0,1.61,0,2.41,0L88.52,111C87.62,111.15,86.71,111.25,85.8,111.34Z"/><path class="cls-5" d="M95,166.92l0,.88,2.52-.4,0-.7Z"/><path class="cls-4" d="M97,109.84l-2,57.08,2.53-.22,3.61-57.61C99.79,109.36,98.43,109.6,97,109.84Z"/><path class="cls-5" d="M77.9,167.33l-.05,2,2.28-.11.08-1.81C79.43,167.37,78.67,167.36,77.9,167.33Z"/><path class="cls-4" d="M79.4,111.86l-1.5,55.47c.77,0,1.53,0,2.31,0l2.31-55.75C81.49,111.72,80.46,111.79,79.4,111.86Z"/><path class="cls-4" d="M111.46,106.78l-.17,0-4.78,58.68,1.59-.43,6.9-59.18Z"/><path class="cls-5" d="M72.69,167.09l0,2.34,1.93,0,.06-2.19Z"/><path class="cls-4" d="M73.48,112.15l-.79,54.94,2,.11L76.14,112Z"/><path class="cls-4" d="M118.38,105.05l-6.88,59c.8-.26,1.59-.54,2.37-.83l9.93-59.48Z"/><path class="cls-5" d="M100.83,166.35l0,.45c.8-.16,1.59-.32,2.38-.5l0-.25Z"/><path class="cls-4" d="M100.83,166.35l2.37-.3h0L108,107.63c-1.16.28-2.32.54-3.49.79Z"/><path class="cls-5" d="M7.3,138.33c1.9,7.91,3.87,15.78,5.9,20.35l-2.55-15.23A27.59,27.59,0,0,1,7.3,138.33Z"/><path class="cls-4" d="M6.89,120.91,3.9,103l-.33-.06a1.8,1.8,0,0,0-1.22.2c-3.43,2,.49,17,2.31,24.27.13.54.27,1.09.41,1.64.73,3,1.47,6.13,2.23,9.29a27.59,27.59,0,0,0,3.35,5.12Z"/><path class="cls-5" d="M14.66,147.61,17.23,163l1.49.5L17.1,149.64C16.25,149,15.43,148.3,14.66,147.61Z"/><path class="cls-4" d="M11.92,105.17l-4.57-1.33,2.11,12.64,5.2,31.13c.77.69,1.59,1.37,2.44,2l-4.32-37.08Z"/><path class="cls-5" d="M20.68,152.19l1.44,12.34,1.59.42-.94-11.46C22.06,153.07,21.36,152.63,20.68,152.19Z"/><path class="cls-4" d="M19,107c-1.24-.27-2.48-.58-3.68-.89l.44,3.73,4.93,42.36c.68.44,1.38.88,2.09,1.3L19,107.32Z"/><path class="cls-6" d="M10.65,143.45l2.55,15.23c1,2.15,1.9,3.56,2.87,3.91l1.16.41-2.57-15.39A37.13,37.13,0,0,1,10.65,143.45Z"/><path class="cls-7" d="M7.35,103.84c-1.36-.38-2.53-.69-3.45-.85l3,17.92,3.76,22.54a37.13,37.13,0,0,0,4,4.16l-5.2-31.13Z"/><path class="cls-6" d="M63.3,166.21v3.25h3.26v-2.89C65.47,166.47,64.38,166.34,63.3,166.21Z"/><path class="cls-7" d="M65.53,112.28H63.3v53.94c1.08.13,2.17.26,3.26.37v-54.3Z"/><path class="cls-7" d="M127,102.93l-3.15.78-9.93,59.48c.74-.28,1.48-.57,2.21-.87a3.66,3.66,0,0,0,1.47-1.35l9.7-58.08A1.54,1.54,0,0,0,127,102.93Z"/><path class="cls-6" d="M57.51,165.35l.06,4,3.27.08-.06-3.57Q59.13,165.62,57.51,165.35Z"/><path class="cls-7" d="M56.75,112.08l.76,53.27q1.62.27,3.27.51L60,112.2C58.91,112.17,57.82,112.12,56.75,112.08Z"/><path class="cls-6" d="M52.25,164.36l.13,4.78,3.27.15L55.53,165C54.43,164.8,53.33,164.59,52.25,164.36Z"/><path class="cls-7" d="M50.83,111.7l1.42,52.66c1.08.23,2.18.44,3.28.64L54.1,111.93C53,111.87,51.9,111.79,50.83,111.7Z"/><path class="cls-6" d="M46.6,163l.23,5.72c1.12.1,2.21.18,3.28.25l-.22-5.16C48.78,163.58,47.68,163.32,46.6,163Z"/><path class="cls-7" d="M44.44,111.1,46.6,163c1.08.29,2.18.55,3.29.81l-2.18-52.41Q46.06,111.28,44.44,111.1Z"/><path class="cls-6" d="M17.1,149.64l1.62,13.86c1.12.36,2.26.7,3.4,1l-1.44-12.34Q18.79,150.95,17.1,149.64Z"/><path class="cls-7" d="M15.31,106.1c-1.17-.3-2.3-.62-3.39-.93l.86,7.39,4.32,37.08q1.7,1.31,3.58,2.55l-4.93-42.36Z"/><path class="cls-6" d="M22.77,153.49,23.71,165c1.1.3,2.22.57,3.33.83L26.2,155.4C25,154.79,23.87,154.15,22.77,153.49Z"/><path class="cls-7" d="M20.69,107.33l-.85-.17-.47-.09L19,107l0,.33,3.75,46.17c1.1.66,2.25,1.3,3.43,1.91l-3.89-47.76Z"/><path class="cls-6" d="M28.82,156.71l.6,9.59c1.1.22,2.21.44,3.31.63l-.55-8.71C31,157.73,29.91,157.23,28.82,156.71Z"/><path class="cls-7" d="M25.79,108.27l3,48.44c1.09.52,2.21,1,3.36,1.51l-3.09-49.36Z"/><path class="cls-6" d="M35,159.33l.28,8c1.11.18,2.2.34,3.29.48l-.26-7.3C37.14,160.15,36,159.75,35,159.33Z"/><path class="cls-7" d="M33.19,109.55,35,159.33c1.08.42,2.18.82,3.31,1.21l-1.8-50.48Z"/><path class="cls-6" d="M40.82,161.38l.32,6.8c1.11.13,2.2.25,3.28.35l-.29-6.16C43,162.05,41.91,161.72,40.82,161.38Z"/><path class="cls-7" d="M38.43,110.34l2.39,51c1.09.34,2.19.67,3.31,1l-2.42-51.59Z"/><path class="cls-6" d="M69.44,166.85l0,2.61,3.26,0,0-2.34C71.6,167,70.51,166.94,69.44,166.85Z"/><path class="cls-7" d="M70.22,112.23l-.78,54.62c1.07.09,2.16.17,3.25.24l.79-54.94Z"/><path class="cls-6" d="M74.65,167.2l-.06,2.19,3.26-.09.05-2C76.81,167.3,75.72,167.26,74.65,167.2Z"/><path class="cls-7" d="M76.14,112,74.65,167.2c1.07.06,2.16.1,3.25.13l1.5-55.47C78.33,111.93,77.25,112,76.14,112Z"/><path class="cls-6" d="M82.65,167.4c-.82,0-1.63,0-2.44,0l-.08,1.81L83.4,169l.07-1.61Z"/><path class="cls-7" d="M82.52,111.63l-2.31,55.75c.81,0,1.62,0,2.44,0h.82l2.33-56.06C84.72,111.45,83.63,111.54,82.52,111.63Z"/><path class="cls-7" d="M115,105.89l-6.9,59.18,3.4-1,6.88-59Z"/><path class="cls-6" d="M103.2,166.05l0,.25c.9-.2,1.79-.41,2.68-.64-.88.14-1.76.27-2.66.39Z"/><path class="cls-7" d="M108,107.63l-4.75,58.42c.9-.12,1.78-.25,2.66-.39h0l.65-.16,4.78-58.68C110.18,107.1,109.07,107.37,108,107.63Z"/><path class="cls-6" d="M97.54,166.7l0,.7q1.65-.27,3.3-.6l0-.45C99.74,166.48,98.65,166.6,97.54,166.7Z"/><path class="cls-7" d="M101.15,109.09,97.54,166.7c1.11-.1,2.2-.22,3.29-.35l3.63-57.93C103.36,108.65,102.26,108.88,101.15,109.09Z"/><path class="cls-6" d="M91.74,167.14l0,1.09c1.09-.13,2.18-.27,3.28-.43l0-.88C93.93,167,92.84,167.08,91.74,167.14Z"/><path class="cls-7" d="M93.76,110.35l-2,56.79c1.1-.06,2.19-.13,3.27-.22l2-57.08C96,110,94.87,110.19,93.76,110.35Z"/><path class="cls-6" d="M85.88,167.37l-.07,1.46c1.08-.09,2.17-.19,3.28-.31l.06-1.25C88.07,167.32,87,167.35,85.88,167.37Z"/><path class="cls-7" d="M88.52,111l-2.64,56.33c1.09,0,2.19-.05,3.27-.1l2.65-56.64C90.72,110.78,89.63,110.92,88.52,111Z"/><path class="cls-8" d="M19.6,100.47a19.1,19.1,0,0,0,2.41.27c.59,0,1.2.26,1.78.28a10.55,10.55,0,0,1,1.38.1l1,.17c-11.24-6.2-18.4-15.54-18.4-26a23,23,0,0,1,1-6.72L6.07,71.34a19.74,19.74,0,0,0,.61,20.47A19.26,19.26,0,0,0,19.6,100.47Z"/><path class="cls-9" d="M26.18,101.29l11,1.79c-1.55-.71-3-1.46-4.45-2.27-11.6-6.58-19-16.49-19-27.57a24.88,24.88,0,0,1,1.05-7.14,27.72,27.72,0,0,1,3-6.68l-9,9.16a23,23,0,0,0-1,6.72C7.78,85.75,14.94,95.09,26.18,101.29Z"/><path class="cls-8" d="M13.76,73.24c0,11.08,7.39,21,19,27.57,1.42.81,2.9,1.56,4.45,2.27l6.73,1.09c4.89.55,13.78,1.21,17,1.3l.76,0a68.07,68.07,0,0,1-19.57-5.44c-1.54-.7-3-1.46-4.45-2.26-11.6-6.58-19-16.49-19-27.58a24.81,24.81,0,0,1,1.05-7.13,28.18,28.18,0,0,1,3-6.69A38.58,38.58,0,0,1,34.06,44.87c.42-.29.85-.57,1.28-.84l.2-.12a6.29,6.29,0,0,1-.22-.74,17.5,17.5,0,0,0-4.44,3l-1.51,1.53-.2.2L17.82,59.42a27.72,27.72,0,0,0-3,6.68A24.88,24.88,0,0,0,13.76,73.24Z"/><path class="cls-8" d="M84.16,104.69l2.87-.21c1.49-.11,2.68-.22,3.37-.31l5.32-1.07,3.46-.7c-3,.26-6.07.39-9.19.39-.92,0-1.84,0-2.75,0-3.12-.08-6.19-.29-9.19-.62A92.47,92.47,0,0,1,54,96.24c-1.89-.76-3.72-1.58-5.46-2.45l-1.29-.66-.47-.26L46,92.45l-.55-.31-.68-.39-.56-.34L43.56,91,43,90.68l-.6-.39-.56-.36-.57-.39-.55-.38-.55-.39-.53-.39L39.09,88l-.51-.39-.53-.41-.49-.41-.51-.42-.47-.41-.49-.43-.46-.42-.47-.44-.44-.42-.46-.46-.41-.42-.45-.48c-.13-.13-.26-.27-.38-.41l-.45-.5a2.85,2.85,0,0,0-.23-.26l-.12-.14L31.77,81l-.31-.39L31,80l-.25-.32c-.23-.31-.45-.63-.67-.94l-.15-.22-.49-.75-.23-.37c-.12-.2-.25-.4-.36-.6s-.16-.28-.24-.43-.21-.37-.31-.55-.16-.31-.24-.46-.19-.36-.27-.54l-.23-.48-.24-.52-.21-.5-.21-.52c-.07-.17-.13-.34-.19-.51s-.13-.34-.18-.51l-.18-.54-.15-.49c-.06-.19-.11-.37-.16-.56s-.09-.32-.13-.48-.09-.39-.13-.58-.07-.31-.1-.47l-.12-.6c0-.15-.05-.3-.07-.45s-.07-.41-.1-.62,0-.28-.05-.42,0-.45-.06-.67c0,0,0-.07,0-.11s0-.29,0-.43l0-.43c0-.35,0-.7,0-1a24.14,24.14,0,0,1,1.28-7.73c.1-.32.22-.63.33-.94.05-.12.1-.25.16-.38l.24-.61,0,0c.05-.12.1-.24.16-.36s.08-.17.11-.26l.11-.22c.12-.26.25-.53.38-.78l0-.1.36-.66,0-.05.1-.17c.14-.27.29-.53.45-.79l0,0c.14-.24.29-.48.44-.72l.13-.2c.17-.25.33-.51.51-.76l0,0c-.27.29-.54.59-.8.89l-.07.07-.13.15c-.24.27-.47.55-.69.83a.58.58,0,0,0-.1.12l-.1.12c-.23.28-.45.56-.66.85l-.1.14a1.13,1.13,0,0,0-.1.13c-.24.32-.47.65-.7,1a27.76,27.76,0,0,0-3.45,6.94,23.85,23.85,0,0,0-1.2,7.41c0,11.51,8.47,21.8,21.78,28.63,1.63.83,3.33,1.62,5.1,2.35a84.42,84.42,0,0,0,22.45,5.64c2.8.32,5.66.53,8.58.6l4.34-.27Z"/><path class="cls-9" d="M32.93,78.43C28.48,73.27,26,67.52,26,61.47a22.56,22.56,0,0,1,1.22-7.28l0,0-.24.61c-.06.13-.11.26-.16.38-.11.31-.23.62-.33.94a24.14,24.14,0,0,0-1.28,7.73c0,.35,0,.7,0,1l0,.43c0,.14,0,.29,0,.43s0,.07,0,.11c0,.22,0,.44.06.67s0,.28.05.42.06.42.1.62,0,.3.07.45l.12.6c0,.16.06.32.1.47s.09.39.13.58.09.32.13.48.1.37.16.56l.15.49.18.54c.05.17.12.34.18.51s.12.34.19.51l.21.52.21.5.24.52.23.48c.08.18.18.36.27.54s.15.31.24.46.2.37.31.55.15.29.24.43.24.4.36.6l.23.37.49.75.15.22c.22.31.44.63.67.94L31,80l.47.61.31.39.45.54.12.14a2.85,2.85,0,0,1,.23.26l.45.5c.12.14.25.28.38.41l.45.48.41.42.46.46.44.42.47.44.46.42.49.43.47.41.51.42.49.41.53.41.51.39.54.41.53.39.55.39.55.38.57.39.56.36.6.39.57.35.63.38.56.34.68.39.55.31.78.42.47.26,1.29.66c1.74.87,3.57,1.69,5.46,2.45a92.47,92.47,0,0,0,24.07,5.9c3,.33,6.07.54,9.19.62.91,0,1.83,0,2.75,0,3.12,0,6.19-.13,9.19-.39l2-.41C70.92,101.87,44.87,92.25,32.93,78.43Z"/><path class="cls-8" d="M124.77,87.86a176.54,176.54,0,0,1-18.69,3.49q-7.11,1-14.66,1.41c-.85.06-1.7.1-2.55.14-3.55.18-7.17.27-10.84.27-1.34,0-2.67,0-4,0-1.85,0-3.69-.09-5.52-.17l-2.31-.11h0q1.32.29,2.67.54l.33.07q1.29.26,2.61.48l.39.07,2.69.46.26,0c1.89.3,3.82.57,5.76.82l.26,0,2.84.34.37,0,2.85.29.34,0c1,.1,2,.19,3,.27,1.82.14,3.65.26,5.51.36l2.36.11c1.83.08,3.67.14,5.52.17,1.33,0,2.66,0,4,0q5.51,0,10.85-.27a19.94,19.94,0,0,0,4.37-4.84,20.64,20.64,0,0,0,2-4.14l-.39.09Z"/><path class="cls-8" d="M66.43,85.77a137.4,137.4,0,0,1-19.7-1.47l.73.17,1.87.41,1.8.37.7.13.19,0,.78.15.77.14.94.16,1.07.18.48.08.13,0,.81.12,1,.14.65.1.55.07.37,0,1.72.22h0l.8.09.13,0,2.42.26c1.56.15,3.13.28,4.72.38h0l2,.12c1.57.08,3.14.14,4.73.17,1.14,0,2.28,0,3.44,0q4.71,0,9.3-.29L91,87.52Q97.48,87,103.58,86a126.83,126.83,0,0,0,16-3.66h0l.33-.1.29-.09,2.2-.7,2-.68,1.85-.67A19.7,19.7,0,0,0,124,72c-13.9,8.47-34.29,13.82-57,13.82Z"/><path class="cls-9" d="M108.25,72.09a48.11,48.11,0,0,1-8.38,3.8l-1,.35-1.12.35L96.5,77l-.16,0-.19.06h0A74.73,74.73,0,0,1,87.22,79q-3.39.52-7,.78L79,79.83c-1.7.09-3.43.14-5.18.14-.64,0-1.28,0-1.91,0-.89,0-1.77,0-2.64-.09l-1.11-.06h0c-.88-.06-1.76-.12-2.63-.2l-.15,0a79.06,79.06,0,0,1-11.45-1.89c-.53-.12-1-.26-1.56-.4-1.23-.32-2.43-.68-3.59-1.06q-2-.66-3.81-1.41C36.32,71.27,30.42,66.16,29,60.36a11.23,11.23,0,0,1,.21-6.07,9.35,9.35,0,0,1,.36-1,15.48,15.48,0,0,1,2.5-4.06l.08-.09c.13-.17.28-.33.42-.49s.25-.28.39-.41c.43-.45.88-.9,1.37-1.33l.4-.34.38-.32.46-.37.55-.42h0a12.58,12.58,0,0,1-.56-1.31l-.07-.22-.2.12c-.43.27-.86.55-1.28.84A38.58,38.58,0,0,0,22.71,56.39a28.18,28.18,0,0,0-3,6.69,24.81,24.81,0,0,0-1.05,7.13c0,11.09,7.39,21,19,27.58,1.42.8,2.91,1.56,4.45,2.26a68.07,68.07,0,0,0,19.57,5.44c2.32.05,4.65.05,7,0,1.7,0,6.48-.26,11.19-.53-2.92-.07-5.78-.28-8.58-.6a84.42,84.42,0,0,1-22.45-5.64C47,98,45.32,97.2,43.69,96.37,30.38,89.54,21.91,79.25,21.91,67.74a23.85,23.85,0,0,1,1.2-7.41,27.76,27.76,0,0,1,3.45-6.94c.23-.33.46-.66.7-1a1.13,1.13,0,0,1,.1-.13l.1-.14c.22-.29.43-.57.66-.85l.09-.12.11-.12c.22-.28.45-.56.69-.83l.13-.15.07-.08.8-.88s0,0,0,0c-.18.25-.34.51-.51.76l-.12.2q-.24.36-.45.72l0,0c-.16.26-.31.52-.45.79l-.1.17,0,.05-.36.66,0,.1c-.13.25-.26.52-.38.78l-.11.22c0,.09-.08.17-.11.26a17.88,17.88,0,0,0-.44,11c.08.29.17.59.27.88a1.59,1.59,0,0,0,.07.2c.05.16.12.33.18.49s.09.26.14.38,0,0,0,0v0c.11.27.23.54.35.81a1.42,1.42,0,0,0,.08.18c.11.25.23.49.35.73l.06.14v0l0,0c.14.27.29.54.45.82h0l.09.14c.12.23.26.45.4.67l.11.19v0a.21.21,0,0,1,0,.06c.17.27.34.53.52.79l0,0,.08.12c.12.18.25.36.38.53l.23.31a.21.21,0,0,0,0,.06l0,0,.59.75.06.07a.18.18,0,0,0,.05.07c.05.06.11.12.16.19s.35.42.53.62l.12.14.52.57.13.15.06.06.06.07.77.78a1.59,1.59,0,0,0,.13.13l0,0,.15.15.57.54,0,0,.09.08c.27.26.55.51.84.76l.08.07L36,78l.79.66.07.06,0,.05.92.74.23.18.66.49.22.17.11.08,1,.72.26.18.92.63.1.06,0,0h0l.08,0,1,.66.14.09.11.07,1.13.69h0l1.17.69.3.17,1.09.61.12.07,1.23.65.09,0,.23.11.88.45.2.1.2.1h0c.43.21.87.43,1.31.63l.15.07.12.06.51.24.66.3.23.11,1.41.62.15.06h0l.15.07,1.15.48.25.1h0l1.5.61H57l1.43.55.33.12,1.52.56,1.65.57.61.21.49.16h0l.85.28.4.13,1.62.51.62.19,1.73.51a179.88,179.88,0,0,0,35.06,6.14c1.82.14,3.66.27,5.51.36l2.37.12c.54-.13,1.08-.27,1.6-.44s1.11-.38,1.64-.61a19.4,19.4,0,0,0,4.35-2.59q-5.34.27-10.85.27c-1.34,0-2.67,0-4,0-1.85,0-3.69-.09-5.52-.17L96,96.7c-1.86-.1-3.69-.22-5.51-.36-1-.08-2-.17-3-.27l-.34,0-2.85-.29-.37,0-2.84-.34-.26,0c-1.94-.25-3.87-.52-5.76-.82l-.26,0L72.18,94l-.39-.07q-1.32-.22-2.61-.48l-.33-.07q-1.35-.26-2.67-.54h0l2.31.11c1.83.08,3.67.14,5.52.17,1.33,0,2.66,0,4,0,3.67,0,7.29-.09,10.84-.27.85,0,1.7-.08,2.55-.14q7.55-.45,14.66-1.41a176.54,176.54,0,0,0,18.69-3.49h0l.39-.09a19.71,19.71,0,0,0,1.12-7.64l-1.85.67-2,.68-2.2.7-.29.09-.33.1h0a126.83,126.83,0,0,1-16,3.66Q97.49,87,91,87.52l-2.17.14q-4.59.28-9.3.29c-1.16,0-2.3,0-3.44,0-1.59,0-3.16-.09-4.73-.17l-2-.12h0c-1.59-.1-3.16-.23-4.72-.38L62.19,87l-.13,0-.8-.09h0l-1.72-.21-.37-.06-.55-.07-.65-.1-1-.13-.81-.13-.13,0-.48-.08-1.07-.18-.94-.16-.77-.14L52,85.42l-.19,0-.7-.13-1.8-.37-1.88-.41-.72-.17-.12,0-.83-.19L45,83.9l.28,0c1.56.15,3.13.28,4.72.38h0l2,.12c1.56.08,3.14.14,4.73.17,1.14,0,2.28.05,3.43.05q4.73,0,9.3-.29l2.18-.14q6.47-.48,12.58-1.49a127.63,127.63,0,0,0,16-3.66h0l.34-.1.28-.09c.75-.23,1.48-.46,2.2-.7s1.34-.45,2-.68l1.86-.67a84.4,84.4,0,0,0,15-7.26l-4.06-4-1.13-1.13A24.74,24.74,0,0,1,108.25,72.09ZM65.94,92.8h0l0,0h-.06l.1,0Z"/><path class="cls-8" d="M107.18,67.75a47.41,47.41,0,0,1-7.72,3l-.95.28-1,.28c-.37.11-.75.2-1.13.3l-.14,0-.18,0h0a77.24,77.24,0,0,1-8.23,1.53q-3.14.42-6.46.63L80.22,74c-1.56.08-3.16.12-4.77.12l-1.76,0c-.82,0-1.63,0-2.43-.08l-1,0h0c-.82-.05-1.63-.1-2.43-.17h-.14A85,85,0,0,1,57.1,72.24l-1.44-.32c-1.13-.27-2.24-.55-3.31-.86s-2.38-.73-3.5-1.13c-8-2.85-13.4-6.94-14.68-11.59a7.72,7.72,0,0,1-.3-2.13,8.12,8.12,0,0,1,.49-2.74c.1-.27.2-.54.33-.81A12.88,12.88,0,0,1,37,49.4l.08-.07.36-.36c.13-.12.26-.25.39-.36l.3-.28a14,14,0,0,1-1.95-2.89h0l-.55.42-.46.37-.38.32-.4.34c-.49.43-.94.88-1.37,1.33-.14.13-.26.27-.39.41s-.29.32-.42.49l-.08.09a15.48,15.48,0,0,0-2.5,4.06,9.35,9.35,0,0,0-.36,1A11.23,11.23,0,0,0,29,60.36c1.39,5.8,7.29,10.91,15.92,14.46q1.83.75,3.81,1.41c1.16.38,2.36.74,3.59,1.06.51.14,1,.28,1.56.4a79.06,79.06,0,0,0,11.45,1.89l.15,0c.87.08,1.75.14,2.63.2h0l1.11.06c.87,0,1.75.08,2.64.09.63,0,1.27,0,1.91,0,1.75,0,3.48,0,5.18-.14l1.21-.08q3.62-.25,7-.78a74.73,74.73,0,0,0,8.93-1.91h0l.19-.06.16,0,1.22-.37,1.12-.35,1-.35a48.11,48.11,0,0,0,8.38-3.8,24.74,24.74,0,0,0,8.6-7.69l-2.22-2.2A23.32,23.32,0,0,1,107.18,67.75Z"/><path class="cls-9" d="M105.64,65.62a46.74,46.74,0,0,1-7.27,2.67l-.9.25-1,.25-1.07.26-.13,0-.16,0h0a77.2,77.2,0,0,1-7.74,1.35c-2,.25-4,.43-6.09.55l-1,0c-1.48.07-3,.11-4.5.11l-1.66,0c-.77,0-1.53,0-2.29-.06l-1,0h0c-.77,0-1.53-.08-2.29-.14h-.12a83.84,83.84,0,0,1-9.94-1.33l-1.36-.28C56,69.06,55,68.81,54,68.53s-2.25-.63-3.31-1C43.2,65,38.08,61.44,36.87,57.35a6.28,6.28,0,0,1-.28-1.87,6.44,6.44,0,0,1,.46-2.4,7.44,7.44,0,0,1,.31-.72,11.16,11.16,0,0,1,2-2.73,15.7,15.7,0,0,1-1.28-1.3l-.3.28c-.13.11-.26.24-.39.36l-.36.36L37,49.4a12.88,12.88,0,0,0-2.3,3.26c-.13.27-.23.54-.33.81a8.12,8.12,0,0,0-.49,2.74,7.72,7.72,0,0,0,.3,2.13c1.28,4.65,6.72,8.74,14.68,11.59,1.12.4,2.29.78,3.5,1.13s2.18.59,3.31.86l1.44.32a85,85,0,0,0,10.55,1.51h.14c.8.07,1.61.12,2.43.17h0l1,0c.8,0,1.61.07,2.43.08l1.76,0c1.61,0,3.21,0,4.77-.12l1.12-.06q3.33-.21,6.46-.63A77.24,77.24,0,0,0,96,71.73h0l.18,0,.14,0c.38-.1.76-.19,1.13-.3l1-.28.95-.28a47.41,47.41,0,0,0,7.72-3,23.32,23.32,0,0,0,7.45-5.55l-1.74-1.74a3.22,3.22,0,0,1-.24.28A21.56,21.56,0,0,1,105.64,65.62Z"/><path class="cls-8" d="M40.59,50.41l-.11.12a2.39,2.39,0,0,1,.22-.23Z"/><path class="cls-8" d="M107.94,58.43l-.22.23a20,20,0,0,1-6.36,3.92,44.74,44.74,0,0,1-6.59,2.15l-.82.2c-.29.08-.58.14-.87.2s-.64.15-1,.21l-.12,0-.15,0h0c-2.21.44-4.56.81-7,1.08-1.78.2-3.62.35-5.51.45l-1,0c-1.33,0-2.7.08-4.07.08H72.76L70.69,67l-.88,0h0l-2.08-.11h-.11a85.3,85.3,0,0,1-9-1.07l-1.23-.23q-1.45-.28-2.82-.6c-1-.25-2-.52-3-.8-6.79-2-11.44-4.92-12.53-8.2a4.59,4.59,0,0,1,.16-3.44,6.19,6.19,0,0,1,.28-.58l.18-.3.15-.22q.26-.35.54-.69l.15-.17c-.38-.29-.73-.59-1.08-.9a11.16,11.16,0,0,0-2,2.73,7.44,7.44,0,0,0-.31.72,6.44,6.44,0,0,0-.46,2.4,6.28,6.28,0,0,0,.28,1.87C38.08,61.44,43.2,65,50.69,67.54c1.06.36,2.16.69,3.31,1s2,.53,3.11.76l1.36.28a83.84,83.84,0,0,0,9.94,1.33h.12c.76.06,1.52.1,2.29.14h0l1,0c.76,0,1.52.05,2.29.06l1.66,0c1.52,0,3,0,4.5-.11l1,0c2.08-.12,4.12-.3,6.09-.55a77.2,77.2,0,0,0,7.74-1.35h0l.16,0,.13,0,1.07-.26,1-.25.9-.25a46.74,46.74,0,0,0,7.27-2.67,21.56,21.56,0,0,0,7-4.88,3.22,3.22,0,0,0,.24-.28l-3.73-3.71a7.56,7.56,0,0,1-1,1.47Z"/><path class="cls-9" d="M83.38,48.88h0Z"/><path class="cls-9" d="M41.48,52.24a2.44,2.44,0,0,1,0-.27,1.5,1.5,0,0,1,0-.2h0c0-.07,0-.15,0-.22h0c0-.07,0-.14.05-.21-.39-.25-.76-.51-1.12-.79l-.15.17q-.28.34-.54.69l-.15.22-.18.3a6.19,6.19,0,0,0-.28.58A4.59,4.59,0,0,0,39,55.93c1.09,3.28,5.74,6.18,12.53,8.2,1,.28,2,.55,3,.8s1.85.41,2.82.6l1.23.23a85.3,85.3,0,0,0,9,1.07h.11L69.8,67h0l.88,0,2.07.05h1.51c1.37,0,2.74,0,4.07-.08l1,0c1.89-.1,3.73-.25,5.51-.45,2.47-.27,4.82-.64,7-1.08h0l.15,0,.12,0c.33-.06.65-.13,1-.21s.58-.12.87-.2l.82-.2a44.74,44.74,0,0,0,6.59-2.15,20,20,0,0,0,6.36-3.92l.22-.23.19-.21a7.56,7.56,0,0,0,1-1.47l-1-1a51.55,51.55,0,0,1-27.59,8C59,63.75,41.48,58.6,41.48,52.24Z"/><path class="cls-9" d="M84.17,48.65l-.53.16.13,0,.4-.12a7.77,7.77,0,0,1-.24,1l1.88-.22C89,49,92.1,48.52,95,48a38.24,38.24,0,0,0,4.09-1c-.8-.49-1.66-.95-2.56-1.4a49.23,49.23,0,0,0-4.89-2.06A15.46,15.46,0,0,1,84.17,48.65Z"/><path class="cls-9" d="M80.47,56.41l-1.18.08L77,56.63l-.78,0-.83,0a18.21,18.21,0,0,1-6,1A18.43,18.43,0,0,1,64,56.93h-.15l-1.44,0h-.6l-1.23,0c-1.8-.06-3.46-.16-4.94-.3l-.35,0c-.84-.08-1.63-.17-2.35-.27l-.3,0-.87-.14-.28,0c-.72-.14-1.35-.28-1.89-.44l-.2-.06L49,55.39a3.66,3.66,0,0,1-.48-.2c-.69-.31-1.07-.66-1.1-1v-.06a.22.22,0,0,1,0-.08v0h0a21.92,21.92,0,0,1-3.71-1.42,4.5,4.5,0,0,0,.16.48,3.67,3.67,0,0,0,.25.48,1.5,1.5,0,0,0,.15.23l.15.21,0,0,.16.2h0l.21.23c.07.07.14.15.22.22l.51.45.27.21a7.55,7.55,0,0,0,.62.44l.26.17.11.07.25.15.53.3.28.15.87.43.37.17c.31.14.64.27,1,.41l.39.15q1,.38,2,.72l.5.16c.59.17,1.2.35,1.83.51l.52.14.58.14.46.11.66.15.67.15c.69.15,1.4.29,2.14.42s1.41.25,2.14.36c.94.14,1.9.28,2.89.4l.55.06.43.05.8.09c.85.09,1.71.17,2.6.24l.71,0c1.29.1,2.62.17,4,.22l.54,0,.69,0,.89,0h2.71a47.66,47.66,0,0,0,24.86-7c.74-.47,1.45-.94,2.11-1.42l-1.65-1.64a86.89,86.89,0,0,1-22.52,4.54Z"/><path class="cls-8" d="M78.86,61.83H76.15l-.89,0-.69,0-.54,0c-1.35,0-2.68-.12-4-.22l-.71,0c-.89-.07-1.75-.15-2.6-.24l-.8-.09-.43-.05L65,61c-1-.12-1.95-.26-2.89-.4-.73-.11-1.44-.23-2.14-.36s-1.45-.27-2.14-.42l-.67-.15-.66-.15L56,59.43l-.58-.14-.52-.14c-.63-.16-1.24-.34-1.83-.51l-.5-.16q-1.08-.34-2-.72l-.39-.15c-.34-.14-.67-.27-1-.41L48.8,57l-.87-.43-.28-.15-.53-.3L46.87,56l-.11-.07-.26-.17a7.55,7.55,0,0,1-.62-.44l-.27-.21-.51-.45c-.08-.07-.15-.15-.22-.22l-.21-.23h0L44.5,54l0,0-.15-.21a1.5,1.5,0,0,1-.15-.23,3.67,3.67,0,0,1-.25-.48,4.5,4.5,0,0,1-.16-.48,18.75,18.75,0,0,1-2.15-1.23c0,.07,0,.14-.05.21h0c0,.07,0,.15,0,.22h0a1.5,1.5,0,0,0,0,.2,2.44,2.44,0,0,0,0,.27c0,6.36,17.49,11.51,39.07,11.51a51.55,51.55,0,0,0,27.59-8l-2.31-2.3c-.66.48-1.37,1-2.11,1.42A47.66,47.66,0,0,1,78.86,61.83Z"/><path class="cls-8" d="M85.81,49.38l-1.88.22q-.11.34-.24.69a10.28,10.28,0,0,1-6.92,5.84,13.62,13.62,0,0,1-1.42.58l.83,0,.78,0,2.33-.14,1.18-.08,1.19-.08a86.89,86.89,0,0,0,22.52-4.54l-4-4c-.36-.25-.74-.49-1.13-.73A38.24,38.24,0,0,1,95,48C92.1,48.52,89,49,85.81,49.38Z"/><path class="cls-8" d="M54.53,55a25.27,25.27,0,0,1-7.07-1h0v0a.22.22,0,0,0,0,.08v.06c0,.39.41.74,1.1,1a3.66,3.66,0,0,0,.48.2l.37.13.2.06c.54.16,1.17.3,1.89.44l.28,0,.87.14.3,0c.72.1,1.51.19,2.35.27l.35,0c1.48.14,3.14.24,4.94.3l1.23,0h.6l1.44,0H64a15.17,15.17,0,0,1-4.79-2.4A25.54,25.54,0,0,1,54.53,55Z"/><path class="cls-10" d="M105.14,77.5c-.66.23-1.32.46-2,.68s-1.45.47-2.2.7l-.28.09-.34.1h0a127.63,127.63,0,0,1-16,3.66q-6.11,1-12.58,1.49l-2.18.14q-4.57.28-9.3.29c-1.15,0-2.29,0-3.43-.05-1.59,0-3.17-.09-4.73-.17l-2-.12h0c-1.59-.1-3.16-.23-4.72-.38l-.28,0,.74.18.83.19.12,0a137.4,137.4,0,0,0,19.7,1.47H67c22.72,0,43.11-5.35,57-13.82h0c-.15-.31-.33-.61-.5-.91L122,69.57a84.4,84.4,0,0,1-15,7.26Z"/><path class="cls-11" d="M63.77,95.28c-2.58-.81-5.05-1.69-7.43-2.62C46.48,88.81,38.45,84,32.93,78.43c11.94,13.82,38,23.44,68.28,23.56l.39-.07c-1.73-.1-3.44-.23-5.14-.37A155.46,155.46,0,0,1,63.77,95.28Z"/><path class="cls-10" d="M26,61.47c0,6,2.49,11.8,6.94,17C38.45,84,46.48,88.81,56.34,92.66c2.38.93,4.85,1.81,7.43,2.62a155.46,155.46,0,0,0,32.69,6.27c1.7.14,3.41.27,5.14.37l3.73-.75a18.94,18.94,0,0,1,2.71-.34,18.85,18.85,0,0,0,3.14-.44l-2.37-.12c-1.85-.09-3.69-.22-5.51-.36a179.88,179.88,0,0,1-35.06-6.14l-1.73-.51-.62-.19-1.62-.51-.4-.13L63,92.15h0L62.53,92l-.61-.21-1.65-.57-1.52-.56-.33-.12L57,90h-.05l-1.5-.61h0l-.25-.1L54,88.77l-.15-.07h0l-.15-.06L52.31,88l-.23-.11-.66-.3-.51-.24-.12-.06-.15-.06-1.31-.64h0l-.2-.1-.2-.1L48,85.94l-.22-.11-.09,0-1.23-.65-.12-.07-1.09-.61-.3-.17-1.17-.69h0l-1.13-.69-.11-.07-.14-.09-1-.66-.08,0h0l0,0-.1-.06-.92-.63L40,81.14l-1-.72-.11-.08-.22-.17-.66-.49-.23-.18-.92-.74,0-.05-.07-.06L36,78l-.12-.11-.08-.07c-.29-.25-.57-.5-.84-.76L34.86,77l0,0-.57-.54-.15-.15,0,0a1.59,1.59,0,0,1-.13-.13l-.77-.78-.06-.07-.06-.06L32.92,75l-.52-.57-.12-.14c-.18-.2-.36-.41-.53-.62l-.16-.19-.05-.07-.06-.07-.59-.75,0,0,0-.06-.23-.31c-.13-.17-.26-.35-.38-.53l-.08-.12,0,0c-.18-.26-.35-.52-.52-.79l0-.06v0l-.11-.19c-.14-.22-.28-.44-.41-.67l-.08-.14h0c-.16-.28-.31-.55-.45-.82l0,0v0l-.06-.14c-.12-.24-.24-.48-.35-.73a1.42,1.42,0,0,1-.08-.18c-.12-.27-.24-.54-.35-.81v-.06c-.05-.13-.1-.26-.14-.39s-.13-.33-.18-.49a1.59,1.59,0,0,1-.07-.2c-.1-.29-.19-.59-.27-.88a17.88,17.88,0,0,1,.44-11c-.06.12-.11.24-.16.36A22.56,22.56,0,0,0,26,61.47Z"/><path class="cls-11" d="M36.17,45.44h0l.48-.35.06,0,.47-.32.46-.31.29-.2.39-.24h0a11.54,11.54,0,0,1-.53-1.38h0l-.71.4L37,43c-.44.26-.88.53-1.3.8l-.13.08.07.22A12.58,12.58,0,0,0,36.17,45.44Z"/><path class="cls-11" d="M39.52,47.21l-.48.37-.47.37-.45.38a15.7,15.7,0,0,0,1.28,1.3,1.59,1.59,0,0,0,.13-.13l.07-.06a8.5,8.5,0,0,1,1.6-1.18A15.62,15.62,0,0,1,40,46.85l-.51.36Z"/><path class="cls-11" d="M41.43,49.6c-.19.17-.37.33-.54.5l-.19.2a2.39,2.39,0,0,0-.22.23c.36.28.73.54,1.12.79a1.55,1.55,0,0,1,.08-.23,1.57,1.57,0,0,1,.09-.23,1.14,1.14,0,0,1,.1-.19l.15-.25a1.41,1.41,0,0,1,.14-.18c.05-.07.11-.13.16-.19a1.07,1.07,0,0,1,.19-.18l0,0,.17-.15c-.22-.18-.44-.37-.64-.57a6.71,6.71,0,0,0-.58.43Z"/><path class="cls-11" d="M43.75,51.06a3,3,0,0,0-.09.75V52s0,.1,0,.15v0l0,.16a1.06,1.06,0,0,0,0,.19A21.92,21.92,0,0,0,47.46,54a.24.24,0,0,1,0-.08.09.09,0,0,0,0,0l0-.06,0-.05a.57.57,0,0,1,.11-.16l0,0,.1-.1.13-.1a3,3,0,0,1,.51-.29,20.15,20.15,0,0,1-4.52-2.42,1.88,1.88,0,0,0-.12.3S43.76,51,43.75,51.06Z"/><path class="cls-10" d="M74.39,56.75l1,0a13.62,13.62,0,0,0,1.42-.58,16.47,16.47,0,0,1-4.31.69l1.23,0Z"/><path class="cls-11" d="M79.72,49.51h.12l-.51,0Z"/><path class="cls-11" d="M76.77,49.49l.23,0,.26,0h.08l-.75-.05Z"/><path class="cls-11" d="M71.87,48.42l.72.25c-.24-.08-.49-.16-.72-.25Z"/><path class="cls-11" d="M82.85,49l.53-.14h0Z"/><path class="cls-11" d="M79,49.55h.16l-.63,0Z"/><path class="cls-11" d="M78.41,49.56l-.81,0Z"/><path class="cls-11" d="M80.71,49.41l.34,0,.23,0-.57.08Z"/><path class="cls-11" d="M71.51,48.29l.21.08-.6-.25Z"/><path class="cls-11" d="M80.21,49.47h.11l.18,0-.41,0Z"/><path class="cls-11" d="M82.27,49.15l.45-.1.09,0-.62.14Z"/><path class="cls-11" d="M74.19,49.11l.22,0L73.74,49Z"/><path class="cls-11" d="M81.67,49.27,82,49.2l-.54.1Z"/><path class="cls-11" d="M75.88,49.4l.48.06h0l-.85-.11Z"/><path class="cls-11" d="M74.8,49.23l.21,0,.44.07h0l-.84-.15Z"/><path class="cls-11" d="M73.51,48.94l-.68-.19Z"/><path class="cls-11" d="M69.85,56.9H68.57c-1.59,0-3.11,0-4.57,0a18.43,18.43,0,0,0,5.34.77,18.21,18.21,0,0,0,6-1l-1,0-.7,0-1.23,0h-.17l-1.32,0Z"/><path class="cls-10" d="M64.64,31.27l-2.47,0Z"/><path class="cls-10" d="M48.06,31.74c0,.09.11.17.17.26L48,31.65Z"/><path class="cls-10" d="M47.6,31l.19.33,0,0-.25-.43A.25.25,0,0,1,47.6,31Z"/><path class="cls-10" d="M66.17,31.05l-.11.06Z"/><path class="cls-10" d="M66.73,30.65a.39.39,0,0,1-.1.08A.39.39,0,0,0,66.73,30.65Z"/><path class="cls-10" d="M59.3,27.65s0,0,0-.06S59.29,27.63,59.3,27.65Z"/><path class="cls-10" d="M65.62,31.26h.15l.09,0-.09,0Z"/><path class="cls-10" d="M66.46,30.86l-.11.07Z"/><path class="cls-10" d="M47.44,30.69l-.17-.34Z"/><path class="cls-10" d="M59.17,26.5h0c0,.12,0,.23,0,.34,0-.11,0-.23,0-.34Z"/><path class="cls-10" d="M50.3,34.28h0c.18.16.36.31.55.45h0C50.67,34.59,50.48,34.44,50.3,34.28Z"/><path class="cls-10" d="M46.26,27.17a1.16,1.16,0,0,0,0,.18,1.13,1.13,0,0,1,0-.18Z"/><path class="cls-10" d="M64.32,28.08a1.38,1.38,0,0,0-.38.3,1.38,1.38,0,0,1,.38-.3l.32-.17h0Z"/><path class="cls-10" d="M62.12,31.29a4.92,4.92,0,0,1-.45-.24,5.15,5.15,0,0,1-2.31-3.12,5.17,5.17,0,0,0,2.31,3.13l.45.23Z"/><path class="cls-10" d="M52.91,38.56l.08.09c-.06-.07-.12-.13-.17-.2Z"/><path class="cls-10" d="M67.46,29.92l-.08.1Z"/><path class="cls-10" d="M59.21,27.05a1.11,1.11,0,0,1,0-.17A1.11,1.11,0,0,0,59.21,27.05Z"/><path class="cls-10" d="M52.11,37.48l-.17-.27Z"/><path class="cls-10" d="M52.39,37.89l-.2-.3Z"/><path class="cls-10" d="M51.73,36.84l.07.13-.12-.22Z"/><path class="cls-10" d="M67.66,29.65a.35.35,0,0,1,0,.08A.35.35,0,0,0,67.66,29.65Z"/><path class="cls-10" d="M67,30.43l-.1.09Z"/><path class="cls-10" d="M52.68,38.28c-.06-.08-.12-.17-.19-.25C52.56,38.11,52.62,38.2,52.68,38.28Z"/><path class="cls-10" d="M51.49,36.39l.06.1-.15-.29Z"/><path class="cls-10" d="M49.81,33.84l.27.25,0,0,.11.1-.44-.41Z"/><path class="cls-10" d="M49.09,33.09l-.26-.31Z"/><path class="cls-10" d="M49.56,33.59l-.27-.29Z"/><path class="cls-10" d="M51.35,36.09c-.05-.1-.09-.21-.14-.32C51.26,35.88,51.3,36,51.35,36.09Z"/><path class="cls-10" d="M51.06,35.37a1.19,1.19,0,0,0,.08.2v0c0-.11-.08-.21-.11-.32A.64.64,0,0,0,51.06,35.37Z"/><path class="cls-10" d="M67.23,30.18l-.09.1Z"/><path class="cls-10" d="M48.65,32.56l-.22-.3Z"/><path class="cls-10" d="M59.23,27.24h0Z"/><path class="cls-10" d="M46.5,28.29s0,0,0,0a1.46,1.46,0,0,0,.05.2l0,.14c0-.14-.09-.28-.13-.42Z"/><path class="cls-10" d="M47,29.76s0,0,0,0l0,.09c0-.1-.09-.2-.13-.3Z"/><path class="cls-10" d="M46.36,27.67a.43.43,0,0,0,0,.11c0,.06,0,.12,0,.18l0,.11v0c-.05-.19-.09-.38-.12-.56A.89.89,0,0,0,46.36,27.67Z"/><path class="cls-10" d="M46.82,29.29,46.7,29Z"/><path class="cls-10" d="M35.67,43.83c.42-.27.86-.54,1.3-.8l.12-.07.71-.4-.12-.41c-.83.31-1.62.66-2.36,1a6.29,6.29,0,0,0,.22.74Z"/><path class="cls-10" d="M37.94,44.2l-.29.2-.46.31-.47.32-.06,0-.48.35h0a14,14,0,0,0,1.95,2.89l.45-.38.47-.37.48-.37h0l.51-.36A15,15,0,0,1,38.34,44h0Z"/><path class="cls-10" d="M53.75,39.46h0l-.09-.09Z"/><path class="cls-10" d="M54.4,40.06l.19.17h0l-.23-.2Z"/><path class="cls-10" d="M54,39.67l0,0-.11-.1Z"/><path class="cls-10" d="M55.09,40.62h0l.2.15Z"/><path class="cls-10" d="M56.65,41.64l.22.13.05,0Z"/><path class="cls-10" d="M55.61,41l-.07-.05Z"/><path class="cls-10" d="M39.53,49.5a1.59,1.59,0,0,1-.13.13c.35.31.7.61,1.08.9h0l.11-.12.11-.11.19-.2c.17-.17.35-.33.54-.5l.06-.05a6.71,6.71,0,0,1,.58-.43c-.3-.28-.59-.57-.87-.86a8.5,8.5,0,0,0-1.6,1.18Z"/><path class="cls-10" d="M42.51,49.87a1.07,1.07,0,0,0-.19.18c0,.06-.11.12-.16.19a1.41,1.41,0,0,0-.14.18l-.15.25a1.14,1.14,0,0,0-.1.19,1.57,1.57,0,0,0-.09.23,1.55,1.55,0,0,0-.08.23,18.75,18.75,0,0,0,2.15,1.23,1.06,1.06,0,0,1,0-.19l0-.16v0c0-.05,0-.1,0-.15v-.21a3,3,0,0,1,.09-.75c0-.05,0-.1,0-.14a1.88,1.88,0,0,1,.12-.3,13.7,13.7,0,0,1-1.2-.93l-.17.15Z"/><path class="cls-10" d="M47.79,53.43l-.1.1,0,0a.57.57,0,0,0-.11.16l0,.05,0,.06a.09.09,0,0,1,0,0,.24.24,0,0,0,0,.08,25.27,25.27,0,0,0,7.07,1,25.54,25.54,0,0,0,4.68-.42A15.17,15.17,0,0,0,64,56.93c1.46,0,3,0,4.57,0h1.28l1.12,0,1.32,0a22.07,22.07,0,0,1-8.85-1.71,21.41,21.41,0,0,1-2.21-1L61.1,54c-.7.14-1.41.25-2.14.33a20.83,20.83,0,0,1-2.38.14A22.56,22.56,0,0,1,48.43,53a3,3,0,0,0-.51.29Z"/><path class="cls-10" d="M57.51,42.11Z"/><path class="cls-10" d="M61.53,43.53h0Z"/><path class="cls-10" d="M64.81,44h0a6.08,6.08,0,0,0,.61,0l.09.1-.09-.1C65.23,44,65,44,64.81,44Z"/><path class="cls-10" d="M67.38,45.91s0,0,0,0l.25.2.19.14c-.2-.14-.39-.29-.58-.45Z"/><path class="cls-10" d="M62.87,43.79c.37.06.74.11,1.12.15-.39,0-.77-.09-1.15-.15Z"/><path class="cls-10" d="M68,46.36l.14.09.29.21,0,0,0,0,.1.07Z"/><path class="cls-10" d="M64.7,44h0l-.5,0Z"/><path class="cls-10" d="M66.3,44.94,66,44.68Z"/><path class="cls-10" d="M66.79,45.41l.23.21.1.08.08.06-.5-.43Z"/><path class="cls-10" d="M62.17,43.67l.5.09h.09c-.24,0-.48-.08-.72-.13Z"/><path class="cls-10" d="M68.68,46.85l.07,0-.07,0Z"/><path class="cls-10" d="M69.81,47.51l.25.12c-.21-.1-.41-.21-.61-.32Z"/><path class="cls-10" d="M70.25,47.73h0l-.06,0Z"/><path class="cls-10" d="M70.27,47.74l.17.08.19.09.2.09Z"/><path class="cls-12" d="M37.81,42.57A11.54,11.54,0,0,0,38.34,44h0A15,15,0,0,0,40,46.85a15.62,15.62,0,0,0,1.17,1.41c.28.29.57.58.87.86s.42.39.64.57a13.7,13.7,0,0,0,1.2.93A20.15,20.15,0,0,0,48.43,53a22.56,22.56,0,0,0,8.15,1.44A20.83,20.83,0,0,0,59,54.34c.73-.08,1.44-.19,2.14-.33a22,22,0,0,1-3.66-2.49,19.38,19.38,0,0,1-1.91-1.81A18.17,18.17,0,0,1,54,47.77l-.14-.21a13.88,13.88,0,0,1-1.27-2.32A12.12,12.12,0,0,1,52.12,44a10.54,10.54,0,0,1-.49-2.45,9.56,9.56,0,0,1,.09-2.39l.12-.58c-.3.08-.6.14-.9.2-5.52,1-10.72-.84-13.23-4.36a13.66,13.66,0,0,0,0,7.71l.12.41Z"/><path class="cls-13" d="M50.94,38.8c.3-.06.6-.12.9-.2l-.12.58a9.56,9.56,0,0,0-.09,2.39A10.54,10.54,0,0,0,52.12,44a12.12,12.12,0,0,0,.46,1.22,13.88,13.88,0,0,0,1.27,2.32l.14.21a18.17,18.17,0,0,0,1.54,1.94,19.38,19.38,0,0,0,1.91,1.81A22,22,0,0,0,61.1,54l.13.06a21.41,21.41,0,0,0,2.21,1,22.07,22.07,0,0,0,8.85,1.71h.17a16.47,16.47,0,0,0,4.31-.69,10.28,10.28,0,0,0,6.92-5.84q.14-.34.24-.69a7.77,7.77,0,0,0,.24-1l-.4.12-.13,0-.21.06h-.05l-.53.14h0l-.09,0-.45.1-.08,0-.16,0-.36.07-.18,0-.21,0-.23,0-.34,0h0l-.21,0-.18,0h-.23l-.25,0h-.12l-.39,0h-.92l-.81,0h-.34l-.26,0-.23,0h-.18l-.22,0h0l-.48-.06-.36,0h-.07L75,49.27l-.21,0-.16,0-.23-.05-.22,0L73.74,49l-.23-.06-.68-.19-.24-.08-.72-.25h0l-.15-.05-.21-.08-.39-.17L70.83,48l-.2-.09-.19-.09-.17-.08h0l0,0-.15-.08-.25-.12-.36-.2-.7-.42-.07,0h0l-.11-.07-.1-.07,0,0,0,0-.29-.21L68,46.36l-.1-.08-.19-.14-.25-.2s0,0,0,0l-.1-.08-.08-.07-.08-.06-.1-.08-.23-.21-.09-.08c-.14-.12-.27-.26-.4-.39L66,44.68c-.17-.18-.33-.36-.49-.55l-.09-.1a6.08,6.08,0,0,1-.61,0H64.7l-.45,0-.26,0c-.38,0-.75-.09-1.12-.15h0l-.08,0h-.09l-.5-.09-.13,0-.51-.11h-.06a18.19,18.19,0,0,1-4-1.41h0l-.58-.3-.05,0-.22-.13c-.36-.2-.7-.42-1-.65l-.07-.05-.23-.16-.2-.15h0l-.48-.38h0l-.19-.17,0,0c-.13-.11-.25-.21-.37-.33l0,0-.06-.06-.15-.14h0l-.09-.08c-.23-.24-.46-.48-.67-.73l-.08-.09-.09-.11-.14-.17c-.06-.08-.12-.17-.19-.25l-.1-.14-.2-.3a1,1,0,0,1-.08-.11l-.17-.27c0-.08-.09-.16-.14-.24l-.07-.13,0-.09a2.1,2.1,0,0,1-.13-.26l-.06-.1-.09-.19,0-.11c-.05-.1-.09-.21-.14-.32l-.06-.15v0a1.19,1.19,0,0,1-.08-.2.64.64,0,0,1,0-.07,5.22,5.22,0,0,1-.18-.56c-.19-.14-.37-.29-.55-.45h0l-.08-.07-.11-.1,0,0-.27-.25,0,0-.22-.21-.27-.29-.2-.21-.26-.31-.18-.22-.22-.3-.2-.26c-.06-.09-.12-.17-.17-.26L48,31.65l-.19-.3,0,0L47.6,31a.25.25,0,0,0,0-.07l-.12-.23-.17-.34c-.07-.15-.14-.3-.2-.45l0-.09s0,0,0,0l-.06-.16-.12-.31L46.7,29l-.09-.3,0-.14a1.46,1.46,0,0,1-.05-.2s0,0,0,0l0-.06,0-.14v0l0-.11c0-.06,0-.12,0-.18a.43.43,0,0,1,0-.11.89.89,0,0,1,0-.14,1.13,1.13,0,0,1,0-.18,1.16,1.16,0,0,1,0-.18l0-.26,0-.23h0a.41.41,0,0,1,0-.11l0-.23v-.11c0-.3,0-.6,0-.89,0-.11,0-.22,0-.32s0-.24,0-.35a10,10,0,0,1,.15-1.1,10.2,10.2,0,0,1,.75-2.37l.07-.16A10.33,10.33,0,0,1,49,18.38l-.54.05c-.38.05-.77.1-1.15.17a16.8,16.8,0,0,0-2.62.71c-4.42,1.61-7.61,5-8.33,8.7a8,8,0,0,0,0,3.08,8.21,8.21,0,0,0,.9,2.53c.16.28.33.55.52.82C40.22,38,45.42,39.83,50.94,38.8Z"/><path class="cls-12" d="M77.25,40.48A18.43,18.43,0,0,1,66.19,44h-.74l.09.1c.16.19.32.37.49.55l.27.26c.13.13.26.27.4.39l.5.43.08.07c.19.16.38.31.58.45l.1.08.61.42.11.07.07,0,.7.42c.2.11.4.22.61.32l.15.08.06,0h0l.56.26.29.12.6.25.15.05c.23.09.48.17.72.25l.24.08.68.19.23.06.67.15.23.05.84.15h0l.85.11.22,0,.75.05h.26l.81,0h.13l.63,0h.16l.51,0,.25,0,.41,0,.21,0,.57-.08.21,0,.54-.1.16,0,.62-.14h0l.53-.14h.05l.21-.06.53-.16a15.46,15.46,0,0,0,7.43-5A10.55,10.55,0,0,0,92.1,31a21.15,21.15,0,0,1-1.23,2.35C87.28,39.19,81.39,42.21,77.25,40.48Z"/><path class="cls-13" d="M82.13,25.37a3,3,0,0,1,.36.52c.77,1.42.38,3.29-.86,5.17a8.05,8.05,0,0,1,.08,1.11,10.54,10.54,0,0,1-4.46,8.31c4.14,1.73,10-1.29,13.62-7.17A21.15,21.15,0,0,0,92.1,31C94.6,25.3,94,19.47,90.32,17.19a6.1,6.1,0,0,0-2.58-.88A16.88,16.88,0,0,1,82.13,25.37Z"/><path class="cls-12" d="M76.21,13.44A3.17,3.17,0,0,1,78.44,13c2.78.6,4.11,5.44,3,10.83l-.18.77a3.38,3.38,0,0,1,.89.74,16.88,16.88,0,0,0,5.61-9.06A12,12,0,0,0,87.07,9c-2.76-6.33-10.72-9-18.56-6.69A15.91,15.91,0,0,1,76.21,13.44Z"/><path class="cls-13" d="M56.45,11.6a13.43,13.43,0,0,1,6.77-1.89c3.66,0,9.55.72,12.06,3.12,2.69,2.58,2.07,6.91,2,11.07a6.86,6.86,0,0,1,3.92.73l.18-.77c1.13-5.39-.2-10.23-3-10.83a3.17,3.17,0,0,0-2.23.41,15.91,15.91,0,0,0-7.7-11.16A13.58,13.58,0,0,0,61.78.53,14.59,14.59,0,0,0,48.61,9.82l.79,0A14.16,14.16,0,0,1,56.45,11.6Z"/><path class="cls-12" d="M48.41,18.43l.54-.05a10.55,10.55,0,0,1,2.64-2,14.39,14.39,0,0,1,4.86-4.77A14.16,14.16,0,0,0,49.4,9.8l-.79,0A13.78,13.78,0,0,0,35.47,23.46,13.22,13.22,0,0,0,36.31,28c.72-3.73,3.9-7.09,8.33-8.7a16.8,16.8,0,0,1,2.62-.71C47.64,18.53,48,18.48,48.41,18.43Z"/><path class="cls-14" d="M61.09,15.76a12.25,12.25,0,0,1,1.36.57,12.78,12.78,0,0,1,2.78,1.84,6.64,6.64,0,0,1,1-.09c3.4,0,6.29,2.79,7.23,6.67a11.55,11.55,0,0,1,.33,2.67,5.23,5.23,0,0,1-.59,2.8l.5-.19c1.49-.58,2.86-1.23,2.86-1.23-.13.51-.21.93-.28,1.3a15.56,15.56,0,0,0,1-5.7v-.5c0-4.16.65-8.49-2-11.07-2.51-2.4-8.4-3.14-12.06-3.12a13.43,13.43,0,0,0-6.77,1.89,14.39,14.39,0,0,0-4.86,4.77A11.82,11.82,0,0,1,61.09,15.76Z"/><path class="cls-15" d="M50.52,32.35c0-4,2.58-7.52,6.57-9.67a4.07,4.07,0,0,1,3.24-1.77,4.9,4.9,0,0,1,.54,0,7.16,7.16,0,0,1,4.36-2.78,12.78,12.78,0,0,0-2.78-1.84,12.25,12.25,0,0,0-1.36-.57,11.82,11.82,0,0,0-9.5.61,10.55,10.55,0,0,0-2.64,2h0A10.33,10.33,0,0,0,47.13,21l-.07.16a10.2,10.2,0,0,0-.75,2.37,10,10,0,0,0-.15,1.1c0,.11,0,.23,0,.35s0,.21,0,.32c0,.29,0,.59,0,.89a2,2,0,0,0,0,.34.41.41,0,0,0,0,.11v0l0,.23c0,.08,0,.17,0,.26a5279115111457.66,5279115111457.66,0,0,0,.06.36c0,.18.07.37.12.56l0,.14c0,.14.08.28.13.42l.09.3.12.34.12.31c0,.1.08.2.13.3s.13.3.2.45l.17.34.12.23.25.43.19.3.23.35.2.26.22.3.18.22.26.31.2.21.27.29.22.21.44.41.08.07c.18.16.37.31.56.46A9.08,9.08,0,0,1,50.52,32.35Z"/><path class="cls-14" d="M66.19,44a18.43,18.43,0,0,0,11.06-3.56,10.54,10.54,0,0,0,4.46-8.31,8.05,8.05,0,0,0-.08-1.11A16.08,16.08,0,0,1,76.06,36a15.82,15.82,0,0,1-7.33,2.15,5.36,5.36,0,0,1-4-1.38,11.79,11.79,0,0,1-1.69.13c-4.91,0-8.9-3-8.93-6.73a5.87,5.87,0,0,1,2-4.29,5.78,5.78,0,0,1,1.07-3.17c-4,2.15-6.59,5.69-6.57,9.67a9.08,9.08,0,0,0,.34,2.39h0a5.22,5.22,0,0,0,.18.56c0,.11.07.21.11.32l.06.15c0,.11.09.22.14.32l0,.11.15.29a2.1,2.1,0,0,0,.13.26l.12.22c.05.08.1.16.14.24l.17.27a1,1,0,0,0,.08.11l.2.3.1.14c.07.08.13.17.19.25l.14.17c0,.07.11.13.17.2.21.25.44.49.67.73l.09.09.15.14.11.1c.12.12.24.22.37.33l.23.2.48.38.22.16.23.16.07.05c.34.23.68.45,1,.65l.27.16.58.3h0a18.19,18.19,0,0,0,4,1.41h.06l.51.11c.24,0,.48.1.72.13l.08,0c.38.06.76.11,1.15.15l.26,0,.5,0h.06c.21,0,.42,0,.64,0Z"/><path class="cls-15" d="M76.28,30.1a6.65,6.65,0,0,1-.53,1.9,4.81,4.81,0,0,0-.21.53h0a1.41,1.41,0,0,1-.68.91,7.23,7.23,0,0,1-1.17.56c-1.37.54-1.24.41-3.31,1.22a5.24,5.24,0,0,1-2.78.63,10.91,10.91,0,0,1-2.92.88,5.36,5.36,0,0,0,4,1.38A15.82,15.82,0,0,0,76.06,36a16.08,16.08,0,0,0,5.57-4.91c1.24-1.88,1.63-3.75.86-5.17a3,3,0,0,0-.36-.52,3.38,3.38,0,0,0-.89-.74,6.86,6.86,0,0,0-3.92-.73v.5A15.56,15.56,0,0,1,76.28,30.1Z"/><path class="cls-16" d="M66.65,35.65A12.66,12.66,0,0,1,64,34.5c-2-1.07-4-2.55-4-3.2h.4C58,31.31,56,29,56,26.13c0-.1,0-.19,0-.28a5.87,5.87,0,0,0-2,4.29c0,3.75,4,6.76,8.93,6.73a11.79,11.79,0,0,0,1.69-.13,10.91,10.91,0,0,0,2.92-.88A8,8,0,0,1,66.65,35.65Z"/><path class="cls-16" d="M63.4,21.32a3.87,3.87,0,0,1,.48,0,4.41,4.41,0,0,1,2.65.87,1.2,1.2,0,0,1,.21.17l.16.13.24.23.1.1a2.11,2.11,0,0,1,.19.23l.12.14c0,.06.09.13.14.2s.09.13.13.19a1.62,1.62,0,0,1,.1.18,2,2,0,0,1,.14.25c0,.09.09.19.13.28s0,.12.07.17a5.63,5.63,0,0,1,.39,2c0,.15,0,.29,0,.43a.45.45,0,0,1,0,.11,1.53,1.53,0,0,1,0,.3.77.77,0,0,0,0,.15c0,.09,0,.17,0,.25s0,.11,0,.17l-.06.22a.84.84,0,0,0,0,.17l-.08.2-.06.17-.09.19a.89.89,0,0,1-.08.17l-.09.18-.09.16-.1.16-.08.13,0,0a.35.35,0,0,1,0,.08l-.15.19-.08.1-.15.16-.09.1-.15.15-.1.09-.16.13a.39.39,0,0,1-.1.08l-.17.13-.11.07-.18.12-.11.06-.2.11-.09,0A36.21,36.21,0,0,0,70.19,31c.34,0,.68-.1,1-.16a14.35,14.35,0,0,0,2-.61,5.23,5.23,0,0,0,.59-2.8,11.55,11.55,0,0,0-.33-2.67c-.94-3.88-3.83-6.69-7.23-6.67a6.64,6.64,0,0,0-1,.09A7.16,7.16,0,0,0,60.87,21a4,4,0,0,1,1.56.6A4.43,4.43,0,0,1,63.4,21.32Z"/><path class="cls-16" d="M61.67,31.06a3.88,3.88,0,0,1-1.28.24h1.73Z"/><path class="cls-17" d="M56,26.13c0,2.87,2,5.18,4.38,5.17a3.88,3.88,0,0,0,1.28-.24,5.17,5.17,0,0,1-2.31-3.13l-.06-.28s0,0,0-.06,0-.23-.05-.35h0c0-.07,0-.13,0-.19a1.11,1.11,0,0,1,0-.17v0c0-.11,0-.22,0-.34h0a2.44,2.44,0,0,1,0-.27.17.17,0,0,1,0-.07c0-.07,0-.14,0-.21a1.49,1.49,0,0,0,0-.21l0-.19c0-.07,0-.15,0-.22s0-.11,0-.16l.06-.24a1,1,0,0,0,0-.14l.09-.25s0-.08,0-.12l.11-.26,0-.1c0-.08.09-.17.13-.26a.56.56,0,0,0,0-.08l.16-.26,0-.06.18-.26,0-.05a2.43,2.43,0,0,1,.2-.25l0,0,.23-.23,0,0a2.25,2.25,0,0,1,.24-.21l.05,0,.25-.19,0,0,.27-.17,0,0,.27-.13.07,0,.24-.1.1,0a4,4,0,0,0-1.56-.6,4.9,4.9,0,0,0-.54,0,4.07,4.07,0,0,0-3.24,1.77A5.78,5.78,0,0,0,56,25.85C56,25.94,56,26,56,26.13Z"/><path class="cls-18" d="M61.67,31.05a4.92,4.92,0,0,0,.45.24h.05l2.47,0h1.13l.09,0,.2-.11.11-.06.18-.12.11-.07.17-.13a.39.39,0,0,0,.1-.08l.16-.13.1-.09.15-.15.09-.1.15-.16.08-.1.15-.19a.35.35,0,0,0,0-.08l0,0,.08-.13.1-.16.09-.16.09-.18a.89.89,0,0,0,.08-.17l.09-.19.06-.17.08-.2a.84.84,0,0,1,0-.17l.06-.22c0-.06,0-.12,0-.17s0-.16,0-.25a.77.77,0,0,1,0-.15,1.53,1.53,0,0,0,0-.3.45.45,0,0,0,0-.11c0-.14,0-.28,0-.43a5.63,5.63,0,0,0-.39-2c0-.05-.05-.11-.07-.17s-.08-.19-.13-.28a2,2,0,0,0-.14-.25,1.62,1.62,0,0,0-.1-.18c0-.06-.09-.12-.13-.19s-.09-.14-.14-.2L67.43,23a2.11,2.11,0,0,0-.19-.23l-.1-.1-.24-.23-.16-.13a1.2,1.2,0,0,0-.21-.17,4.41,4.41,0,0,0-2.65-.87,3.87,3.87,0,0,0-.48,0,4.43,4.43,0,0,0-1,.23l-.1,0-.24.1-.07,0-.27.13,0,0-.27.17,0,0-.25.19-.05,0a2.25,2.25,0,0,0-.24.21l0,0-.23.23,0,0a2.43,2.43,0,0,0-.2.25l0,.05-.18.26,0,.06-.16.26a.56.56,0,0,1,0,.08c0,.09-.09.18-.13.26l0,.1-.11.26s0,.08,0,.12l-.09.25a1,1,0,0,1,0,.14l-.06.24s0,.1,0,.16,0,.15,0,.22l0,.19a1.49,1.49,0,0,1,0,.21c0,.07,0,.14,0,.21a.17.17,0,0,0,0,.07,2.44,2.44,0,0,0,0,.27h0c0,.11,0,.23,0,.34v0a1.11,1.11,0,0,0,0,.17c0,.06,0,.12,0,.19h0c0,.12,0,.23.05.35s0,0,0,.06l.06.28A5.15,5.15,0,0,0,61.67,31.05Zm1.83-8.16a8.35,8.35,0,0,1,1,.06c1.36.18,2.69.73,2.93,1.64a1.24,1.24,0,0,1,0,.27.34.34,0,0,1,0,.1,2.83,2.83,0,0,1-.83,1.61,3.17,3.17,0,0,1-.34.3l-.13.09-.15.1-.13.09-.3.2-.1.07-.34.21-.1.06-.31.17-.08.05-.32.17a1.38,1.38,0,0,0-.38.3c-.54.54-1.18,1.51-1.59,1.31a3.15,3.15,0,0,1-1.59-2.39,6.28,6.28,0,0,1,.38-1.91h0c0-.1.07-.2.11-.29l0,0,.12-.29h0l.13-.26,0,0c0-.09.09-.17.13-.25l0-.05.15-.23,0,0L62,23.7s0,0,0,0l.17-.18s0,0,0-.05a1.22,1.22,0,0,1,.17-.15l.05,0,.17-.11,0,0a.88.88,0,0,1,.2-.09L63,23l.2-.06h.07l.2,0Z"/><path class="cls-19" d="M70.19,31a36.21,36.21,0,0,1-4.42.27H64.64l-2.47,0H60c0,.65,2.06,2.13,4,3.2a12.66,12.66,0,0,0,2.63,1.15,8,8,0,0,0,.95.21,5.24,5.24,0,0,0,2.78-.63c2.07-.81,1.94-.68,3.31-1.22a7.23,7.23,0,0,0,1.17-.56,1.41,1.41,0,0,0,.68-.91h0a4.81,4.81,0,0,1,.21-.53,6.65,6.65,0,0,0,.53-1.9c.07-.37.15-.79.28-1.3,0,0-1.37.65-2.86,1.23l-.5.19a14.35,14.35,0,0,1-2,.61C70.87,30.89,70.53,31,70.19,31Z"/><path class="cls-20" d="M63.2,22.92,63,23l-.07,0a.88.88,0,0,0-.2.09l0,0-.17.11-.05,0a1.22,1.22,0,0,0-.17.15s0,0,0,.05l-.17.18s0,0,0,0l-.14.19,0,0-.15.23,0,.05c0,.08-.09.16-.13.25l0,0-.13.26h0l-.12.29,0,0c0,.09-.07.19-.11.29h0a6.28,6.28,0,0,0-.38,1.91,3.15,3.15,0,0,0,1.59,2.39c.41.2,1-.77,1.59-1.31a1.38,1.38,0,0,1,.38-.3l.32-.17.08-.05.31-.17.1-.06.34-.21.1-.07.3-.2.13-.09.15-.1.13-.09a3.17,3.17,0,0,0,.34-.3A2.83,2.83,0,0,0,67.45,25v-.1a1.24,1.24,0,0,0,0-.27c-.24-.91-1.57-1.46-2.93-1.64a8.35,8.35,0,0,0-1-.06h0l-.2,0Z"/></svg>
