<svg id="Layer_1" data-name="Layer 1" xmlns="http://www.w3.org/2000/svg" viewBox="0 0 145 205"><defs><style>.cls-1{fill:none;}.cls-2{fill:#ffe7cf;}.cls-3{fill:#ffd9e8;}.cls-4{fill:#f8dcff;}.cls-5{fill:#e8c7ef;}.cls-6{fill:#d189db;}.cls-7{fill:#f1acf9;}.cls-8{fill:#f4d8be;}.cls-9{fill:#9ceaff;}.cls-10{fill:#ffb3f8;}.cls-11{fill:#ff7ded;}.cls-12{fill:#c5f0ff;}.cls-13{fill:#fccdf3;}.cls-14{fill:#d6b6ff;}.cls-15{fill:#e9d4ff;}.cls-16{fill:#66dfff;}.cls-17{fill:#ba85ff;}.cls-18{fill:#af92dd;}.cls-19{fill:#d8a4d0;}.cls-20{fill:#49bbd6;}.cls-21{fill:#c7b299;}.cls-22{fill:#d860cd;}.cls-23{fill:#c2b2db;}.cls-24{fill:#a2d1dd;}.cls-25{fill:#ff0;}.cls-26{fill:#d88fd5;}.cls-27{fill:#8f61d8;}.cls-28{fill:#f0f;}.cls-29{fill:#7bc9db;}.cls-30{fill:#ff88e6;}.cls-31{fill:#ffccf2;}.cls-32{fill:#ede7d1;}.cls-33{fill:#d3ccb4;}.cls-34{fill:#fcf8e3;}.cls-35{fill:#ffc5e1;}.cls-36{fill:#dd9eb3;}</style></defs><title>cupcake_3</title><path class="cls-1" d="M88.9,95.53l.1-.13,0,0A.44.44,0,0,1,88.9,95.53Z"/><path class="cls-1" d="M97.61,78.41h0Z"/><path class="cls-1" d="M91.32,91.78c-.08.23-.17.47-.27.69l.18-.25-.18.25C91.15,92.25,91.24,92,91.32,91.78Z"/><path class="cls-1" d="M109.35,115.09l-.1,0a.15.15,0,0,1-.07,0Z"/><path class="cls-1" d="M92.19,90.78l.06-.09a23.53,23.53,0,0,0,1.19-2.35,25.88,25.88,0,0,1-1.19,2.35Z"/><path class="cls-1" d="M57.59,102l-.2.09.34-.1Z"/><path class="cls-1" d="M52.19,92.76a7.75,7.75,0,0,1-2.07.94A7.75,7.75,0,0,0,52.19,92.76Z"/><path class="cls-1" d="M54.33,89.55a4,4,0,0,1-.74,1.87,3.87,3.87,0,0,0,.74-1.87,3.37,3.37,0,0,0,0-.84A3.37,3.37,0,0,1,54.33,89.55Z"/><path class="cls-1" d="M61,108.92q-2.56.67-5.13,1.3Q58.4,109.64,61,108.92Z"/><path class="cls-1" d="M91.41,88.68c-.09-.45-.21-.88-.34-1.31a17.84,17.84,0,0,0-4-6.86,17.84,17.84,0,0,1,4,6.86C91.2,87.8,91.32,88.23,91.41,88.68Z"/><path class="cls-1" d="M91.49,91.05a1.84,1.84,0,0,1,0,.25,2.21,2.21,0,0,0,0-.25,5.8,5.8,0,0,0,.05-1.5A5.8,5.8,0,0,1,91.49,91.05Z"/><path class="cls-2" d="M123.11,129.37a29.14,29.14,0,0,1-8.75,3.58,60.19,60.19,0,0,1-7,1.63,29.21,29.21,0,0,1-3.5.35,10.69,10.69,0,0,1-1.6,0c-.15,0-1.59-.24-1.62-.2l.07-.08-.4.38a8,8,0,0,1-1.56,1.29,7.27,7.27,0,0,1-1.83.72,31.18,31.18,0,0,1-4.28.86c-1.29.18-2.55.61-3.87.79a71.11,71.11,0,0,1-8.51.41c-13.3.12-26.91.19-39.49-4.17a6.48,6.48,0,0,1-1.82-.07,4.24,4.24,0,0,1-1.48-.41,3.23,3.23,0,0,1-1.3-1.24,9.74,9.74,0,0,1-.52-1.37l.19-.05a0,0,0,0,1,0-.05.14.14,0,0,1,.08,0,51.19,51.19,0,0,1-14.39.74h0C31.18,139.82,54,145,80.54,145a169,169,0,0,0,37.54-3.92l3.14-.79.18-.05a70.63,70.63,0,0,0,12.51-4.48,7.7,7.7,0,0,1-.38,1.54h.13a7.88,7.88,0,0,0,.5-2.73c0-3.48-2.4-6.76-6.67-9.67A17,17,0,0,1,123.11,129.37Z"/><path class="cls-2" d="M103.58,130.84s0,0,0,0a0,0,0,0,0,0,0Z"/><path class="cls-2" d="M63.86,122.49h0l-.12,0-.07,0h0l.07,0Z"/><path class="cls-2" d="M86,121.4h0l.38,0h0Z"/><path class="cls-2" d="M87.92,121.17l1-.16h0Z"/><path class="cls-2" d="M87.53,121.22l-.68.08h0l1-.13-.19,0Z"/><path class="cls-2" d="M107.7,122.25v0Z"/><path class="cls-2" d="M16.55,124.42a7.38,7.38,0,0,0,.84,3.34l0-.3a4.58,4.58,0,0,0,.08-.83,1,1,0,0,1,0-.25,1.06,1.06,0,0,1,.06-.19,13,13,0,0,0,0-3c-.5.27-1,.54-1.43.82l.48-.28C16.56,124,16.55,124.19,16.55,124.42Z"/><path class="cls-3" d="M67.06,203.87l-3.27-.08C64.94,203.83,66,203.85,67.06,203.87Z"/><path class="cls-3" d="M61.87,203.73l-3.27-.15Z"/><path class="cls-4" d="M133.66,137.35h-.13a.36.36,0,0,0,0,.11h-.05l-9.67,58c2.84-4.06,5.09-16.09,8.58-31.65C133.88,157,137.19,138,133.66,137.35Z"/><path class="cls-5" d="M33,190.2l-.53-.29.83,10.31h0q1.18.27,2.37.51l-.59-9.47C34.34,190.91,33.64,190.56,33,190.2Z"/><path class="cls-4" d="M31.83,142.82l-3.28-.61,3.88,47.7.53.29c.68.36,1.38.71,2.09,1.06l-3-48.41Z"/><path class="cls-5" d="M73.3,201.67l-.52-.06v2.29h2.84l0-2C74.86,201.83,74.08,201.76,73.3,201.67Z"/><path class="cls-4" d="M76.26,146.78l-3.48,0v54.79l.52.06c.78.09,1.56.16,2.35.24l.79-55.14Z"/><path class="cls-5" d="M56.65,198.82l-.52-.13.2,4.75,2.27.14-.11-4.34Z"/><path class="cls-4" d="M56.87,146.25,53.94,146l2.19,52.69.52.13,1.84.42-1.44-53Z"/><path class="cls-5" d="M67.53,200.92l-.52-.08,0,3,2.46,0v-2.7Z"/><path class="cls-4" d="M69.34,146.81c-1,0-2.08,0-3.11-.06L67,200.84l.52.08,2,.28V146.81Z"/><path class="cls-5" d="M50.89,197.3l-.52-.16.27,5.83,2.41.22-.22-5.35C52.18,197.67,51.54,197.49,50.89,197.3Z"/><path class="cls-4" d="M50.49,145.64q-1.29-.13-2.55-.3l2.43,51.8.52.16c.65.19,1.29.37,1.94.54l-2.16-52.18Z"/><path class="cls-5" d="M39,193.05l-.54-.24.54,8.56c.84.15,1.68.3,2.51.43L41.19,194C40.43,193.67,39.68,193.36,39,193.05Z"/><path class="cls-4" d="M39.23,144.09l-3.91-.65,3.09,49.37.54.24c.73.31,1.48.62,2.24.92l-1.78-49.85Z"/><path class="cls-5" d="M45,195.42l-.52-.19.25,7.05,2.61.34-.3-6.51C46.37,195.89,45.69,195.65,45,195.42Z"/><path class="cls-4" d="M44.48,144.88l-1.79-.25,1.81,50.6.52.19c.67.23,1.35.47,2,.69l-2.4-51.2Z"/><path class="cls-5" d="M62.29,200l-.52-.1.1,3.81,1.92.06,0-3.5Z"/><path class="cls-4" d="M62.79,146.62l-2.47-.13,1.45,53.43.52.1,1.45.27L63,146.63Z"/><path class="cls-5" d="M95.86,202.48l-.53,0,0,.46c.86-.09,1.74-.18,2.61-.29v-.28C97.25,202.43,96.55,202.46,95.86,202.48Z"/><path class="cls-4" d="M99.81,144.9l-1.79.25L95.33,202.5l.53,0c.69,0,1.39,0,2.07-.09l2-57.52Z"/><path class="cls-5" d="M90.18,202.59h-.52l0,.87,2.41-.19,0-.69Z"/><path class="cls-4" d="M94.56,145.59q-1.26.15-2.55.27l-2.35,56.72h.52l1.88,0,2.67-57Z"/><path class="cls-4" d="M107.36,143.6l-.17,0c-1.3.25-2.61.49-3.93.71l-2.06,57.84v.05l.49-.08h0c.67-.1,1.34-.2,2-.32h0Z"/><path class="cls-5" d="M84.62,202.49l-.52,0,0,1.26c.74,0,1.5-.06,2.28-.1l.05-1.09Z"/><path class="cls-4" d="M88.56,146.18l-2.94.21L84.1,202.47l.52,0,1.78,0,2.33-56.38Z"/><path class="cls-4" d="M121,140.44l-3.54.88-4.77,58.61c.53-.13,1.06-.28,1.59-.43l6.89-59.11Z"/><path class="cls-4" d="M118.08,141.12c1.07-.25,2.12-.51,3.14-.79h0Z"/><path class="cls-5" d="M79.42,202.22l-.52,0,0,1.69,1.93,0,0-1.52Z"/><path class="cls-4" d="M82.19,146.58c-.82,0-1.65.08-2.49.1l-.8,55.5.52,0,1.43.09,1.51-55.74Z"/><path class="cls-4" d="M129.85,138.26c-1.54.38-3.32.81-5.26,1.3l-6.87,58.9q1.2-.39,2.37-.84l9.92-59.4Z"/><path class="cls-4" d="M114,142.18c-1.11.26-2.22.51-3.33.74L107,201.24c.79-.16,1.59-.32,2.38-.5l4.76-58.6Z"/><path class="cls-5" d="M14.45,174.51c-.3-.47-.58-.94-.85-1.41,1.87,7.8,3.82,15.52,5.82,20L16.86,177.8A32.86,32.86,0,0,1,14.45,174.51Z"/><path class="cls-4" d="M16.86,177.8l-4.21-25.23-2.51-15-.2,0-.32-.06a1.85,1.85,0,0,0-1.17.17c-3,2.16.24,15.54,2.13,23,.11.41.2.81.3,1.18.88,3.52,1.79,7.4,2.72,11.26.27.47.55.94.85,1.41A32.86,32.86,0,0,0,16.86,177.8Z"/><path class="cls-5" d="M21.46,182.47l-.6-.53,2.59,15.5,1.49.5L23.31,184C22.67,183.5,22.06,183,21.46,182.47Z"/><path class="cls-4" d="M18.16,139.77l-.2-.06-4.36-1.26,1.62,9.68,5.64,33.81.6.53c.6.52,1.21,1,1.85,1.54l-4.66-40Z"/><path class="cls-5" d="M27.46,187l-.56-.37L28.34,199c.53.15,1.06.3,1.59.43L29,187.94C28.47,187.62,28,187.3,27.46,187Z"/><path class="cls-4" d="M25,141.53c-1.17-.26-2.34-.54-3.48-.84l.06.5L26.9,186.6l.56.37c.5.33,1,.65,1.53,1l-3.77-46.37Z"/><path class="cls-6" d="M17.5,178.54c-.22-.24-.44-.49-.64-.74l2.56,15.32c.95,2.15,1.9,3.56,2.87,3.91l1.16.41-2.59-15.5A39.81,39.81,0,0,1,17.5,178.54Z"/><path class="cls-7" d="M13.6,138.45l-.2-.06c-1.27-.36-2.37-.65-3.26-.82l2.51,15,4.21,25.23c.2.25.42.5.64.74a39.81,39.81,0,0,0,3.36,3.4l-5.64-33.81Z"/><path class="cls-6" d="M70,201.27l-.52-.07v2.7h3.26v-2.29C71.86,201.51,71,201.39,70,201.27Z"/><path class="cls-7" d="M72.61,146.82H69.52V201.2l.52.07c.91.12,1.82.24,2.74.34V146.82Z"/><path class="cls-7" d="M133.29,137.44a1.6,1.6,0,0,0-.3,0l-3,.75-9.92,59.4c.74-.27,1.48-.56,2.21-.86a3.66,3.66,0,0,0,1.47-1.35l9.67-58Z"/><path class="cls-6" d="M64.26,200.38l-.52-.09,0,3.5,3.27.08,0-3Z"/><path class="cls-7" d="M66.06,146.74,63,146.63l.77,53.66.52.09,2.75.46-.78-54.09Z"/><path class="cls-6" d="M59,199.35l-.52-.11.11,4.34,3.27.15-.1-3.81Q60.38,199.65,59,199.35Z"/><path class="cls-7" d="M60.14,146.48l-3.09-.22,1.44,53,.52.11q1.37.3,2.76.57l-1.45-53.43Z"/><path class="cls-6" d="M53.36,198l-.53-.15.22,5.35c1.12.1,2.21.18,3.28.25l-.2-4.75C55.19,198.46,54.27,198.23,53.36,198Z"/><path class="cls-7" d="M53.76,146l-3.09-.32,2.16,52.18.53.15c.91.24,1.83.47,2.77.7L53.94,146Z"/><path class="cls-6" d="M23.88,184.44l-.57-.43,1.63,13.93c1.12.36,2.26.7,3.4,1L26.9,186.6C25.85,185.9,24.84,185.18,23.88,184.44Z"/><path class="cls-7" d="M21.55,140.69l-.19-.05c-1.1-.28-2.17-.58-3.2-.87l.49,4.22,4.66,40,.57.43c1,.74,2,1.46,3,2.16l-5.29-45.41Z"/><path class="cls-6" d="M29.54,188.27l-.55-.33.94,11.45c1.1.3,2.22.57,3.33.83l-.83-10.31C31.43,189.38,30.47,188.83,29.54,188.27Z"/><path class="cls-7" d="M28.36,142.18l-1.62-.31c-.51-.09-1-.2-1.52-.3L29,187.94l.55.33c.93.56,1.89,1.11,2.89,1.64l-3.88-47.7Z"/><path class="cls-6" d="M35.58,191.52l-.53-.26.59,9.47c1.1.23,2.21.44,3.31.64l-.54-8.56C37.45,192.4,36.5,192,35.58,191.52Z"/><path class="cls-7" d="M35.14,143.41,32,142.85l3,48.41.53.26c.92.44,1.87.88,2.83,1.29l-3.09-49.37Z"/><path class="cls-6" d="M41.71,194.18c-.17-.07-.35-.13-.52-.21l.27,7.83c1.11.17,2.2.34,3.29.48l-.25-7.05Q43.08,194.72,41.71,194.18Z"/><path class="cls-7" d="M42.51,144.6c-1-.15-2.07-.31-3.1-.48L41.19,194c.17.08.35.14.52.21q1.36.54,2.79,1l-1.81-50.6Z"/><path class="cls-6" d="M47.58,196.28l-.52-.17.3,6.51c1.11.13,2.2.25,3.28.35l-.27-5.83C49.43,196.87,48.5,196.58,47.58,196.28Z"/><path class="cls-7" d="M47.76,145.32l-3.1-.41,2.4,51.2.52.17c.92.3,1.85.59,2.79.86l-2.43-51.8Z"/><path class="cls-6" d="M76.17,202l-.52-.05,0,2,3.26,0,0-1.69C78,202.12,77.07,202,76.17,202Z"/><path class="cls-7" d="M79.53,146.69l-3.09.08-.79,55.14.52.05c.9.08,1.81.16,2.73.22l.8-55.5Z"/><path class="cls-6" d="M81.37,202.34l-.52,0,0,1.52c1,0,2.13-.05,3.26-.1l0-1.26Z"/><path class="cls-7" d="M85.45,146.4c-1,.07-2,.12-3.09.17l-1.51,55.74.52,0,2.73.13,1.52-56.08Z"/><path class="cls-6" d="M86.92,202.55H86.4l-.05,1.09,3.27-.18,0-.87C88.74,202.58,87.83,202.57,86.92,202.55Z"/><path class="cls-7" d="M91.84,145.88c-1,.1-2.06.2-3.11.28L86.4,202.54h.52c.91,0,1.82,0,2.74,0L92,145.86Z"/><path class="cls-7" d="M124.42,139.6l-3.21.79-6.89,59.11,3.4-1,6.87-58.9Z"/><path class="cls-7" d="M121.22,140.33l.18-.05-.18.05Z"/><path class="cls-7" d="M117.5,141.32l-.17.05-3.17.77-4.76,58.6c1.12-.25,2.23-.51,3.33-.81l4.77-58.61Z"/><path class="cls-7" d="M110.5,143c-1,.22-2.08.44-3.14.64l-3.64,58.24h0q1.65-.27,3.3-.6l3.65-58.32Z"/><path class="cls-6" d="M98.46,202.37l-.53,0v.28c1.09-.13,2.18-.27,3.28-.43v-.05C100.29,202.26,99.38,202.32,98.46,202.37Z"/><path class="cls-7" d="M100,144.87l-2,57.52.53,0c.92-.05,1.83-.11,2.74-.18l2.06-57.84-.17,0C102.06,144.55,101,144.72,100,144.87Z"/><path class="cls-6" d="M92.59,202.57h-.53l0,.69c1.08-.08,2.17-.18,3.28-.3l0-.46Z"/><path class="cls-7" d="M97.85,145.18q-1.55.21-3.12.39l-2.67,57h.53l2.74-.07L98,145.15Z"/><path class="cls-8" d="M9.62,137.47l.32.06.2,0c.89.17,2,.46,3.26.82l.2.06L18,139.71l.2.06c1,.29,2.1.59,3.2.87l.19.05c1.14.3,2.31.58,3.48.84l.19,0c.51.1,1,.21,1.52.3l1.62.31.19,0,3.28.61.19,0,3.12.56.18,0,3.91.65.18,0c1,.17,2.06.33,3.1.48l.18,0,1.79.25.18,0,3.1.41.18,0q1.26.16,2.55.3l.18,0,3.09.32.18,0,2.93.25h.18l3.09.22h.18l2.47.13H63l3.09.11h.17c1,0,2.06.05,3.11.06h3.44l3.48,0h.18l3.09-.08h.17c.84,0,1.67-.06,2.49-.1h.17c1,0,2.07-.1,3.09-.17h.17l2.94-.21.17,0c1-.08,2.09-.18,3.11-.28l.17,0q1.29-.12,2.55-.27l.17,0q1.58-.18,3.12-.39l.17,0,1.79-.25.17,0c1-.15,2.08-.32,3.11-.49l.17,0c1.32-.22,2.63-.46,3.93-.71l.17,0c1.06-.2,2.1-.42,3.14-.64l.17,0c1.11-.23,2.22-.48,3.33-.74l.16,0,3.17-.77.17-.05h0l3.54-.88.17-.05,3.21-.79.17,0c1.94-.49,3.72-.92,5.26-1.3l.16,0,3-.75a1.6,1.6,0,0,1,.3,0h.2a.36.36,0,0,1,0-.11,7.7,7.7,0,0,0,.38-1.54,70.63,70.63,0,0,1-12.51,4.48l-.18.05c-1,.28-2.07.54-3.14.79A169,169,0,0,1,80.54,145c-26.57,0-49.36-5.22-59-12.65A5.07,5.07,0,0,1,18.09,131a3.92,3.92,0,0,1-.74-2.66,5.27,5.27,0,0,1,0-.56,7.38,7.38,0,0,1-.84-3.34c0-.23,0-.46,0-.68l-.48.28c-5.28,3.15-8.3,6.81-8.3,10.71a8,8,0,0,0,.59,2.94l.06,0A1.85,1.85,0,0,1,9.62,137.47Z"/><path class="cls-9" d="M54.55,101.66c-1.44-.22-2.88-.44-4.31-.64-9.49-1.32-19.06-2.17-28.63-1.12-2.05.23-4.22.58-5.79,1.94l-.08-.1a7.35,7.35,0,0,1,1,2.45,1,1,0,0,0,.25.6.41.41,0,0,0,.11.07h0C29.5,103,42,101.06,54.55,101.66Z"/><path class="cls-9" d="M13.17,96.52l0,0,0-.06a.86.86,0,0,0-.48.7,1.05,1.05,0,0,0,.11.43C12.76,97.13,12.79,96.69,13.17,96.52Z"/><path class="cls-9" d="M57.85,102h-.2l-.06,0h.14Z"/><path class="cls-9" d="M58.74,101.73h-.38a4.26,4.26,0,0,1-.94-.07l-.2,0h0l-.37-.05c-2.69-.44-5.35-1-8-1.63l-.52-.11a4.2,4.2,0,0,1-.47-.08l-.24-.08h0l-1.14-.26.77.2q5.41,1.4,10.94,2.28l.19,0Z"/><path class="cls-9" d="M20.88,95.25c-1.07.12-2.14.32-3.21.55.47-.09.93-.18,1.39-.25a35.44,35.44,0,0,1,5-.43A23,23,0,0,0,20.88,95.25Z"/><path class="cls-9" d="M32.14,96.22c1,.26,2.08.55,3.11.85-.45-.15-.9-.29-1.36-.42S32.73,96.34,32.14,96.22Z"/><path class="cls-10" d="M15.69,116.56v0Z"/><path class="cls-10" d="M67.74,103.29c-2,0-4-.27-6-.22a67.65,67.65,0,0,0-7,.51A19.84,19.84,0,0,1,58.34,102a4,4,0,0,0-.49,0l-.12,0-.34.1c-.91.43-1.77.88-2.65,1.33h0l-11.43,6.44c-.88.5-1.75,1-2.65,1.44a35.62,35.62,0,0,1-5.92,2.27c-2.09.62-4.23,1.09-6.37,1.53l-4.7.95,3.05-.24a105.84,105.84,0,0,0,12.09-2.13l10-2c1.68-.34,3.36-.67,5-1l2.06-.46q2.57-.63,5.13-1.3a59.8,59.8,0,0,0,6.3-2.13c3.3-1.34,6.54-2.8,9.78-4.28q-1.38.18-2.76.27C72.11,102.94,69.9,103.24,67.74,103.29Z"/><path class="cls-10" d="M61.73,101.59c1.77,0,3.54.06,5.3.12l-1.65-.13a24.88,24.88,0,0,0-5,0c-.54.06-1.07.16-1.6.19h0l-.44.11-.19,0,.29,0a8.44,8.44,0,0,1,.87-.2A14.45,14.45,0,0,1,61.73,101.59Z"/><path class="cls-10" d="M15.73,116.69h0Z"/><path class="cls-10" d="M86.64,80l.46.47a17.84,17.84,0,0,1,4,6.86c.13.43.25.86.34,1.31a8.7,8.7,0,0,1,.13.87,5.8,5.8,0,0,1-.05,1.5,2.21,2.21,0,0,1,0,.25,4.21,4.21,0,0,1-.12.48c-.08.23-.17.47-.27.69l.18-.25.57-.82.39-.62.06-.09a25.88,25.88,0,0,0,1.19-2.35c.06-.12.11-.25.17-.37a6.51,6.51,0,0,1,1.24-2.91c.94-2.2,2-4.43,2.76-6.64h.18l0-.06A82,82,0,0,0,85,76.58a5,5,0,0,1,.62.92A21.9,21.9,0,0,1,86.64,80Z"/><path class="cls-11" d="M45.11,99.11l.11,0,.32,0Z"/><path class="cls-11" d="M56.29,97l-.6.31.12,0A5.42,5.42,0,0,0,56.29,97Z"/><path class="cls-11" d="M49.27,77.37a5.78,5.78,0,0,1,.72,0,14.67,14.67,0,0,1,1.47.16,9.16,9.16,0,0,1,3.66,1.32c2.23,1.5,3.12,3.91,4,6.33.15.43.34.84.5,1.27a14,14,0,0,1,.61,2.87l.09.73a4.72,4.72,0,0,1,.05.91,5.68,5.68,0,0,1,0,.59,3.93,3.93,0,0,1-.16.83l0,0a4,4,0,0,0,1.37,1.12A15.77,15.77,0,0,0,63.23,87a20.6,20.6,0,0,0,.07-2.36,26.71,26.71,0,0,0-.43-3.58c-.23-1.38-.46-2.75-.79-4.1a.8.8,0,0,0-.23-.18,1.21,1.21,0,0,0-.5-.1,71.63,71.63,0,0,0-13.17.53l.52.06C48.89,77.29,49.09,77.37,49.27,77.37Z"/><path class="cls-12" d="M22.66,114.26a39.22,39.22,0,0,0,6.59-1.39,200.73,200.73,0,0,0,26-9.73l-.5.29c.88-.45,1.74-.9,2.65-1.33l.2-.09.06,0c-.26,0-.51,0-.77,0a16,16,0,0,1-2.29-.36h0c-12.53-.6-25,1.32-37.48,3.2h0c-1.35,3.28-4.52,5.53-5.81,8.83-.1.25-.17.57,0,.75l.05,0,0,0C15.09,114.11,18.9,114.65,22.66,114.26Z"/><path class="cls-13" d="M16.4,119.16a.38.38,0,0,1,.21-.12c.49-.15,1-.28,1.48-.4a31.38,31.38,0,0,1,3.49-.59c1.19-.13,2.38-.2,3.58-.23s2.39,0,3.59,0l3.57.11c2.4.09,4.8,0,7.19-.09a54.93,54.93,0,0,0,7-.59c4.75-.86,9.47-1.9,14.17-3A96.74,96.74,0,0,0,72.51,111a52.77,52.77,0,0,0,10.82-6,66.64,66.64,0,0,0,13-11.79c-.26-.19-.51-.38-.74-.58a6.34,6.34,0,0,1-1.48-1.76A4.62,4.62,0,0,1,93.61,88c-.06.12-.11.25-.17.37a23.53,23.53,0,0,1-1.19,2.35l-.06.09-.39.62-.57.82-.18.25a6.68,6.68,0,0,1-.42.79l.1-.05a.41.41,0,0,0-.11.07h0c0,.07-.08.13-.11.19s-.19.27-.28.4a3.92,3.92,0,0,1-.25.32,1.84,1.84,0,0,1-.17.22s0,0,0,0l-.14.17-.17.19s0,0,0,0c-.14.19-.29.37-.44.55,0,0,0,0,0,0h0l-.1.13-.21.3c-.06.08-.11.16-.17.23l-.23.3-.18.22-.25.3-.18.2-.26.29-.19.19-.28.28-.19.19-.29.27-.19.17a3.88,3.88,0,0,1-.31.26l-.2.17-.31.25-.21.16-.32.23-.22.15-.33.22-.23.15-.33.2a2,2,0,0,1-.25.14,3.37,3.37,0,0,1-.32.19l-.27.14-.32.16-.29.14-.31.14-.34.14-.26.11-.62.23a20.79,20.79,0,0,1-3.81.86c-3.24,1.48-6.48,2.94-9.78,4.28a59.8,59.8,0,0,1-6.3,2.13q-2.55.72-5.13,1.3l-2.06.46c-1.66.36-3.34.69-5,1l-10,2a105.84,105.84,0,0,1-12.09,2.13l-3.05.24-1.77.37c-1.07.23-2.14.48-3.2.76l-1.58.44c-.26.08-.51.18-.78.24a.21.21,0,0,1-.21,0,11.9,11.9,0,0,1,.26,1.45.18.18,0,0,1,0-.1A0,0,0,0,0,16.4,119.16Z"/><path class="cls-13" d="M97.61,78.42h0c-.81,2.21-1.82,4.44-2.76,6.64,1.55-2.2,4.44-4.31,8.24-6.09a42.73,42.73,0,0,0-5.29-.55h-.19Z"/><path class="cls-13" d="M15.7,116.6v0l-.08.08h.13A.36.36,0,0,0,15.7,116.6Z"/><path class="cls-14" d="M62,76.56l-.18.1H62S62,76.59,62,76.56Z"/><path class="cls-14" d="M47.79,99.75a4.2,4.2,0,0,0,.47.08l-.71-.16Z"/><path class="cls-14" d="M57.42,101.67a4.26,4.26,0,0,0,.94.07,8.79,8.79,0,0,1-1.14-.11Z"/><path class="cls-14" d="M63.3,84.64A20.6,20.6,0,0,1,63.23,87a15.77,15.77,0,0,1-1.68,6.5c.42.22.86.42,1.28.63a16.89,16.89,0,0,0,3.66,1.34,27.64,27.64,0,0,0,3.49.59l1.4.14c.24-.19.49-.37.72-.56a13.78,13.78,0,0,0,3.41-3.36,8.87,8.87,0,0,0,1-6.1A18.37,18.37,0,0,1,71.63,86c-5.19-.6-5.32-.7-7.17-2.11A6.6,6.6,0,0,1,63.32,81c-.2-1.46-.39-2.92-.58-4.38l-.74,0c0,.1,0,.21.08.31.33,1.35.56,2.72.79,4.1A26.71,26.71,0,0,1,63.3,84.64Z"/><path class="cls-14" d="M16.93,120.53l0,0,.46.08.55,0c.58.06,1.15.13,1.72.21,3.18.43,6.3,1.14,9.44,1.8.71.15,1.43.29,2.15.42s1.73.24,2.6.31l1.08.08c1.37,0,2.75-.08,4.13,0,.43,0,.85,0,1.28.08h.48l3.82-.08h.53l3.36-.13c1.54-.06,3.07,0,4.61-.14,3.26-.21,6.52-.47,9.78-.76a1.6,1.6,0,0,1,.92.09h0s.05,0,.06,0h0c.3-.06.65-.06,1-.09l1.13-.13,2.82-.3.36,0,.76-.07c.11,0,.21,0,.32,0h0c.6-.15,1.18-.35,1.79-.5a2.16,2.16,0,0,1,.51-.06h0c.28-.13.56-.28.82-.42a30.83,30.83,0,0,0,4.29-2.91c5.1-3.91,10.21-7.82,15-12.17.75-.69,1.41-1.53,2.17-2.2a70.77,70.77,0,0,0,7.62-8,17.78,17.78,0,0,1-6-2.44,66.64,66.64,0,0,1-13,11.79,52.77,52.77,0,0,1-10.82,6,96.74,96.74,0,0,1-11.81,3.28c-4.7,1.12-9.42,2.16-14.17,3a54.93,54.93,0,0,1-7,.59c-2.39.13-4.79.18-7.19.09l-3.57-.11c-1.2,0-2.39,0-3.59,0s-2.39.1-3.58.23a31.38,31.38,0,0,0-3.49.59c-.49.12-1,.25-1.48.4a.38.38,0,0,0-.21.12,0,0,0,0,1,0,0,.18.18,0,0,0,0,.1.09.09,0,0,0,0,0,2.86,2.86,0,0,0,.2.69c0,.14.06.28.09.42a1.93,1.93,0,0,0,.12.41c0,.08,0,.09.13.08h0C16.82,120.7,16.7,120.55,16.93,120.53Z"/><path class="cls-12" d="M89.88,94.29l-.41.51.17-.19.14-.17s0,0,0,0a1.84,1.84,0,0,0,.17-.22,3.92,3.92,0,0,0,.25-.32c.09-.13.19-.26.28-.4s.08-.12.11-.19A6.3,6.3,0,0,0,89.88,94.29Z"/><path class="cls-12" d="M91.44,91.3a1.84,1.84,0,0,0,0-.25,5.8,5.8,0,0,0,.05-1.5,8.7,8.7,0,0,0-.13-.87c-.09-.45-.21-.88-.34-1.31a17.84,17.84,0,0,0-4-6.86L86.64,80c.19.56.38,1.14.54,1.71-.29,1.48-.38,1.31-1.45,2.18-2.31,1.87-1.38.94-2.31,1.41-.75.37-2.25.28-3.7.46s-2.38.3-3.17.38a8.87,8.87,0,0,1-1,6.1,13.78,13.78,0,0,1-3.41,3.36c-.23.19-.48.37-.72.56a38.84,38.84,0,0,0,19.25-2.94h0a6.68,6.68,0,0,0,.42-.79c.1-.22.19-.46.27-.69A4.21,4.21,0,0,0,91.44,91.3Z"/><path class="cls-15" d="M60.35,91a4.72,4.72,0,0,0-.05-.91C60.33,90.39,60.35,90.69,60.35,91Z"/><path class="cls-15" d="M77.2,121.7c1.73.06,3.45,0,5.18,0l1.27-.07h.12l.36,0,.71-.06h0l1.1-.11.39,0,.52-.06.85-.11q.63-.07,1.26-.18l.65-.1.67-.1.59-.11.38-.07,1.25-.25c3.25-.69,6.43-1.64,9.6-2.63a40.86,40.86,0,0,0,4.06-1.31l1.44-.62h0c.23-.12.46-.25.7-.36l.22-.08.09,0,.87-.82.58-.55c.23-.23.46-.46.7-.67l.09-.08,1-1c.32-.31.65-.62,1-.94s.58-.61.88-.92l.51-.59h0c.25-.32.49-.64.77-.94s.6-.66.89-1a4,4,0,0,0,.37-.58,7.31,7.31,0,0,1,.69-.89c.47-.62.93-1.25,1.34-1.91l.24-.4c.52-.91,1-1.84,1.51-2.76.28-.54.58-1.07.85-1.61s.49-1.1.74-1.65.56-1.27.82-1.91l.06-.18c.1-.27.19-.54.28-.82a18,18,0,0,1-2.81.68,47.66,47.66,0,0,1-17.64-.19,70.77,70.77,0,0,1-7.62,8c-.76.67-1.42,1.51-2.17,2.2-4.74,4.35-9.85,8.26-15,12.17a30.83,30.83,0,0,1-4.29,2.91c-.26.14-.54.29-.82.42.73,0,1.49.24,2.23.27S76.38,121.67,77.2,121.7Z"/><path class="cls-9" d="M51,86.49a4.63,4.63,0,0,1-.4,3.85c-.94,1.62-2.88,2.92-5.53,3.82a15.07,15.07,0,0,0,4.74-.38l.31-.08a7.75,7.75,0,0,0,2.07-.94,5.52,5.52,0,0,0,.55-.4,5.06,5.06,0,0,0,.85-.94,4,4,0,0,0,.74-1.87,3.37,3.37,0,0,0,0-.84,6.62,6.62,0,0,0-2.36-4,14.27,14.27,0,0,0-1.21-1c-.2-.16-.42-.3-.63-.45s-.54-.34-.82-.5-.79-.45-1.19-.65L47.73,82A10.42,10.42,0,0,1,51,86.49Z"/><path class="cls-16" d="M16.93,120.53h.13l.31,0-.46-.08Z"/><path class="cls-16" d="M40.8,123.46h-.48c.34,0,.68,0,1,0,.73,0,1.46,0,2.19-.07h0l1.57-.06h-.53Z"/><path class="cls-16" d="M17.56,126.19v0l.45,0c.11,0,.22,0,.34,0l.42,0c.47,0,.94-.07,1.42-.09l1.58-.07H22c.61,0,1.23,0,1.84,0,1.22,0,2.45,0,3.67,0s2.45.08,3.67.14l3.68.2c1.22.06,2.44.13,3.66.18,7,.31,14.14.17,20.71-2.27L62.45,123a16.74,16.74,0,0,1-3.08.3c-3,.11-5.89.41-8.84.65-1.84.16-3.69.24-5.54.27-3.27.06-6.54,0-9.8-.21s-6.31-.41-9.48-.31q-4,.12-8,.35a12.15,12.15,0,0,0-.33-2c.08.37.15.74.2,1.11A13,13,0,0,1,17.56,126.19Z"/><path class="cls-16" d="M31.23,123a24.57,24.57,0,0,0,3,.36c.23,0,.47,0,.71,0l-1.08-.08C33,123.28,32.09,123.17,31.23,123Z"/><path class="cls-16" d="M63.86,122.49h0s0,0-.06,0l-.13.1.07,0Z"/><path class="cls-11" d="M113.74,110.37c-.3.31-.6.61-.88.92l.59-.6Z"/><path class="cls-11" d="M110.78,113.28c-.24.21-.47.44-.7.67l.79-.75Z"/><path class="cls-11" d="M115.93,107.83c-.29.34-.58.68-.89,1s-.52.62-.77.94l1.44-1.67Z"/><path class="cls-11" d="M122.49,96.12c.12-.32.24-.63.35-1a3.65,3.65,0,0,0-.06.49,9.44,9.44,0,0,1-.3,1.38,2.47,2.47,0,0,1-.1.29c-.23.6-.45,1.18-.64,1.79-.09.26-.21.51-.31.76a19.07,19.07,0,0,0-.68,2c-.09.33-.17.67-.25,1a4.1,4.1,0,0,1-.35.9,9,9,0,0,1-.65,1.07c-.53.77-1,1.54-1.61,2.27-.21.27-.42.54-.64.8-.34.42-.71.82-1,1.27a6.14,6.14,0,0,1-.7,1,35.07,35.07,0,0,1-3.43,3.13,12.56,12.56,0,0,1-2.86,1.84l.1,0,.6-.16h0a2.43,2.43,0,0,0,.56-.3l-.26.23.83-.2.57-.12.36-.21.2-.12a1.19,1.19,0,0,1,.16-.08l.43-.19.42-.18.21-.09a2,2,0,0,0,.2-.09l.26-.11.56-.26a15,15,0,0,0,2.77-1.67,15.62,15.62,0,0,0,1.24-1,24.72,24.72,0,0,0,3.34-4.41,28.05,28.05,0,0,0,2-3.89,14.82,14.82,0,0,0,1.44-5.58q.06-1.23.06-2.46a19.66,19.66,0,0,1-2.48,1c-.09.28-.18.55-.28.82Z"/><path class="cls-15" d="M35.92,131.65h0a14.81,14.81,0,0,1,1.63-.37c1.47-.42,2.93-.85,4.45-1.16l1.07-.22h0l1.16-.3,1.19-.31.59-.16c.19-.05.4-.09.59-.16l2.35-.64c.32-.09.59-.21.91-.27l1.1-.24a40.33,40.33,0,0,0,4.31-1.3,45.34,45.34,0,0,0,6.74-3.14l.75-.43-.16,0-.19,0-3.19,1.18c-6.57,2.44-13.71,2.58-20.71,2.27-1.22,0-2.44-.12-3.66-.18l-3.68-.2C30,126,28.76,126,27.54,126s-2.45-.06-3.67,0c-.61,0-1.23,0-1.84,0h-.25L20.2,126c-.48,0-.95,0-1.42.09l-.42,0c-.12,0-.23,0-.34,0l-.45,0v0a1.06,1.06,0,0,0-.06.19,1,1,0,0,0,0,.25,4.58,4.58,0,0,1-.08.83l0,.3a5.27,5.27,0,0,0,0,.56,3.92,3.92,0,0,0,.74,2.66,5.07,5.07,0,0,0,3.41,1.41h0A51.19,51.19,0,0,0,35.92,131.65Z"/><path class="cls-14" d="M123.81,102.18a28.05,28.05,0,0,1-2,3.89,24.72,24.72,0,0,1-3.34,4.41,15.62,15.62,0,0,1-1.24,1,15,15,0,0,1-2.77,1.67l-.56.26-.26.11a2,2,0,0,1-.2.09l-.21.09-.42.18-.43.19a1.19,1.19,0,0,0-.16.08l-.2.12-.36.21.21,0h0a.91.91,0,0,1,.39-.2c.38-.09.75-.19,1.13-.3h0l.59-.23c.22-.09.44-.15.65-.23l.19-.07c.28-.11.56-.23.85-.32l.86-.29.28-.1a14.2,14.2,0,0,0,3.69-2,16.3,16.3,0,0,0,4.4-5,34.65,34.65,0,0,0,2.74-6.12,13.24,13.24,0,0,0,.6-2,12.83,12.83,0,0,0-.19-4.93,22.6,22.6,0,0,1-2.73,1.51q0,1.23-.06,2.46A14.82,14.82,0,0,1,123.81,102.18Z"/><path class="cls-17" d="M55.31,126.51a40.33,40.33,0,0,1-4.31,1.3l-1.1.24c-.32.06-.59.18-.91.27l-2.35.64c-.19.07-.4.11-.59.16l-.59.16-1.19.31-1.16.3c1.78-.37,3.56-.77,5.33-1.22a52.56,52.56,0,0,0,12.16-4.49,19.64,19.64,0,0,1,2.73-1.33c1.9-.68,3.93-.59,5.9-.83a7.7,7.7,0,0,0,1-.19h0c-.11,0-.21,0-.32,0l-.76.07-.36,0-2.82.3-1.13.13c-.3,0-.65,0-1,.09l-.12,0-.07,0a2.76,2.76,0,0,1-.87.4l-.75.43A45.34,45.34,0,0,1,55.31,126.51Z"/><path class="cls-17" d="M87.7,121.19l.19,0h0l1-.16Q88.33,121.12,87.7,121.19Z"/><path class="cls-17" d="M87.7,121.19l-.85.11.68-.08Z"/><path class="cls-17" d="M86.33,121.36l-.39,0h0Z"/><path class="cls-17" d="M86.33,121.36h0l.52-.06h0Z"/><path class="cls-17" d="M89,121l.65-.1L89,121Z"/><path class="cls-17" d="M89.61,120.91l.67-.1-.67.1Z"/><path class="cls-17" d="M109.18,115.14a4.19,4.19,0,0,1-.59.22l0,0-.09,0-.22.08c-.24.11-.47.24-.7.36l.81-.34c.4-.17,1-.32,1.52-.53l-.6.16Z"/><path class="cls-17" d="M60.33,130.83q14.3-2.07,28.4-5.31a59.9,59.9,0,0,0,13.9-4.62,48.57,48.57,0,0,0,8.67-5.66.56.56,0,0,1,0-.08l.06-.09h0c0-.07.09-.14.13-.22a2,2,0,0,1,.31-.34l-.21,0-.57.12-.83.2a23.33,23.33,0,0,1-6.78,3.49c-2.34.88-4.68,1.73-7,2.53a44.35,44.35,0,0,1-6.65,1.94c-2.4.41-4.81.83-7.2,1.28q-7.2,1.32-14.35,2.86a99.86,99.86,0,0,0-9.91,2.52c-1.44.46-2.87,1-4.3,1.53A31.73,31.73,0,0,0,60.33,130.83Z"/><path class="cls-12" d="M128.23,97.56a13.24,13.24,0,0,1-.6,2,34.65,34.65,0,0,1-2.74,6.12,16.3,16.3,0,0,1-4.4,5,14.2,14.2,0,0,1-3.69,2l-.28.1-.86.29c-.29.09-.57.21-.85.32l-.19.07c-.21.08-.43.14-.65.23l-.59.23.5-.14,0,0,3.53-1.19,1.19-.41.21-.07,1.51-.52,1.71-.59h0a25.26,25.26,0,0,0,2.7-1.36c.32-.17.65-.34,1-.53a21.45,21.45,0,0,0,2.58-2s0,0,.06,0l.08-.08v0a7.65,7.65,0,0,0,.69-.9,13,13,0,0,0,1.4-10.15A22.41,22.41,0,0,0,129,92c-.3.2-.61.41-.92.6A12.83,12.83,0,0,1,128.23,97.56Z"/><path class="cls-10" d="M110.53,116.32c.16-.19.33-.38.48-.58h0l.14-.24.15-.25a48.57,48.57,0,0,1-8.67,5.66,59.9,59.9,0,0,1-13.9,4.62q-14.08,3.24-28.4,5.31A31.73,31.73,0,0,1,54,131c-2.54,1-5.07,1.95-7.65,2.7,2,.13,4,.29,6,.45a114.8,114.8,0,0,0,18.16.4,114,114,0,0,0,11.31-1.73,133.19,133.19,0,0,0,13.38-3,53.11,53.11,0,0,0,5.39-1.78,15.3,15.3,0,0,0,4.85-3c.26-.25.48-.54.74-.79a6.15,6.15,0,0,0,.89-1l.11-.15.08-.14.11-.18a1.19,1.19,0,0,0,.08-.16l0-.06c0-.08.09-.17.13-.25l.16-.36h0A12.35,12.35,0,0,1,110.53,116.32Z"/><path class="cls-10" d="M107.7,122.25a1.16,1.16,0,0,1,0-.18,1.17,1.17,0,0,0,0,.2v0Z"/><path class="cls-16" d="M111.3,115.24l-.15.25-.14.24.09-.12c.11-.17.2-.36.31-.54l-.06.09A.56.56,0,0,0,111.3,115.24Z"/><path class="cls-16" d="M113.92,113.83c1.19-.36,2.35-.78,3.53-1.19Z"/><path class="cls-16" d="M122.07,111.05l-1.71.59-1.51.52c1-.34,2.06-.68,3.08-1.06Z"/><path class="cls-16" d="M105.83,127.05l.32-.2,1.62-.93a62.75,62.75,0,0,0,7.47-5,25.33,25.33,0,0,0,2.16-1.82c.58-.55,1.11-1.11,1.63-1.7s.77-.91,1.14-1.38a11.36,11.36,0,0,0,1.88-3.64c0-.13.08-.26.11-.4-1.26.61-2.54,1.18-3.75,1.89a29,29,0,0,0-5.43,4.26,25.89,25.89,0,0,1-5.38,4.5,33.44,33.44,0,0,1-2.08,4.56h0a.24.24,0,0,1,.06-.09A1,1,0,0,1,105.83,127.05Z"/><path class="cls-14" d="M122.16,112c0,.14-.07.27-.11.4a11.36,11.36,0,0,1-1.88,3.64q-.56.71-1.14,1.38c-.52.59-1,1.15-1.63,1.7a25.33,25.33,0,0,1-2.16,1.82,62.75,62.75,0,0,1-7.47,5l-1.62.93-.32.2a1,1,0,0,0-.24.1.24.24,0,0,0-.06.09l0,.06c-.19.41-.51.77-.72,1.18s-.42.86-.65,1.28l-.4.72a2.13,2.13,0,0,0-.14.35,0,0,0,0,1,0,0,.13.13,0,0,0,0,.06.39.39,0,0,0,0,.24.18.18,0,0,0,.07.08h0l0,0,.08,0a.51.51,0,0,0,.17,0,11.78,11.78,0,0,0,4-.47,28,28,0,0,0,8.57-4.19c.24-.16.47-.3.69-.48a29.11,29.11,0,0,0,6.59-7.78,9.16,9.16,0,0,0,.61-1.26,18.88,18.88,0,0,0,1.25-6.41c0-.24,0-.48,0-.73a18.76,18.76,0,0,1-2,1.21C123.26,111.5,122.71,111.77,122.16,112Z"/><path class="cls-13" d="M35.93,131.65h0a.14.14,0,0,0-.08,0,0,0,0,0,0,0,.05l1.72-.47A14.81,14.81,0,0,0,35.93,131.65Z"/><path class="cls-13" d="M128.39,107.19a.23.23,0,0,1,0,.2,10.08,10.08,0,0,1-2.63,2.62c0,.25,0,.49,0,.73a18.88,18.88,0,0,1-1.25,6.41,9.16,9.16,0,0,1-.61,1.26,29.11,29.11,0,0,1-6.59,7.78c-.22.18-.45.32-.69.48a28,28,0,0,1-8.57,4.19,11.78,11.78,0,0,1-4,.47.51.51,0,0,1-.17,0l-.08,0,0,0h0a.18.18,0,0,1-.07-.08.39.39,0,0,1,0-.24.13.13,0,0,1,0-.06s0,0,0,0h0a2.13,2.13,0,0,1,.14-.35l.4-.72c.23-.42.43-.85.65-1.28s.53-.77.72-1.18l0-.06h0a33.44,33.44,0,0,0,2.08-4.56l0,0a1.6,1.6,0,0,1,.11-.33h0v-.09a1.17,1.17,0,0,1,0-.2h0l-.16.36c0,.08-.08.17-.13.25l0,.06a1.19,1.19,0,0,1-.08.16l-.11.18-.08.14-.11.15a6.15,6.15,0,0,1-.89,1c-.26.25-.48.54-.74.79a15.3,15.3,0,0,1-4.85,3,53.11,53.11,0,0,1-5.39,1.78,133.19,133.19,0,0,1-13.38,3,114,114,0,0,1-11.31,1.73,114.8,114.8,0,0,1-18.16-.4c-2-.16-4-.32-6-.45a30.38,30.38,0,0,1-5.51,1.1,9.28,9.28,0,0,1-1.9,0,6.48,6.48,0,0,0,1.82.07c12.58,4.36,26.19,4.29,39.49,4.17a71.11,71.11,0,0,0,8.51-.41c1.32-.18,2.58-.61,3.87-.79a31.18,31.18,0,0,0,4.28-.86,7.27,7.27,0,0,0,1.83-.72,8,8,0,0,0,1.56-1.29l.4-.38-.07.08s1.47.18,1.62.2a10.69,10.69,0,0,0,1.6,0,29.21,29.21,0,0,0,3.5-.35,60.19,60.19,0,0,0,7-1.63,29.14,29.14,0,0,0,8.75-3.58,17,17,0,0,0,4.38-4.42,19,19,0,0,0,1.88-3.39,12.15,12.15,0,0,0,1-3.38,13.36,13.36,0,0,0-.08-3.46c-.34-2.48-1.3-4.76-1.78-7.18a1.39,1.39,0,0,1,0-.41v0Z"/><path class="cls-18" d="M125.76,109.22a20.62,20.62,0,0,1-3.22,1.7.39.39,0,0,0-.11.06h0a.35.35,0,0,0-.06.17,8.63,8.63,0,0,1-.2.88c.55-.26,1.1-.53,1.64-.81a18.76,18.76,0,0,0,2-1.21c0-.24,0-.49,0-.74Z"/><path class="cls-19" d="M127.24,108.18l-.73.51c-.14.1-.26.16-.4.25a2.51,2.51,0,0,0-.32.25l0,0v0c0,.25,0,.5,0,.74a10.08,10.08,0,0,0,2.63-2.62.23.23,0,0,0,0-.2,10.29,10.29,0,0,1-.92.83Z"/><path class="cls-20" d="M113.2,114.06a4.84,4.84,0,0,0-1.2.4,1.64,1.64,0,0,0-.26.2l-.09.1a.46.46,0,0,0-.07.07l-.13.18,0,0h0c-.11.18-.2.37-.31.54l-.09.12h0a2.39,2.39,0,0,0-.13.21c-.47.73-1.08,1.36-1.53,2.11a12.5,12.5,0,0,0-1,2.18,16.59,16.59,0,0,0-.52,1.83c0,.14-.08.29-.13.44l0,.12s0,0,0,.05a25.89,25.89,0,0,0,5.38-4.5,29,29,0,0,1,5.43-4.26c1.21-.71,2.49-1.28,3.75-1.89a8.63,8.63,0,0,0,.2-.88.35.35,0,0,1,.06-.17h0c-.05,0-.15,0-.34.06h0l-.14,0c-1,.38-2,.72-3.08,1.06l-.21.07-1.19.41c-1.18.41-2.34.83-3.53,1.19l0,0-.4.13Z"/><path class="cls-21" d="M107.65,122.51c0-.15.09-.3.13-.44a16.59,16.59,0,0,1,.52-1.83,12.5,12.5,0,0,1,1-2.18c.45-.75,1.06-1.38,1.53-2.11a2.39,2.39,0,0,1,.13-.21c-.15.2-.32.39-.48.58a12.35,12.35,0,0,0-2.79,5.74h0a1.16,1.16,0,0,0,0,.18h0v.11h0a1.6,1.6,0,0,0-.11.33l0,0s0,0,0-.05Z"/><path class="cls-21" d="M112.25,114.29a.91.91,0,0,0-.39.2h0a2,2,0,0,0-.31.34c0,.08-.09.15-.13.22h0l0,0,.13-.18a.46.46,0,0,1,.07-.07l.09-.1a1.64,1.64,0,0,1,.26-.2,4.84,4.84,0,0,1,1.2-.4l.28-.08.4-.13-.5.14h0C113,114.1,112.63,114.2,112.25,114.29Z"/><path class="cls-21" d="M122.43,111a.39.39,0,0,1,.11-.06,20.62,20.62,0,0,0,3.22-1.7l0,0a2.51,2.51,0,0,1,.32-.25c.14-.09.26-.15.4-.25l.73-.51.23-.16a10.29,10.29,0,0,0,.92-.83s0,0-.06,0a21.45,21.45,0,0,1-2.58,2c-.31.19-.64.36-1,.53a25.26,25.26,0,0,1-2.7,1.36C122.28,111,122.38,110.93,122.43,111Z"/><path class="cls-22" d="M109.18,115.14a.15.15,0,0,0,.07,0,12.56,12.56,0,0,0,2.86-1.84,35.07,35.07,0,0,0,3.43-3.13,6.14,6.14,0,0,0,.7-1c.3-.45.67-.85,1-1.27.22-.26.43-.53.64-.8.56-.73,1.08-1.5,1.61-2.27a9,9,0,0,0,.65-1.07,4.1,4.1,0,0,0,.35-.9c.08-.34.16-.68.25-1a19.07,19.07,0,0,1,.68-2c.1-.25.22-.5.31-.76.19-.61.41-1.19.64-1.79a2.47,2.47,0,0,0,.1-.29,9.44,9.44,0,0,0,.3-1.38,3.65,3.65,0,0,1,.06-.49c-.11.32-.23.63-.35,1-.26.64-.54,1.27-.82,1.91s-.47,1.11-.74,1.65-.57,1.07-.85,1.61c-.5.92-1,1.85-1.51,2.76l-.24.4c-.41.66-.87,1.29-1.34,1.91a7.31,7.31,0,0,0-.69.89,4,4,0,0,1-.37.58l-.22.27-1.44,1.67h0l-.51.59-.29.32-.59.6c-.31.32-.64.63-1,.94l-1,1-.79.75-.58.55-.87.82,0,0A4.19,4.19,0,0,0,109.18,115.14Z"/><path class="cls-20" d="M25.71,123.73c3.17-.1,6.31.15,9.48.31s6.53.27,9.8.21c1.85,0,3.7-.11,5.54-.27,2.95-.24,5.88-.54,8.84-.65a16.74,16.74,0,0,0,3.08-.3l.19,0,.16,0a2.76,2.76,0,0,0,.87-.4h0l.13-.1h0a1.6,1.6,0,0,0-.92-.09c-3.26.29-6.52.55-9.78.76-1.54.1-3.07.08-4.61.14l-3.36.13-1.57.06h0c-.73,0-1.46.06-2.19.07-.34,0-.68,0-1,0s-.85-.07-1.28-.08c-1.38,0-2.76.06-4.13,0-.24,0-.48,0-.71,0a24.57,24.57,0,0,1-3-.36c-.72-.13-1.44-.27-2.15-.42-3.14-.66-6.26-1.37-9.44-1.8-.57-.08-1.14-.15-1.72-.21l-.55,0-.31,0h-.13c-.23,0-.11.17,0,.39l0,0a7.38,7.38,0,0,1,.38,1.12,12.15,12.15,0,0,1,.33,2Q21.68,123.86,25.71,123.73Z"/><path class="cls-22" d="M46.37,99.33l.45,0a11.41,11.41,0,0,1,1.58-.17,23.64,23.64,0,0,0,8.52-1.88A11,11,0,0,0,60,95.42a7.71,7.71,0,0,0,1.51-1.92,4,4,0,0,1-1.37-1.12l0,0a3,3,0,0,1-.56,1A8.22,8.22,0,0,1,58,95.67,7.82,7.82,0,0,1,56.36,97l-.07,0a5.42,5.42,0,0,1-.48.26l-.12,0,0,0A16.52,16.52,0,0,1,51,98.58c-.94.14-1.88.23-2.82.32s-1.77.15-2.66.19l-.32,0,.47.11.12,0Z"/><path class="cls-23" d="M51,98.58a16.52,16.52,0,0,0,4.64-1.25,16.4,16.4,0,0,1-4.59,1c-1.86.22-3.68.52-5.53.75.89,0,1.78-.11,2.66-.19S50.08,98.72,51,98.58Z"/><path class="cls-18" d="M47.55,99.67l.71.16.52.11c2.67.6,5.33,1.19,8,1.63l.37.05h0a8.79,8.79,0,0,0,1.14.11h0l.52,0a9.67,9.67,0,0,0,1.17-.23l.19-.06c2.76-1.5,6-2,8.72-3.57l.43-.25.38-.24.4-.27.31-.22.32-.23.27-.2.29-.22L70,96.06a27.64,27.64,0,0,1-3.49-.59,16.89,16.89,0,0,1-3.66-1.34c-.42-.21-.86-.41-1.28-.63A7.71,7.71,0,0,1,60,95.42a11,11,0,0,1-3.12,1.88,23.64,23.64,0,0,1-8.52,1.88,11.41,11.41,0,0,0-1.58.17l-.45,0-.56-.07-.12,0,.71.17,1.14.26Z"/><path class="cls-24" d="M71.38,96.2l-.29.22-.27.2-.32.23-.31.22-.4.27-.38.24-.43.25c-2.75,1.55-6,2.07-8.72,3.57l-.19.06a9.67,9.67,0,0,1-1.17.23l-.52,0h.37c.53,0,1.06-.13,1.6-.19a24.88,24.88,0,0,1,5,0l1.65.13c2,.06,4.1.12,6.15.11h.15c1,0,2.08,0,3.13-.11h0c.67,0,1.35-.09,2-.16l.83-.1a14.17,14.17,0,0,0,2.87-.64,14.17,14.17,0,0,0,5.63-4.26c.64-.73,1.25-1.49,1.84-2.23-.16.28-.33.56-.51.83-.06.1-.13.19-.19.28l0,0h0s0,0,0,0c.15-.18.3-.36.44-.55,0,0,0,0,0,0l.41-.51a6.3,6.3,0,0,1,.73-1h0v0A38.84,38.84,0,0,1,71.38,96.2Z"/><path class="cls-25" d="M90.62,93.28a.41.41,0,0,1,.11-.07l-.1.05h0Z"/><path class="cls-26" d="M39,130.92H39l-.48.13c-.26.06-.52.14-.78.22a1.8,1.8,0,0,1-.71.3c-.38.08-.43.53-.29.86a1.88,1.88,0,0,0,1.9.92c2.6,0,5.18.16,7.77.34C48.94,133,51.47,132,54,131,48.94,130.72,43.81,129.8,39,130.92Z"/><path class="cls-19" d="M36.69,132.44c-.14-.33-.09-.78.29-.86a1.8,1.8,0,0,0,.71-.3l.05,0-.18,0-1.72.47-.19.05a9.74,9.74,0,0,0,.52,1.37,3.23,3.23,0,0,0,1.3,1.24,4.24,4.24,0,0,0,1.48.41,9.28,9.28,0,0,0,1.9,0,30.38,30.38,0,0,0,5.51-1.1c-2.59-.18-5.17-.32-7.77-.34A1.88,1.88,0,0,1,36.69,132.44Z"/><path class="cls-27" d="M69.23,122c-2,.24-4,.15-5.9.83a19.64,19.64,0,0,0-2.73,1.33,52.56,52.56,0,0,1-12.16,4.49c-1.77.45-3.55.85-5.33,1.22h0l-1.07.22c-1.52.31-3,.74-4.45,1.16l.18,0-.05,0c.26-.08.52-.16.78-.22l.48-.13H39c4.79-1.12,9.92-.2,15,.08,1.43-.54,2.86-1.07,4.3-1.53A99.86,99.86,0,0,1,68.22,127q7.16-1.53,14.35-2.86c2.39-.45,4.8-.87,7.2-1.28a44.35,44.35,0,0,0,6.65-1.94c2.37-.8,4.71-1.65,7-2.53a23.33,23.33,0,0,0,6.78-3.49l-.3.07h0c-.51.21-1.12.36-1.52.53l-.81.34h0a10.05,10.05,0,0,1-1.14.56c-2.12.78-4.27,1.48-6.43,2.12l-.82.24-.56.16-.48.13-.61.16c-.56.16-1.12.3-1.68.44l-.61.14-.34.09-.59.13-.93.21-1,.2-.2,0-1,.19-.38.07-.59.11-.67.1h0L89,121l-1,.16h0l-1,.13-.52.06-.38,0h0l-1.1.11h0l-.71.06-.36,0h-.12l-1.27.07c-1.73.08-3.45.09-5.18,0-.82,0-1.63-.11-2.44-.16s-1.5-.29-2.23-.27h0a2.16,2.16,0,0,0-.51.06c-.61.15-1.19.35-1.79.5h0A7.7,7.7,0,0,1,69.23,122Z"/><path class="cls-28" d="M102.1,117.75c-3.17,1-6.35,1.94-9.6,2.63l-1.25.25,1-.19.2,0,1-.2.93-.21.59-.13.34-.09.61-.14c.56-.14,1.12-.28,1.68-.44l.61-.16.48-.13.56-.16.82-.24c2.16-.64,4.31-1.34,6.43-2.12a10.05,10.05,0,0,0,1.14-.56l-1.44.62A40.86,40.86,0,0,1,102.1,117.75Z"/><path class="cls-28" d="M110,114.92l.3-.07.26-.23A2.43,2.43,0,0,1,110,114.92Z"/><path class="cls-26" d="M15.73,116.58a.42.42,0,0,1,0,.1l7.88-.61,4.7-.95c2.14-.44,4.28-.91,6.37-1.53a35.62,35.62,0,0,0,5.92-2.27c.9-.45,1.77-.94,2.65-1.44l11.43-6.44h0l.5-.29a200.73,200.73,0,0,1-26,9.73,39.22,39.22,0,0,1-6.59,1.39c-3.76.39-7.57-.15-11.34.17l0,0a1.74,1.74,0,0,0,1.39.72,5.27,5.27,0,0,1,2,.31,1.94,1.94,0,0,1,.8.83c0,.08.07.16.11.23v0Z"/><path class="cls-19" d="M16.32,117.88c.27-.06.52-.16.78-.24l1.58-.44c1.06-.28,2.13-.53,3.2-.76l1.77-.37-7.88.61a.42.42,0,0,0,0-.1l0,0a.36.36,0,0,1,0,.09h0a6.39,6.39,0,0,1,.24.74,1.11,1.11,0,0,0,.13.39A.21.21,0,0,0,16.32,117.88Z"/><path class="cls-19" d="M89.17,95.14c.18-.27.35-.55.51-.83-.59.74-1.2,1.5-1.84,2.23a14.17,14.17,0,0,1-5.63,4.26,14.17,14.17,0,0,1-2.87.64L77,102.51a20.79,20.79,0,0,0,3.81-.86l.62-.23.26-.11.34-.14.31-.14.29-.14.32-.16.27-.14a3.37,3.37,0,0,0,.32-.19,2,2,0,0,0,.25-.14l.33-.2.23-.15.33-.22.22-.15.32-.23.21-.16.31-.25.2-.17a3.88,3.88,0,0,0,.31-.26l.19-.17.29-.27.19-.19.28-.28.19-.19.26-.29.18-.2.25-.3.18-.22.23-.3c.06-.07.11-.15.17-.23l.21-.3a.44.44,0,0,0,.08-.11C89,95.33,89.11,95.24,89.17,95.14Z"/><path class="cls-26" d="M78.51,101.54c-.67.07-1.35.12-2,.16h0c-1,.06-2.09.09-3.13.11h-.15c-2.05,0-4.1,0-6.15-.11-1.76-.06-3.53-.11-5.3-.12a14.45,14.45,0,0,0-2.46.15,8.44,8.44,0,0,0-.87.2l.22,0-.28,0a19.84,19.84,0,0,0-3.62,1.62,67.65,67.65,0,0,1,7-.51c2,0,4.07.27,6,.22,2.16-.05,4.37-.35,6.53-.51q1.38-.09,2.76-.27l2.31-1.07Z"/><path class="cls-29" d="M21.61,99.9c9.57-1.05,19.14-.2,28.63,1.12,1.43.2,2.87.42,4.31.64h0a16,16,0,0,0,2.29.36c.26,0,.51,0,.77,0h.2a4,4,0,0,1,.49,0l.28,0-.22,0-.29,0q-5.52-.89-10.94-2.28l-.77-.2-.71-.17-.47-.11-.11,0a6.18,6.18,0,0,0-.62-.12c-1.1-.19-2.23-.26-3.33-.42A39.83,39.83,0,0,1,36,97.29l-.74-.22c-1-.3-2.07-.59-3.11-.85a33,33,0,0,0-6.3-1.06c-.59,0-1.17,0-1.75,0a35.44,35.44,0,0,0-5,.43c-.46.07-.92.16-1.39.25-.63.12-1.26.25-1.89.35a10.54,10.54,0,0,0-2.57.35l0,0c-.38.17-.41.61-.3,1a2.91,2.91,0,0,0,.25.6,20.36,20.36,0,0,0,2.62,3.57l.08.1C17.39,100.48,19.56,100.13,21.61,99.9Z"/><path class="cls-23" d="M46.46,77.56l.86.14c.57.1,1.14.21,1.7.34a20.06,20.06,0,0,1,3.29,1.07,10.94,10.94,0,0,1,5.23,4.47,16.76,16.76,0,0,1,1.07,2.55,16.23,16.23,0,0,1,.58,1.79c.13.55.22,1.11.3,1.67.11.73.28,1.46.34,2.19A3.54,3.54,0,0,1,59.66,93c-1,1.37-1.85,3-3.3,3.93A7.82,7.82,0,0,0,58,95.67a8.22,8.22,0,0,0,1.57-2.21,3,3,0,0,0,.56-1,3.93,3.93,0,0,0,.16-.83,5.68,5.68,0,0,0,0-.59c0-.3,0-.6-.05-.91l-.09-.73a14,14,0,0,0-.61-2.87c-.16-.43-.35-.84-.5-1.27-.86-2.42-1.75-4.83-4-6.33a9.16,9.16,0,0,0-3.66-1.32A14.67,14.67,0,0,0,50,77.4a5.78,5.78,0,0,0-.72,0c-.18,0-.38-.08-.57-.1l-.52-.06h-.06a7.42,7.42,0,0,0-1.33-.07l-.26,0a2.07,2.07,0,0,0-1,.28h.15A3.58,3.58,0,0,1,46.46,77.56Z"/><path class="cls-30" d="M75.47,70.31C78.22,71.56,81,72.67,83.76,74a4.17,4.17,0,0,1,.77.49,5.8,5.8,0,0,1-.4-.73,10.19,10.19,0,0,1-.53-2.52C80,69.62,76.51,68.4,73.41,66.6c-4-2.31-7.37-5.22-8.85-9.32l-.07,1.45A8.92,8.92,0,0,0,64.71,61a2.65,2.65,0,0,1,.39.5C67.33,65.58,71,68.3,75.47,70.31Z"/><path class="cls-30" d="M76.89,22.82a2.7,2.7,0,0,1,.71.48l0-.11a3.15,3.15,0,0,1-.27-.89,2.49,2.49,0,0,1,0-.67,14.41,14.41,0,0,1-5.78-4A3.19,3.19,0,0,1,71,16.11a3.39,3.39,0,0,1,0,.45,6.45,6.45,0,0,1-.21,1c-.17.56-.36,1.12-.54,1.68l.21-.41C72.15,21,74.6,21.8,76.89,22.82Z"/><path class="cls-30" d="M68,46.93a18.3,18.3,0,0,0,7.65,6.12c1.87.9,3.78,1.71,5.64,2.62a3.57,3.57,0,0,1,1,.8L82.1,56a10.53,10.53,0,0,1-.7-1.63,5.37,5.37,0,0,1-.19-1.19v0c-5.42-2.14-10.28-4.54-13.5-9A11.68,11.68,0,0,1,66.46,42c0,.11,0,.21,0,.32a9.24,9.24,0,0,1-.39,2.31c0,.08,0,.15,0,.23l.13-.28C66.78,45.39,67.44,46.13,68,46.93Z"/><path class="cls-30" d="M69.25,31.52c1.2.86,2.29,1.83,3.43,2.75a1.31,1.31,0,0,0,.43.31c1.56.55,3.11,1.13,4.71,1.6a3.46,3.46,0,0,1,1.88,1.2c0-.12,0-.24,0-.36,0-.38,0-.76.07-1.14A17.72,17.72,0,0,1,68.9,29,5.17,5.17,0,0,1,68,27.05a1.65,1.65,0,0,0,.06.32,14.59,14.59,0,0,1,.42,1.43,5.85,5.85,0,0,1-.78,2.85s0,0,0,.05l.23-.24A1.5,1.5,0,0,1,69.25,31.52Z"/><path class="cls-30" d="M78.92,21.56c.09.26.17.53.26.8C79.1,22.09,79,21.82,78.92,21.56Z"/><path class="cls-31" d="M64.46,81.38c1.85,1.24,2,1.34,7.17,1.87a20.62,20.62,0,0,0,4.92.12c.79-.07,1.78-.18,3.17-.33a17.65,17.65,0,0,0,3.7-.42c.93-.41,0,.42,2.31-1.24,1.07-.77,1.16-.63,1.45-1.94-.16-.51-.35-1-.54-1.52a18.6,18.6,0,0,0-1.06-2.26,4.26,4.26,0,0,0-.62-.81,5.51,5.51,0,0,0-.43-.41,4.17,4.17,0,0,0-.77-.49c-2.72-1.28-5.54-2.39-8.29-3.64-4.43-2-8.14-4.73-10.37-8.84a2.65,2.65,0,0,0-.39-.5c-.07-.08-.14-.16-.22-.27-.79,2-1.54,3.82-2.13,5.63A6.71,6.71,0,0,0,62,69.09q.33,2.89.75,5.79c.19,1.3.38,2.6.58,3.9A5.53,5.53,0,0,0,64.46,81.38Z"/><path class="cls-31" d="M73.41,66.6c3.1,1.8,6.63,3,10.19,4.59l.1,0c1-2.65,1.76-5,1.41-7.49a19.43,19.43,0,0,0-2.57-7,3.19,3.19,0,0,0-.23-.32,3.57,3.57,0,0,0-1-.8c-1.86-.91-3.77-1.72-5.64-2.62A18.3,18.3,0,0,1,68,46.93c-.53-.8-1.19-1.54-1.8-2.31L66,44.9c-.46,1-.89,1.87-1.31,2.75s-1,1.49-1,2.23a24.22,24.22,0,0,0,.4,6,13.34,13.34,0,0,0,.43,1.44C66,61.38,69.46,64.29,73.41,66.6Z"/><path class="cls-31" d="M81.2,53.22v0c.36-1.38.76-2.66,1-4,.84-4-.5-7.66-2.19-11.27a2.83,2.83,0,0,0-.36-.58,3.46,3.46,0,0,0-1.88-1.2c-1.6-.47-3.15-1-4.71-1.6a1.31,1.31,0,0,1-.43-.31c-1.14-.92-2.23-1.89-3.43-2.75a1.5,1.5,0,0,0-1.3-.06l-.23.24a6.6,6.6,0,0,0-1.88,2.65A12.62,12.62,0,0,0,66.46,42a11.68,11.68,0,0,0,1.24,2.18C70.92,48.68,75.78,51.08,81.2,53.22Z"/><path class="cls-31" d="M79.76,35.88h0a7.43,7.43,0,0,0,.54-5.74c-.37-1.16-.76-2.32-1.17-3.47-.09-.24-.17-.48-.26-.71-.23-.62-.46-1.23-.7-1.83a2.41,2.41,0,0,0-.62-.84,2.7,2.7,0,0,0-.71-.48c-2.29-1-4.74-1.81-6.46-4l-.21.41a25.57,25.57,0,0,0-2,4.15A7.72,7.72,0,0,0,68,27.05,5.17,5.17,0,0,0,68.9,29,17.72,17.72,0,0,0,79.76,35.88Z"/><path class="cls-31" d="M77.32,21.63h0c1.88-7.19.22-13.86-3.26-20.54a6.82,6.82,0,0,0-.82,1.07c-.76,1.66-1.56,3.31-2.2,5a9.83,9.83,0,0,0-.42,5.53c.16.73,0,1.5.18,2.24.06.37.1.77.16,1.16a3.19,3.19,0,0,0,.55,1.49A14.41,14.41,0,0,0,77.32,21.63Z"/><path class="cls-32" d="M138.93,77.08c-3.45,1.34-7,2.54-10.5,3.57-2.09,2.58-9.93,11.79-16.25,12.79-6.67,1.06-12.55-.39-14-3.27a13,13,0,0,0-2.56,2.42c.23.2.48.39.74.58a17.78,17.78,0,0,0,6,2.44A47.66,47.66,0,0,0,120,95.8a18,18,0,0,0,2.81-.68,19.66,19.66,0,0,0,2.48-1A22.6,22.6,0,0,0,128,92.63c.31-.19.62-.4.92-.6,8.48-5.87,13.61-16.13,13.61-16.13h0a.45.45,0,0,1-.18.07C141.21,76.35,140.07,76.72,138.93,77.08Z"/><path class="cls-33" d="M98.18,90.17a3.19,3.19,0,0,1-.3-1c-.21-1.35.49-2.75,1.86-4A15,15,0,0,0,97.09,87a9.52,9.52,0,0,0-3,3.88,6.34,6.34,0,0,0,1.48,1.76A13,13,0,0,1,98.18,90.17Z"/><path class="cls-34" d="M94.85,85.06A6.51,6.51,0,0,0,93.61,88a4.62,4.62,0,0,0,.53,2.86,9.52,9.52,0,0,1,3-3.88,15,15,0,0,1,2.65-1.75,22.83,22.83,0,0,1,6-2.09,87.51,87.51,0,0,1,9.42-1.18,123.88,123.88,0,0,0,12.71-2q5.61-1.17,11.1-2.87c1.14-.36,2.28-.73,3.42-1.12a.45.45,0,0,0,.18-.07l-.43-.1a71,71,0,0,0-25.31-.85,52.34,52.34,0,0,0-13.7,4C99.29,80.75,96.4,82.86,94.85,85.06Z"/><path class="cls-35" d="M118.32,83.17q-5.61,1.29-11.1,3a29.76,29.76,0,0,0-9,4c1.45,2.88,7.33,4.33,14,3.27,6.32-1,14.16-10.21,16.25-12.79q-3.17.91-6.36,1.67Z"/><path class="cls-36" d="M97.88,89.22a3.19,3.19,0,0,0,.3,1,29.76,29.76,0,0,1,9-4q5.49-1.66,11.1-3l3.75-.85q3.2-.75,6.36-1.67L129,80l-1.13,0a123.88,123.88,0,0,1-12.71,2,87.51,87.51,0,0,0-9.42,1.18,22.83,22.83,0,0,0-6,2.09C98.37,86.47,97.67,87.87,97.88,89.22Z"/><path class="cls-33" d="M128.43,80.65c3.55-1,7-2.23,10.5-3.57q-5.49,1.69-11.1,2.87L129,80Z"/><path class="cls-32" d="M45.07,94.16c2.65-.9,4.59-2.2,5.53-3.82a9.45,9.45,0,0,0-2.85-4,15.8,15.8,0,0,0-2.53-1.78l-.09,0,0,0c1.32,1.3,2,2.7,1.73,4-.63,3.49-7.1,5.22-14.45,3.86-5.54-1-12.09-8.42-15-12-4.57-1-9.09-2.28-13.58-3.64,2.22,3.83,6.87,10.8,13.39,14.88a20.92,20.92,0,0,0,7.26,2.92C32.62,96.15,40.09,95.85,45.07,94.16Z"/><path class="cls-33" d="M16,78.57h1.14A123.43,123.43,0,0,1,2.65,74.2c-.07,0-.12,0-.18-.07h0s.51,1.07,1.46,2.73c4.49,1.36,9,2.6,13.58,3.64C16.53,79.33,16,78.57,16,78.57Z"/><path class="cls-34" d="M17.11,78.57A123.6,123.6,0,0,0,29.8,80.88a85.12,85.12,0,0,1,9.41,1.43,22.79,22.79,0,0,1,5.92,2.24l.09,0a15.8,15.8,0,0,1,2.53,1.78,9.45,9.45,0,0,1,2.85,4,4.63,4.63,0,0,0,.4-3.85A10.42,10.42,0,0,0,47.73,82,27.59,27.59,0,0,0,42,78.27,52.2,52.2,0,0,0,28.3,73.83a70.69,70.69,0,0,0-25.83.3c.06,0,.11.07.18.07A123.43,123.43,0,0,0,17.11,78.57Z"/><path class="cls-35" d="M37.16,83.64a152.27,152.27,0,0,1-19.13-3l-.56-.12c2.89,3.57,9.44,11,15,12,7.35,1.36,13.82-.37,14.45-3.86.24-1.34-.41-2.74-1.73-4C42.55,84.08,39.82,83.89,37.16,83.64Z"/><path class="cls-36" d="M29.8,80.88a123.6,123.6,0,0,1-12.69-2.31H16s.56.76,1.5,1.93l.56.12a152.27,152.27,0,0,0,19.13,3c2.66.25,5.39.44,8,1l0,0a22.79,22.79,0,0,0-5.92-2.24A85.12,85.12,0,0,0,29.8,80.88Z"/><path class="cls-15" d="M15.78,96.15c.63-.1,1.26-.23,1.89-.35,1.07-.23,2.14-.43,3.21-.55a23,23,0,0,1,3.21-.13c.58,0,1.16,0,1.75,0a33,33,0,0,1,6.3,1.06c.59.12,1.18.26,1.75.43s.91.27,1.36.42l.74.22a39.83,39.83,0,0,0,5.17,1.28c1.1.16,2.23.23,3.33.42a6.18,6.18,0,0,1,.62.12l.43,0c1.85-.23,3.67-.53,5.53-.75a16.4,16.4,0,0,0,4.59-1l0,0,.6-.31.07,0c1.45-.92,2.27-2.56,3.3-3.93a3.54,3.54,0,0,0,.17-1.24c-.06-.73-.23-1.46-.34-2.19-.08-.56-.17-1.12-.3-1.67a16.23,16.23,0,0,0-.58-1.79,16.76,16.76,0,0,0-1.07-2.55,10.94,10.94,0,0,0-5.23-4.47A20.06,20.06,0,0,0,49,78c-.56-.13-1.13-.24-1.7-.34l-.86-.14a3.58,3.58,0,0,0-.79-.11h-.09l-.71.17L42,78.27A27.59,27.59,0,0,1,47.73,82l.39.19c.4.2.8.42,1.19.65s.55.33.82.5.43.29.63.45a14.27,14.27,0,0,1,1.21,1,6.62,6.62,0,0,1,2.36,4,3.37,3.37,0,0,1,0,.84,3.87,3.87,0,0,1-.74,1.87,5.06,5.06,0,0,1-.85.94,5.52,5.52,0,0,1-.55.4,7.75,7.75,0,0,1-2.07.94l-.31.08a15.07,15.07,0,0,1-4.74.38c-5,1.69-12.45,2-20.53.5a20.92,20.92,0,0,1-7.26-2.92c-1.09,1.75-3.18,2.82-4,4.7l0,.06A10.54,10.54,0,0,1,15.78,96.15Z"/><path class="cls-15" d="M30.22,94.25c3.82.24,7.66-.36,11.47,0,1.39.12,2.76.36,4.14.6.75.13,1.62.34,1.94,1a11.19,11.19,0,0,1-1.53.44l-3,.71a12.46,12.46,0,0,1-2.1.36,11.47,11.47,0,0,1-2.55-.23c-1.13-.19-2.25-.4-3.37-.61l-2.41-.45c-1.22-.22-2.43-.45-3.67-.58-2-.2-4-.14-6-.15-.65,0-3,0-3.18-1-.1-.72,1.36-.82,1.81-.86C24.54,93.24,27.43,94.08,30.22,94.25Z"/><path class="cls-14" d="M62.83,78.23a8,8,0,0,1,3.58,1c.32.21.61.46.91.7a17.25,17.25,0,0,0,1.84,1.22l1.69,1a7.19,7.19,0,0,0,1.9.9c1,.26,2.22,0,3.19.49a.53.53,0,0,1,.24.18.55.55,0,0,1,.1.22,11.83,11.83,0,0,1,.4,2.51,1,1,0,0,1-.05.46.82.82,0,0,1-.23.29,4.3,4.3,0,0,1-.8.68,4,4,0,0,1-1.28.43A13.59,13.59,0,0,1,67,87.74a2.1,2.1,0,0,1-.54-.27,4.59,4.59,0,0,1-.93-1.2c-.83-1.13-2-1.84-2.33-3.31C63.08,82.44,63.13,78.26,62.83,78.23Z"/><path class="cls-15" d="M121.05,94.12a7,7,0,0,0-2-.14q-3,.06-6,.28a64.25,64.25,0,0,1-9,.38,2.33,2.33,0,0,0-1,0,2.42,2.42,0,0,0-1.06.9l.94.21-.34,1a.36.36,0,0,0,0,.23c0,.11.13.16.23.21.38.18.77.36,1.17.52a20.47,20.47,0,0,0,7.92.92l2.39,0a4.22,4.22,0,0,0,.79-.07c.34-.08.65-.24,1-.35.69-.21,1.43-.14,2.14-.29a7.38,7.38,0,0,0,2.06-.9l.56-.32c.49-.27,1.48-.76,1.62-1.38S121.55,94.24,121.05,94.12Z"/><path class="cls-12" d="M77.52,83c.54-.1,1.09-.1,1.64-.19a8.2,8.2,0,0,0,2.67-1.1,7.62,7.62,0,0,0,2.86-2.63,9.48,9.48,0,0,0,.74-1.9c-.07.23.38,1.1.46,1.32A6.5,6.5,0,0,0,86.6,80c.59.85,1.52,1.59,1.54,2.63a2.24,2.24,0,0,1-.64,1.49,6.38,6.38,0,0,1-1.3,1l-1.48,1a10.32,10.32,0,0,1-2.34,1.25,10.55,10.55,0,0,1-1.58.33,9.4,9.4,0,0,1-3.62.1,1,1,0,0,1-.37-.17c-.28-.25-.18-.69-.15-1.06a4.21,4.21,0,0,0-.39-1.81c-.14-.37-.45-.79-.17-1.12A2.82,2.82,0,0,1,77.52,83Z"/><path class="cls-14" d="M96.92,92.76a1.38,1.38,0,0,1,.89.09c.52.18,1,.4,1.54.6a29.25,29.25,0,0,0,3.47,1.13c.15,0,.32.11.35.26s0,.22-.12.32a7.28,7.28,0,0,1-1.1,1,1.72,1.72,0,0,1-.81.4,2,2,0,0,1-.72-.08l-2.89-.65a1.43,1.43,0,0,1-.76-.34,2.74,2.74,0,0,1-.35-.78c-.12-.24-.51-.46-.56-.69C95.76,93.68,96.59,92.87,96.92,92.76Z"/><path class="cls-10" d="M86.41,77.46c0,.06,0,.13,0,.19.08.27.37.42.46.68a1.21,1.21,0,0,1,0,.43c0,.92,1,1.57,1.15,2.48a1.09,1.09,0,0,1-.75.05A1,1,0,0,1,87,81a7.94,7.94,0,0,1-1.64-2.84c-.1-.35-.19-.75.17-.9S86.31,77.22,86.41,77.46Z"/><path class="cls-13" d="M95.71,92.11a2.77,2.77,0,0,0-1.8-.81.18.18,0,0,0-.12,0c-.06,0-.07.12-.08.19a1.19,1.19,0,0,0,.17.85,1.28,1.28,0,0,0,.6.34l.76.26a2.91,2.91,0,0,1,1,.47c0-.41.82-.26.65-.69-.07-.17-.41-.15-.55-.21A2.24,2.24,0,0,1,95.71,92.11Z"/></svg>
