<svg id="Layer_1" data-name="Layer 1" xmlns="http://www.w3.org/2000/svg" viewBox="0 0 130 165"><defs><style>.cls-1{fill:#60000c;}.cls-2{fill:#3f2811;}.cls-3{fill:#ffd9e8;}.cls-4{fill:#dcf5ff;}.cls-5{fill:#c0e3ed;}.cls-6{fill:#58c4c4;}.cls-7{fill:#74dde2;}.cls-8{fill:#331f0d;}.cls-9{fill:ivory;}.cls-10{fill:#edecd9;}.cls-11{fill:#ce0019;}.cls-12{fill:#ef0617;}.cls-13{fill:#ffbdc8;}</style></defs><title>cupcake_1</title><path class="cls-1" d="M60.73,13.75c0-.11-.08-.22-.12-.33l-1.1-4a8.91,8.91,0,0,0-1.2-2.51A3.82,3.82,0,0,0,58,6.41l-2.8-3.35L52.77.4a.39.39,0,0,0-.61,0l-.33.45a.36.36,0,0,0,.06.48l1.23.87a6.79,6.79,0,0,1,.77.65l1.7,1.73a2.25,2.25,0,0,1,.21.24l1.27,1.52a6.59,6.59,0,0,1,1.35,2.2L60,13.25c.06.17.12.34.19.51l.31.71a2.64,2.64,0,0,0,.44-.23Z"/><path class="cls-2" d="M2.31,98.31a.36.36,0,0,1,0,.09,1.8,1.8,0,0,1,.38-.16,1.63,1.63,0,0,1,.45-.06A1.76,1.76,0,0,0,2.31,98.31Z"/><path class="cls-2" d="M108,102.9c1.12-.26,2.23-.53,3.34-.81l.17,0,3.54-.89,3.38-.84L123.8,99,127,98.2a1.07,1.07,0,0,1,.25,0l-.15,0a1.54,1.54,0,0,0-.3,0L123.6,99l-5.42,1.34-3.38.84-3.54.89-.17,0c-1.11.28-2.22.55-3.34.81s-2.32.54-3.49.79-2.2.46-3.31.67c-1.36.27-2.72.51-4.11.75-1.08.18-2.17.35-3.28.51l-2,.28c-1.09.15-2.18.29-3.29.41-.9.11-1.8.21-2.72.3-1.08.11-2.17.2-3.28.29s-2.06.16-3.11.23-2.16.13-3.27.18l-2.66.11-3.26.08c-1.2,0-2.42,0-3.66.05H63.1l-3.29-.07q-1.58,0-3.12-.12h.06l3.26.13c1.08,0,2.18,0,3.29.06l2.23,0h1c1.24,0,2.46,0,3.66,0l3.26-.08,2.66-.11c1.11,0,2.19-.11,3.26-.19s2.09-.14,3.12-.22l3.27-.29q1.38-.14,2.73-.3c1.11-.12,2.2-.26,3.28-.41l2-.28c1.11-.16,2.2-.33,3.28-.51,1.39-.24,2.75-.48,4.11-.75h0c1.11-.21,2.21-.44,3.31-.67S106.79,103.18,108,102.9Z"/><path class="cls-2" d="M10.31,84.78c0,.11,0,.23,0,.35,0,11.39,28.66,20.62,64,20.62,22.29,0,41.91-3.67,53.37-9.24a8,8,0,0,1-.42,1.65l.19,0a7.88,7.88,0,0,0,.5-2.73c0-3.65-2.65-7.09-7.34-10.11-9.54,8.56-30.5,14.5-54.84,14.5C40.89,99.84,19.55,93.64,10.31,84.78Z"/><path class="cls-3" d="M60.83,164.7l-3.26-.08C58.72,164.66,59.81,164.68,60.83,164.7Z"/><path class="cls-3" d="M55.65,164.56l-3.27-.16C53.51,164.47,54.6,164.51,55.65,164.56Z"/><path class="cls-4" d="M127.44,98.18l-.19,0h0l-9.69,58.07c2.84-4.06,5.09-16.09,8.58-31.65C127.66,117.78,131,98.79,127.44,98.18Z"/><path class="cls-5" d="M26.22,151,27,161h0c.8.19,1.59.36,2.38.52l-.58-9.28C27.94,151.85,27.07,151.41,26.22,151Z"/><path class="cls-4" d="M25.59,103.53c-1.1-.19-2.19-.4-3.27-.6l3.9,48c.85.44,1.72.88,2.62,1.31l-3.05-48.71Z"/><path class="cls-5" d="M66.56,162.44v2.29H69.4l0-2C68.47,162.64,67.51,162.54,66.56,162.44Z"/><path class="cls-4" d="M66.56,162.44c1,.1,1.91.2,2.87.28l.79-55.22c-1.2,0-2.42,0-3.66,0Z"/><path class="cls-5" d="M49.91,159.58l.2,4.69,2.27.13-.11-4.28C51.47,160,50.69,159.77,49.91,159.58Z"/><path class="cls-4" d="M50.63,107c-1-.07-2-.16-2.92-.25l2.2,52.87c.78.19,1.56.37,2.36.54L50.83,107Z"/><path class="cls-5" d="M60.79,161.69l0,3,2.47,0V162Z"/><path class="cls-4" d="M60.79,161.69l2.51.35V107.53c-1.11,0-2.21,0-3.29-.06Z"/><path class="cls-5" d="M44.15,158.06l.27,5.74,2.41.22-.22-5.27Q45.37,158.42,44.15,158.06Z"/><path class="cls-4" d="M44.24,106.36l-2.53-.3,2.44,52q1.22.36,2.46.69l-2.17-52.37Z"/><path class="cls-5" d="M32.2,153.81l.53,8.39c.84.15,1.68.3,2.51.43L35,155C34,154.58,33.11,154.2,32.2,153.81Z"/><path class="cls-4" d="M33,104.81l-3.9-.65,3.11,49.65c.91.39,1.83.77,2.77,1.14l-1.78-50.11Z"/><path class="cls-5" d="M38.28,156.18l.25,6.93,2.61.33-.3-6.39C40,156.77,39.12,156.48,38.28,156.18Z"/><path class="cls-4" d="M38.23,105.6l-1.76-.25,1.81,50.83c.84.3,1.69.59,2.56.87l-2.41-51.42Z"/><path class="cls-5" d="M55.55,160.79l.1,3.77,1.92.06,0-3.47Z"/><path class="cls-4" d="M56.55,107.34l-2.46-.14,1.46,53.59,2,.36-.77-53.81h-.2Z"/><path class="cls-5" d="M89.12,163.25l0,.54c.86-.09,1.73-.18,2.61-.29l0-.37C90.85,163.18,90,163.22,89.12,163.25Z"/><path class="cls-4" d="M89.12,163.25c.87,0,1.73-.07,2.6-.12l2-57.51-2,.28Z"/><path class="cls-5" d="M83.44,163.35l0,.93,2.41-.19,0-.76C85.05,163.35,84.24,163.35,83.44,163.35Z"/><path class="cls-4" d="M83.44,163.35c.8,0,1.61,0,2.41,0l2.67-57q-1.35.16-2.73.3Z"/><path class="cls-5" d="M95,163.07c.62-.1,1.25-.19,1.87-.3l-1.86.16Z"/><path class="cls-4" d="M97,105.11,95,162.93l1.86-.16h0l.63-.1,3.65-58.31h0C99.79,104.63,98.43,104.87,97,105.11Z"/><path class="cls-5" d="M77.88,163.25l0,1.31c.74,0,1.5-.06,2.28-.1l0-1.14Z"/><path class="cls-4" d="M77.88,163.25l2.29.07,2.35-56.42c-1,.08-2.06.16-3.12.22Z"/><path class="cls-4" d="M111.46,102.05l-.17,0-4.78,58.67,1.59-.42,6.9-59.18Z"/><path class="cls-5" d="M72.68,163l0,1.72,1.92,0,0-1.55Z"/><path class="cls-4" d="M72.68,163l1.95.13,1.51-55.8-2.66.11Z"/><path class="cls-4" d="M118.38,100.32l-6.88,59c.8-.26,1.59-.54,2.37-.83L123.8,99Z"/><path class="cls-4" d="M104.46,103.69l-3.66,58.38c.8-.16,1.59-.32,2.38-.5L108,102.9C106.79,103.18,105.63,103.44,104.46,103.69Z"/><path class="cls-5" d="M7.71,135.28c1.77,7.33,3.61,14.43,5.49,18.67l-2.45-14.64A32,32,0,0,1,7.71,135.28Z"/><path class="cls-4" d="M6.28,112.55,3.9,98.28l-.2,0c-.11,0-.22,0-.33-.06H3.18a1.63,1.63,0,0,0-.45.06,1.8,1.8,0,0,0-.38.16C-.69,100.17,2,112.2,4,120c.24,1,.47,1.9.68,2.72,1,3.93,2,8.31,3.05,12.61a32,32,0,0,0,3,4Z"/><path class="cls-5" d="M14.72,143.24l2.51,15,1.49.5-1.58-13.56C16.29,144.57,15.49,143.91,14.72,143.24Z"/><path class="cls-4" d="M11.92,100.49l-.2-.06L7.36,99.16l1.53,9.16,5.83,34.92c.77.67,1.57,1.33,2.42,2l-4.78-40.92Z"/><path class="cls-5" d="M20.72,147.74l1.4,12c.53.15,1.06.3,1.58.43L22.79,149C22.09,148.61,21.39,148.18,20.72,147.74Z"/><path class="cls-4" d="M18.79,102.25c-1.17-.26-2.34-.54-3.47-.84v.15l5.39,46.18c.67.44,1.37.87,2.07,1.3L19,102.29Z"/><path class="cls-6" d="M10.75,139.31,13.2,154c.94,2.15,1.9,3.56,2.87,3.91l1.16.41-2.51-15A42.18,42.18,0,0,1,10.75,139.31Z"/><path class="cls-7" d="M7.36,99.16l-.21-.06c-1.26-.35-2.36-.64-3.25-.82l2.38,14.27,4.47,26.76a42.18,42.18,0,0,0,4,3.93L8.89,108.32Z"/><path class="cls-6" d="M63.3,162v2.69h3.26v-2.29C65.46,162.32,64.38,162.18,63.3,162Z"/><path class="cls-7" d="M63.3,162c1.08.14,2.16.28,3.26.4v-54.9h-1l-2.23,0Z"/><path class="cls-7" d="M127.2,98.17a1.07,1.07,0,0,0-.25,0L123.8,99l-9.93,59.48c.74-.28,1.48-.57,2.21-.87a3.66,3.66,0,0,0,1.47-1.35l9.69-58.07Z"/><path class="cls-6" d="M57.52,161.15l0,3.47,3.26.08,0-3Q59.14,161.44,57.52,161.15Z"/><path class="cls-7" d="M57.52,161.15q1.62.28,3.27.54L60,107.47l-3.26-.13Z"/><path class="cls-6" d="M52.27,160.12l.11,4.28,3.27.16-.1-3.77C54.44,160.58,53.35,160.35,52.27,160.12Z"/><path class="cls-7" d="M53.9,107.19c-1-.06-2.06-.13-3.07-.21l1.44,53.14c1.08.23,2.17.46,3.28.67L54.09,107.2Z"/><path class="cls-6" d="M46.61,158.75l.22,5.27c1.12.1,2.21.18,3.28.25l-.2-4.69C48.8,159.32,47.7,159,46.61,158.75Z"/><path class="cls-7" d="M47.52,106.69c-1-.09-2.07-.2-3.08-.31l2.17,52.37c1.09.29,2.19.57,3.3.83l-2.2-52.87Z"/><path class="cls-6" d="M17.14,145.21l1.58,13.56c1.12.36,2.26.7,3.4,1l-1.4-12Q18.83,146.51,17.14,145.21Z"/><path class="cls-7" d="M15.32,101.41l-.21,0-3.19-.87.44,3.8,4.78,40.92q1.7,1.31,3.58,2.53l-5.39-46.18Z"/><path class="cls-6" d="M22.79,149l.91,11.18c1.11.3,2.23.57,3.34.82L26.22,151C25,150.34,23.9,149.7,22.79,149Z"/><path class="cls-7" d="M22.12,102.9l-1.63-.31-1.5-.3L22.79,149c1.11.66,2.25,1.3,3.43,1.93l-3.9-48Z"/><path class="cls-6" d="M28.84,152.28l.58,9.28c1.1.23,2.21.44,3.31.64l-.53-8.39Q30.48,153.07,28.84,152.28Z"/><path class="cls-7" d="M28.89,104.12l-3.1-.55,3.05,48.71q1.64.79,3.36,1.53l-3.11-49.65Z"/><path class="cls-6" d="M35,155l.27,7.68c1.11.17,2.2.34,3.29.48l-.25-6.93C37.15,155.79,36.05,155.38,35,155Z"/><path class="cls-7" d="M36.27,105.32l-3.08-.48L35,155c1.08.43,2.18.84,3.31,1.23l-1.81-50.83Z"/><path class="cls-6" d="M40.84,157.05l.3,6.39c1.11.14,2.2.26,3.28.36l-.27-5.74C43,157.74,41.93,157.4,40.84,157.05Z"/><path class="cls-7" d="M41.52,106c-1-.12-2.07-.26-3.09-.4l2.41,51.42c1.09.35,2.19.69,3.31,1l-2.44-52Z"/><path class="cls-6" d="M69.43,162.72l0,2,3.26,0,0-1.72C71.59,162.91,70.51,162.82,69.43,162.72Z"/><path class="cls-7" d="M69.43,162.72c1.08.1,2.16.19,3.25.26l.8-55.56-3.26.08Z"/><path class="cls-6" d="M74.63,163.11l0,1.55c1,0,2.14,0,3.27-.1l0-1.31C76.79,163.22,75.7,163.17,74.63,163.11Z"/><path class="cls-7" d="M74.63,163.11c1.07.06,2.16.11,3.25.14l1.52-56.13c-1.07.08-2.15.14-3.26.19Z"/><path class="cls-6" d="M83.42,163.35c-1.08,0-2.17,0-3.25,0l0,1.14,3.27-.18,0-.93Z"/><path class="cls-7" d="M80.17,163.32c1.08,0,2.17,0,3.25,0h0l2.35-56.74-3.27.29Z"/><path class="cls-7" d="M115,101.16l-6.9,59.18,3.4-1.05,6.88-59Z"/><path class="cls-7" d="M108,102.9l-4.77,58.67c1.12-.25,2.23-.51,3.33-.81l4.78-58.67C110.18,102.37,109.07,102.64,108,102.9Z"/><path class="cls-7" d="M101.15,104.36,97.5,162.67q1.65-.27,3.3-.6l3.66-58.38C103.36,103.92,102.26,104.15,101.15,104.36Z"/><path class="cls-6" d="M91.72,163.13l0,.37c1.09-.13,2.18-.27,3.28-.43v-.14C93.9,163,92.81,163.08,91.72,163.13Z"/><path class="cls-7" d="M91.72,163.13c1.09,0,2.18-.12,3.27-.2L97,105.11c-1.08.18-2.17.35-3.28.51Z"/><path class="cls-6" d="M85.85,163.33l0,.76c1.08-.08,2.17-.18,3.28-.3l0-.54C88,163.29,86.94,163.32,85.85,163.33Z"/><path class="cls-7" d="M85.85,163.33c1.09,0,2.18,0,3.27-.08L91.8,105.9c-1.08.15-2.17.29-3.28.41Z"/><path class="cls-8" d="M3.18,98.18h.19c.11,0,.22,0,.33.06l.2,0c.89.18,2,.47,3.25.82l.21.06,4.36,1.27.2.06,3.19.87.21,0c1.13.3,2.3.58,3.47.84l.2,0,1.5.3,1.63.31.2,0c1.08.2,2.17.41,3.27.6l.2,0,3.1.55.2,0,3.9.65.2,0,3.08.48.2,0,1.76.25.2,0c1,.14,2,.28,3.09.4l.19,0,2.53.3.2,0c1,.11,2,.22,3.08.31l.19,0c1,.09,1.94.18,2.92.25l.2,0c1,.08,2,.15,3.07.21h.19l2.46.14h.14q1.55.07,3.12.12l3.29.07h3.26c1.24,0,2.46,0,3.66-.05l3.26-.08,2.66-.11c1.11,0,2.19-.11,3.27-.18s2.08-.14,3.11-.23,2.2-.18,3.28-.29c.92-.09,1.82-.19,2.72-.3,1.11-.12,2.2-.26,3.29-.41l2-.28c1.11-.16,2.2-.33,3.28-.51,1.39-.24,2.75-.48,4.11-.75,1.11-.21,2.21-.44,3.31-.67s2.33-.51,3.49-.79,2.23-.53,3.34-.81l.17,0,3.54-.89,3.38-.84L123.6,99l3.15-.78a1.54,1.54,0,0,1,.3,0l.15,0h0a8,8,0,0,0,.42-1.65c-11.46,5.57-31.08,9.24-53.37,9.24-35.34,0-64-9.23-64-20.62,0-.12,0-.24,0-.35s-.13-.13-.19-.19c-5.44,3.18-8.56,6.89-8.56,10.85a7.84,7.84,0,0,0,.59,3l.16-.08A1.76,1.76,0,0,1,3.18,98.18Z"/><path class="cls-9" d="M10.31,84.78c9.24,8.86,30.58,15.06,55.45,15.06,24.34,0,45.3-5.94,54.84-14.5,3.52-3.16,5.49-6.68,5.49-10.38,0-5.8-4.8-11.13-12.86-15.36a9.27,9.27,0,0,0,1.17-4.44c0-6.74-7.93-12.72-20.16-16.45a8.37,8.37,0,0,0,.05-1c0-5.57-5.25-10.47-13.2-13.33-.74-.26-1.5-.51-2.29-.73a11.08,11.08,0,0,1-5.63,9.29,14.15,14.15,0,0,1-3,1.36,17.18,17.18,0,0,1-6.41,1.21C56.14,35.51,50,30.83,50,25.06A6.83,6.83,0,0,1,50.08,24a32.39,32.39,0,0,0-7.49,3.42c-4.36,2.79-7,6.39-7,10.34,0,.25,0,.51,0,.76C36.37,46.92,49.21,53.65,65,53.65a45.73,45.73,0,0,0,19.36-4C78.93,53.12,70.91,55.3,62,55.3c-16.17,0-29.28-7.1-29.35-15.87q-1.75.6-3.36,1.26c-9,3.71-14.58,8.82-14.58,14.47a9.71,9.71,0,0,0,1.79,5.46c5.81,8.66,25.13,15,48.08,15,15.91,0,30.08-3.06,39.21-7.83C94.84,73.68,79,77.57,61,77.57c-22.63,0-41.76-6.13-48.15-14.58-4.73,3.55-7.43,7.63-7.43,12,0,3.41,1.67,6.66,4.69,9.63C10.18,84.65,10.25,84.71,10.31,84.78Z"/><path class="cls-10" d="M61,77.57c18,0,33.83-3.89,42.74-9.75-9.13,4.77-23.3,7.83-39.21,7.83-23,0-42.27-6.37-48.08-15A35.61,35.61,0,0,0,12.86,63C19.25,71.44,38.38,77.57,61,77.57Z"/><path class="cls-10" d="M62,55.3c8.95,0,17-2.18,22.35-5.61a45.73,45.73,0,0,1-19.36,4c-15.74,0-28.58-6.73-29.32-15.18-1,.31-2,.63-3,1C32.68,48.2,45.79,55.3,62,55.3Z"/><path class="cls-10" d="M50,25.06c0,5.77,6.14,10.45,13.72,10.45a17.18,17.18,0,0,0,6.41-1.21,14.58,14.58,0,0,1-4.37.66c-7.2,0-13-5.11-13-11.41V23.2q-1.36.35-2.64.75A6.83,6.83,0,0,0,50,25.06Z"/><path class="cls-11" d="M65.76,35a14.58,14.58,0,0,0,4.37-.66,15.49,15.49,0,0,0,2-1,15.87,15.87,0,0,1-5,.79c-7.22,0-13.19-4.76-14.24-11l-.16,0v.35C52.72,29.85,58.56,35,65.76,35Z"/><path class="cls-12" d="M67.12,34.13a15.87,15.87,0,0,0,5-.79,15.49,15.49,0,0,1-2,1,14.15,14.15,0,0,0,3-1.36,11.08,11.08,0,0,0,5.63-9.29.38.38,0,0,0,0-.1c0-6.31-5.85-11.62-13-11.41-1.78,0-3.26.27-4.35,1.65a2.4,2.4,0,0,1-.5.45,2.64,2.64,0,0,1-.44.23,2.17,2.17,0,0,1-1.23.14c-2.05-.47-3.72.85-4.85,2.79a13.09,13.09,0,0,0-1.61,5q0,.41-.06.78l.16,0C53.93,29.37,59.9,34.13,67.12,34.13ZM65.49,13.51a6.06,6.06,0,0,1,3.12,0c2.75.43,5,1.91,5,4.26,0,1,.27,1.24-.27,1.79s-1.25-1.54-1.9-2.2a10.27,10.27,0,0,0-2.18-1.65,9.31,9.31,0,0,0-2.17-.82C66,14.5,64.87,13.64,65.49,13.51Z"/><path class="cls-13" d="M67.12,14.89a9.31,9.31,0,0,1,2.17.82,10.27,10.27,0,0,1,2.18,1.65c.65.66,1.32,2.79,1.9,2.2s.27-.83.27-1.79c0-2.35-2.28-3.83-5-4.26a6.06,6.06,0,0,0-3.12,0C64.87,13.64,66,14.5,67.12,14.89Z"/></svg>
