<svg id="Layer_1" data-name="Layer 1" xmlns="http://www.w3.org/2000/svg" viewBox="0 0 207.49 95.78"><defs><style>.cls-1{fill:#fff;}</style></defs><title>mail</title><path class="cls-1" d="M198.87,0H62.29a8.62,8.62,0,0,0-8.62,8.62V87.16a8.62,8.62,0,0,0,8.62,8.62H198.87a8.62,8.62,0,0,0,8.62-8.62V8.62A8.62,8.62,0,0,0,198.87,0ZM202,86a5,5,0,0,1-5,5H64.17a5,5,0,0,1-5-5V9.79a5,5,0,0,1,5-5H197a5,5,0,0,1,5,5Z"/><rect class="cls-1" x="4.36" y="23.84" width="43.2" height="6" rx="3"/><rect class="cls-1" x="12.44" y="43.98" width="35.13" height="6" rx="3"/><rect class="cls-1" y="64.42" width="47.56" height="6" rx="3"/><path class="cls-1" d="M135.07,61.65l0,0h0a5.44,5.44,0,0,1-9.61,0h0l0,0-61-48.95a3,3,0,0,1-.46-4.21h0A3,3,0,0,1,68.14,8l55.7,44.67,4.51,3.62a3,3,0,0,0,3.75,0l4.53-3.62L192.32,8a3,3,0,0,1,4.21.47h0a3,3,0,0,1-.46,4.21Z"/><path class="cls-1" d="M63.93,84.78h0a2.89,2.89,0,0,1,.43-4l44.89-36.09L113,49.32,68.31,85.26A3.11,3.11,0,0,1,63.93,84.78Z"/><path class="cls-1" d="M192,85.43,147.07,49.32l3.76-4.68,44.66,35.92A3.16,3.16,0,0,1,196,85h0A2.85,2.85,0,0,1,192,85.43Z"/></svg>
