<svg id="Layer_1" data-name="Layer 1" xmlns="http://www.w3.org/2000/svg" viewBox="0 0 291.58 237.82"><defs><style>.cls-1{fill:#fff;}</style></defs><title>mobil</title><path class="cls-1" d="M197.44,0H98.82a14,14,0,0,0-14,14V223.85a14,14,0,0,0,14,14h98.62a14,14,0,0,0,14-14V14A14,14,0,0,0,197.44,0Zm-64.8,10.36H163.4a1.86,1.86,0,0,1,0,3.71H132.64a1.86,1.86,0,1,1,0-3.71Zm15.27,219.77a7.31,7.31,0,1,1,7.31-7.31A7.31,7.31,0,0,1,147.91,230.13Zm53-20.24H94.45V23.13H200.93Z"/><path class="cls-1" d="M34.72,190.42a5,5,0,0,1-7.17-.13,106.25,106.25,0,0,1,0-142.76,5,5,0,0,1,7.17-.13l0,0a5,5,0,0,1,.13,6.92,96.23,96.23,0,0,0,0,129.14,5,5,0,0,1-.13,6.92Z"/><path class="cls-1" d="M256.85,190.41h0a5,5,0,0,1-.13-6.94,96.38,96.38,0,0,0,0-129.12,5,5,0,0,1,.13-6.94h0a5,5,0,0,1,7.2.13,106.28,106.28,0,0,1,0,142.74A5,5,0,0,1,256.85,190.41Z"/><path class="cls-1" d="M44.48,173.84A83.35,83.35,0,0,1,44.48,64a5,5,0,0,1,7.33-.26h0a5,5,0,0,1,.24,6.8,73.33,73.33,0,0,0,0,96.78,5,5,0,0,1-.24,6.8h0A5,5,0,0,1,44.48,173.84Z"/><path class="cls-1" d="M240.13,174.1h0a5,5,0,0,1-.24-6.81,73.22,73.22,0,0,0,0-96.76,5,5,0,0,1,.23-6.81h0a5,5,0,0,1,7.31.25,83.23,83.23,0,0,1,0,109.88A5,5,0,0,1,240.13,174.1Z"/><path class="cls-1" d="M62.94,158.59a61.87,61.87,0,0,1,0-79.36,5,5,0,0,1,7.36-.31h0a5,5,0,0,1,.28,6.75,51.87,51.87,0,0,0,0,66.47,5,5,0,0,1-.28,6.76h0A5,5,0,0,1,62.94,158.59Z"/><path class="cls-1" d="M221.52,158.9h0a5,5,0,0,1-.28-6.75,51.89,51.89,0,0,0,0-66.48,5,5,0,0,1,.28-6.75h0a5,5,0,0,1,7.36.31,61.87,61.87,0,0,1,0,79.36A5,5,0,0,1,221.52,158.9Z"/></svg>
