<svg id="Layer_1" data-name="Layer 1" xmlns="http://www.w3.org/2000/svg" viewBox="0 0 135 130"><defs><style>.cls-1{fill:#331f0d;}.cls-2{fill:#3f2811;}.cls-3{fill:#ffd9e8;}.cls-4{fill:#f2f2f2;}.cls-5{fill:#e2e2e2;}.cls-6{fill:#c9c9c9;}.cls-7{fill:#dbdbdb;}</style></defs><title>muffin_2</title><path class="cls-1" d="M76.89,71l-.81,0c-1.07,0-2.16.07-3.26.09s-2.42,0-3.66,0H65.9c-1.11,0-2.21,0-3.29-.07S60.42,71,59.35,71l-2.65-.14-3.27-.23q-1.57-.12-3.12-.27L47,70l-2.73-.32c-1.1-.14-2.19-.28-3.28-.44l-2-.28c-1.1-.16-2.2-.33-3.28-.51l-4.1-.68-3.3-.59-3.48-.64-1.62-.31-.85-.16L22,66l-.38-.08c-1.24-.27-2.48-.57-3.68-.88s-2.3-.63-3.39-.94c-1.66-.47-3.21-.94-4.57-1.32s-2.53-.69-3.45-.86l-.33,0a1.72,1.72,0,0,0-1.65.54A33.54,33.54,0,0,1,1.06,47.67a32.7,32.7,0,0,1,1.31-9.15C6.63,55.8,37.84,69.47,76.89,71Z"/><path class="cls-2" d="M133.94,47.67a33.31,33.31,0,0,1-3.34,14.45,1.06,1.06,0,0,0-.56-.3h-.19a1,1,0,0,0-.3,0l-3.15.78L121,64l-3.38.84-3.54.88-.17,0c-1.11.28-2.23.55-3.34.81s-2.33.53-3.49.78-2.2.46-3.31.68c-1.36.26-2.72.51-4.11.74-1.08.18-2.17.36-3.28.52l-2,.28L91.12,70l-2.73.29q-1.61.16-3.27.3L82,70.77c-1.07.07-2.15.13-3.26.18L76.89,71C37.84,69.47,6.63,55.8,2.37,38.52c6.12-21.05,33-36.9,65.13-36.9C104.19,1.62,133.94,22.24,133.94,47.67Z"/><path class="cls-3" d="M63.44,128.34l-3.27-.07Z"/><path class="cls-3" d="M58.25,128.2,55,128.05Z"/><path class="cls-4" d="M130.6,62.12a1.06,1.06,0,0,0-.56-.3h-.19l-9.7,58.08c2.84-4.06,5.09-16.09,8.58-31.65C130.17,81.83,133.18,64.65,130.6,62.12Z"/><path class="cls-5" d="M28.8,114.32l.84,10.37h0l2.37.52-.6-9.59C30.53,115.2,29.65,114.76,28.8,114.32Z"/><path class="cls-4" d="M31.42,115.62c-.89-.42-1.77-.86-2.62-1.3L24.91,66.55l3.48.64Z"/><path class="cls-5" d="M69.16,125.5v2.88H72l0-2.62Z"/><path class="cls-4" d="M72.82,71.15,72,125.77q-1.46-.12-2.88-.27V71.19C70.4,71.19,71.62,71.17,72.82,71.15Z"/><path class="cls-5" d="M52.49,122.75l.22,5.16,2.27.14-.13-4.78C54.06,123.11,53.27,122.93,52.49,122.75Z"/><path class="cls-4" d="M54.85,123.27c-.79-.16-1.58-.34-2.36-.52l-2.18-52.4q1.55.15,3.12.27Z"/><path class="cls-5" d="M63.38,124.78l.06,3.56,2.46,0v-3.25Z"/><path class="cls-4" d="M65.9,71.18v53.94l-2.52-.34-.77-53.67C63.69,71.14,64.79,71.17,65.9,71.18Z"/><path class="cls-5" d="M46.73,121.28l.29,6.17,2.41.22L49.2,122Z"/><path class="cls-4" d="M49.2,122l-2.47-.67L44.31,69.69,47,70Z"/><path class="cls-5" d="M34.78,117.13l.55,8.72,2.51.42-.28-8C36.62,117.89,35.69,117.51,34.78,117.13Z"/><path class="cls-4" d="M37.56,118.25c-.94-.36-1.87-.74-2.78-1.12L31.69,67.78l4.1.68Z"/><path class="cls-5" d="M40.87,119.45l.26,7.31,2.61.33-.32-6.8Q42.13,119.89,40.87,119.45Z"/><path class="cls-4" d="M43.42,120.29q-1.29-.41-2.55-.84L39.07,69l2,.28Z"/><path class="cls-5" d="M58.13,123.92l.12,4.28,1.92.07-.06-4Z"/><path class="cls-4" d="M60.11,124.27l-2-.35L56.7,70.85l2.65.14Z"/><path class="cls-5" d="M91.75,126.18l-.06,1.26c.86-.09,1.74-.19,2.61-.3l0-1.08C93.48,126.11,92.62,126.15,91.75,126.18Z"/><path class="cls-4" d="M96.36,69.27l-2,.28-2.65,56.63c.87,0,1.73-.07,2.59-.12Z"/><path class="cls-5" d="M86.07,126.31,86,127.92l2.41-.18.07-1.46C87.68,126.3,86.88,126.31,86.07,126.31Z"/><path class="cls-4" d="M91.12,70l-2.72.29-2.33,56.06c.81,0,1.61,0,2.41,0Z"/><path class="cls-5" d="M97.61,125.83l0,.88c.84-.12,1.68-.25,2.52-.4l0-.7C99.3,125.69,98.46,125.77,97.61,125.83Z"/><path class="cls-4" d="M103.75,68c-1.36.26-2.72.51-4.11.74l-2,57.08c.85-.06,1.69-.14,2.53-.22Z"/><path class="cls-5" d="M80.5,126.25l0,2,2.28-.1.08-1.81Z"/><path class="cls-4" d="M85.12,70.55,82,70.77l-1.5,55.48,2.31,0Z"/><path class="cls-4" d="M117.6,64.81l-3.54.88-.17,0-4.78,58.67,1.59-.43Z"/><path class="cls-5" d="M75.29,126l0,2.35,1.93,0,.06-2.19C76.59,126.08,75.94,126.05,75.29,126Z"/><path class="cls-4" d="M78.74,71v.14l-1.5,55L75.29,126l.79-54.94.81,0Z"/><path class="cls-4" d="M126.4,62.63,121,64l-6.88,59q1.2-.41,2.37-.84Z"/><path class="cls-5" d="M103.43,125.26l0,.46c.79-.16,1.59-.33,2.38-.51l0-.25Q104.62,125.13,103.43,125.26Z"/><path class="cls-4" d="M103.43,125.26q1.18-.14,2.37-.3h0l4.75-58.41c-1.16.27-2.32.53-3.49.78Z"/><path class="cls-5" d="M9.9,97.24c1.9,7.91,3.87,15.79,5.9,20.36l-2.55-15.23A28,28,0,0,1,9.9,97.24Z"/><path class="cls-4" d="M13.25,102.37A27.48,27.48,0,0,1,9.9,97.24C9.14,94.08,8.4,90.92,7.67,88c-.14-.55-.28-1.1-.41-1.64-1.74-6.9-5.38-20.92-2.74-23.92a1.72,1.72,0,0,1,1.65-.54l.33,0,3,17.93Z"/><path class="cls-5" d="M17.26,106.52l2.57,15.39,1.49.5L19.7,108.55C18.85,107.89,18,107.21,17.26,106.52Z"/><path class="cls-4" d="M19.7,108.55c-.85-.66-1.67-1.33-2.44-2l-5.2-31.13L10,62.76c1.36.38,2.91.85,4.57,1.32l.86,7.39Z"/><path class="cls-5" d="M23.28,111.1l1.44,12.34,1.59.43-.94-11.46C24.66,112,24,111.54,23.28,111.1Z"/><path class="cls-4" d="M25.37,112.41c-.71-.43-1.41-.87-2.09-1.31L18.35,68.74,17.91,65c1.2.31,2.44.61,3.68.88l0,.33Z"/><path class="cls-6" d="M13.25,102.37,15.8,117.6c.95,2.14,1.9,3.56,2.87,3.91l1.16.4-2.57-15.39A36.23,36.23,0,0,1,13.25,102.37Z"/><path class="cls-7" d="M17.26,106.52a36.23,36.23,0,0,1-4-4.15L9.49,79.83,6.5,61.9c.92.17,2.09.47,3.45.86l2.11,12.63Z"/><path class="cls-6" d="M65.9,125.12v3.25h3.26V125.5C68.07,125.38,67,125.26,65.9,125.12Z"/><path class="cls-7" d="M69.16,71.19V125.5c-1.09-.12-2.18-.24-3.26-.38V71.18h3.26Z"/><path class="cls-7" d="M129.85,61.81a1.53,1.53,0,0,0-.3,0l-3.15.79-9.93,59.47c.74-.28,1.48-.57,2.21-.87a3.62,3.62,0,0,0,1.47-1.34Z"/><path class="cls-6" d="M60.11,124.27l.06,4,3.27.07-.06-3.56Q61.73,124.54,60.11,124.27Z"/><path class="cls-7" d="M63.38,124.78q-1.65-.24-3.27-.51L59.35,71c1.07.05,2.16.09,3.26.12Z"/><path class="cls-6" d="M54.85,123.27l.13,4.78,3.27.15-.12-4.28C57,123.71,55.93,123.5,54.85,123.27Z"/><path class="cls-7" d="M58.13,123.92c-1.1-.21-2.2-.42-3.28-.65L53.43,70.62l3.27.23Z"/><path class="cls-6" d="M49.2,122l.23,5.72,3.28.24-.22-5.16C51.38,122.5,50.28,122.23,49.2,122Z"/><path class="cls-7" d="M52.49,122.75c-1.11-.25-2.21-.52-3.29-.8L47,70l3.27.34Z"/><path class="cls-6" d="M19.7,108.55l1.62,13.86c1.12.37,2.26.71,3.4,1L23.28,111.1Q21.39,109.87,19.7,108.55Z"/><path class="cls-7" d="M23.28,111.1q-1.89-1.23-3.58-2.55L15.38,71.47l-.86-7.39c1.09.31,2.22.63,3.39.94l.44,3.72Z"/><path class="cls-6" d="M25.37,112.41l.94,11.46c1.1.29,2.22.57,3.33.82l-.84-10.37C27.62,113.7,26.47,113.06,25.37,112.41Z"/><path class="cls-7" d="M28.8,114.32c-1.18-.62-2.33-1.26-3.43-1.91L21.61,66.23l0-.33L22,66l.47.1.85.16,1.62.31Z"/><path class="cls-6" d="M31.42,115.62l.6,9.59c1.1.23,2.21.44,3.31.64l-.55-8.72C33.63,116.64,32.51,116.14,31.42,115.62Z"/><path class="cls-7" d="M34.78,117.13c-1.15-.49-2.27-1-3.36-1.51l-3-48.43,3.3.59Z"/><path class="cls-6" d="M37.56,118.25l.28,8c1.11.18,2.2.34,3.29.49l-.26-7.31C39.74,119.06,38.64,118.66,37.56,118.25Z"/><path class="cls-7" d="M40.87,119.45c-1.13-.39-2.23-.79-3.31-1.2L35.79,68.46c1.08.18,2.18.35,3.28.51Z"/><path class="cls-6" d="M43.42,120.29l.32,6.8,3.28.36-.29-6.17C45.61,121,44.51,120.64,43.42,120.29Z"/><path class="cls-7" d="M46.73,121.28c-1.12-.31-2.22-.64-3.31-1L41,69.25c1.09.16,2.18.3,3.28.44Z"/><path class="cls-6" d="M72,125.76l0,2.62,3.26,0,0-2.35C74.2,125.94,73.11,125.86,72,125.76Z"/><path class="cls-7" d="M76.08,71.06,75.29,126c-1.09-.06-2.18-.14-3.25-.23l.78-54.62C73.92,71.13,75,71.1,76.08,71.06Z"/><path class="cls-6" d="M77.25,126.12l-.06,2.19,3.26-.1,0-2C79.41,126.22,78.32,126.17,77.25,126.12Z"/><path class="cls-7" d="M82,70.77c-1.07.07-2.15.13-3.26.18l-1.49,55.17c1.07,0,2.16.1,3.25.13Z"/><path class="cls-6" d="M85.25,126.32l-2.44,0-.08,1.81c1.06-.05,2.15-.12,3.27-.19l.07-1.61Z"/><path class="cls-7" d="M88.4,70.25c-1.08.11-2.17.21-3.28.3L82.81,126.3l2.44,0h.82Z"/><path class="cls-7" d="M121,64l-3.38.84L110.7,124l3.4-1Z"/><path class="cls-6" d="M105.8,125l0,.25c.9-.19,1.79-.4,2.68-.63l-2.66.38Z"/><path class="cls-7" d="M113.89,65.74c-1.11.28-2.22.55-3.34.81L105.8,125l2.66-.38h0l.65-.17Z"/><path class="cls-6" d="M100.14,125.61l0,.7c1.1-.18,2.2-.38,3.3-.59l0-.46C102.34,125.39,101.25,125.51,100.14,125.61Z"/><path class="cls-7" d="M107.06,67.33c-1.1.24-2.2.46-3.31.68l-3.61,57.6c1.11-.1,2.2-.22,3.29-.35Z"/><path class="cls-6" d="M94.34,126.06l0,1.08c1.09-.12,2.18-.27,3.28-.43l0-.88C96.53,125.92,95.44,126,94.34,126.06Z"/><path class="cls-7" d="M99.64,68.75c-1.08.18-2.17.36-3.28.52l-2,56.79c1.1-.06,2.19-.14,3.27-.23Z"/><path class="cls-6" d="M88.48,126.28l-.07,1.46,3.28-.3.06-1.26C90.67,126.23,89.57,126.26,88.48,126.28Z"/><path class="cls-7" d="M94.4,69.55,91.12,70l-2.64,56.32c1.09,0,2.19,0,3.27-.1Z"/></svg>
