<svg id="Layer_1" data-name="Layer 1" xmlns="http://www.w3.org/2000/svg" viewBox="0 0 324.02 106.12"><title>navn</title><path d="M.19.29C-.37,21.1.44,42,.9,62.79c.13,5.9.3,11.79.8,17.68a.54.54,0,0,0,1.08,0c.43-10.45,0-20.93-.27-31.38S2,28.34,1.72,18C1.54,12.07,1.21,6.17.79.29a.3.3,0,0,0-.6,0Z"/><path d="M2.38,62.08a272.58,272.58,0,0,1,8.3-29.94c1.53-4.66,3-9.38,4.91-13.9a50.68,50.68,0,0,1,3.34-6.57c.41-.67,1.78-3.43,2.83-2.24.7.81.81,2.7,1,3.71.91,5.19,1.08,10.6,1.47,15.85s.74,10.71,1,16.07c.61,10.72,1,21.46,1.42,32.19.2,5.33.16,10.74.81,16,.55,4.51,1.83,9.41,5.21,12.65.5.49,1.38-.14,1-.76A29.31,29.31,0,0,1,29.63,92.5c-.54-5.13-.54-10.34-.72-15.5-.41-11.23-.84-22.46-1.53-33.67q-.52-8.53-1.32-17-.39-4.2-.86-8.39a33.45,33.45,0,0,0-1.48-7.37c-.47-1.29-1.5-3.5-3.26-2.69A4.46,4.46,0,0,0,18.87,9.6c-.73,1.09-1.41,2.22-2,3.38a82.06,82.06,0,0,0-5.47,13.6C7.58,38.16,3.65,49.84,1.74,61.9c-.07.42.56.61.64.18Z"/><path d="M36,48.05c-.93,4.44-1.6,9.33-.2,13.75.45,1.42,1.49,4.1,3.25,4.26a3.85,3.85,0,0,0,2.15-.83,25.55,25.55,0,0,0,2.67-1.69,28.22,28.22,0,0,0,7.63-10,72.8,72.8,0,0,0,5.15-13.68A71.52,71.52,0,0,0,59,25c.21-3.94.07-9.2-2.74-12.34a2.32,2.32,0,0,0-3.6-.14c-1.33,1.42-1.41,3.78-1.64,5.59-.66,5.27-.37,10.73-.35,16q0,9.24.28,18.47.14,4.76.3,9.49a55.36,55.36,0,0,0,.63,9.2c.21,1,1.55.65,1.65-.22a46.64,46.64,0,0,0-.08-7q-.15-3.61-.27-7.23-.23-7.11-.37-14.23t-.2-14c0-2.35-.07-4.69,0-7A32,32,0,0,1,53,15.06c.18-.81.61-2.15,1.64-2s1.53,1.51,1.91,2.33a17.29,17.29,0,0,1,1.39,6.42,55.27,55.27,0,0,1-1.21,12.76c-1.57,8.11-4.33,16.68-9.11,23.5a24.67,24.67,0,0,1-4.33,4.79c-.84.7-2.12,2-3.31,2-1.44,0-1.84-1.82-2.16-2.92-1.32-4.52-.75-9-.34-13.64.08-.83-1.29-1-1.46-.2Z"/><path d="M53,57a19.22,19.22,0,0,1,3.54-3.44c1-.71,3.24-2.31,4.35-1.23.84.8,1.92,3.29.68,4.13-1.43,1-4,.6-5.48.07-.39-.13-.74.44-.41.71,2.38,2,3.29,5.22,4.21,8,.77,2.34,2.32,4.85,5.18,4.34s4.89-3.9,6.34-6.29a30.18,30.18,0,0,0,3.83-9.11.19.19,0,0,0-.37-.11A49.87,49.87,0,0,1,71,62.22c-1.35,2.18-3.67,6.26-6.78,5.6-2.3-.49-2.73-3.77-3.48-5.58A14.31,14.31,0,0,0,59,59.05a11.71,11.71,0,0,0-2.77-2.44l-.32.78a9.76,9.76,0,0,0,3.72.81A6.25,6.25,0,0,0,63,57.55c1.79-1.18.75-4-.23-5.32-1.39-1.93-3.28-1.42-5.1-.37a14.44,14.44,0,0,0-5.21,4.73c-.22.35.31.79.59.45Z"/><path d="M75.54,48.46c-.89,2.94-1.67,6.75.1,9.54C77,60.09,79.52,61.65,82,60.78c2.27-.79,3.44-3.21,3.86-5.43a18.05,18.05,0,0,0-.52-9.42c-.74-2-2.41-4.36-4.91-3.71a2.54,2.54,0,0,0-1.26,4.34c1.9,1.92,5.36,1.82,7.79,1.28a20.31,20.31,0,0,0,7.89-3.91,27.26,27.26,0,0,0,9.45-14,24.92,24.92,0,0,0,1-8.37c-.17-2.65-.9-5.77-3.09-7.51-2.48-2-4.53.23-5.7,2.42a18.67,18.67,0,0,0-1.73,8.44c-.15,7.4-.27,14.83-.16,22.24.05,3.43.31,7.15,2.28,10.09s4.67,3.52,7.62,1.75a29.79,29.79,0,0,0,7.66-7.11,26.91,26.91,0,0,0,4.9-8.89c.11-.4-.49-.67-.68-.29-2.23,4.36-4.6,8.4-8.21,11.77-1.7,1.58-3.92,3.71-6.35,3.93-2.72.24-3.86-3.24-4.4-5.34a29.4,29.4,0,0,1-.64-7.37c0-2.87,0-5.74,0-8.62s-.07-5.6-.11-8.4c0-2.58-.17-5.19,0-7.76.16-1.88.76-6,3.1-6.54,1.53-.32,2.7,1.54,3.25,2.69a12,12,0,0,1,1.06,4.1,24.63,24.63,0,0,1-2.65,13.06A25.72,25.72,0,0,1,92.55,44.3a16.6,16.6,0,0,1-7.39,2.77,9.2,9.2,0,0,1-3.61-.36c-1.25-.41-3.13-1.92-1.44-3.08,3-2,4.71,3.06,5.13,5.06.6,2.86.49,6.16-1.12,8.69s-4.62,2.79-6.42.27-1.11-5.88-.71-8.79a.75.75,0,0,0-1.45-.4Z"/><path d="M116.42,43.08a16.68,16.68,0,0,0-.72,4.28,27.86,27.86,0,0,0-.25,4.28,6.09,6.09,0,0,0,3.32,5.54c4.28,2.08,8-3.64,9.46-6.84a26.72,26.72,0,0,0,1.28-3.47c.18-.6.34-1.2.48-1.81a6.23,6.23,0,0,1,.65-2.12l-1.25-.33a78.25,78.25,0,0,0-.28,8.8c0,2.91-.22,5.9,0,8.81a.94.94,0,0,0,1.87,0c.24-2.91,0-5.9,0-8.81a78.25,78.25,0,0,0-.28-8.8.67.67,0,1,0-1.32.17c.24,1.08-.36,2.56-.65,3.6A23.29,23.29,0,0,1,127.43,50a13.42,13.42,0,0,1-4.73,5.58,3.14,3.14,0,0,1-3.76.17,5.66,5.66,0,0,1-1.76-3.39c-.53-3.06.67-6.27,0-9.3-.09-.42-.64-.33-.77,0Z"/><path d="M130.87,52.31a23.47,23.47,0,0,1,2.95-3.77,16,16,0,0,1,2.07-1.79c.87-.6,1.85-1.07,2.26.22.92,2.87.85,6.07,2.23,8.8a5.24,5.24,0,0,0,2.22,2.43,6.21,6.21,0,0,0,4.06,0,37.42,37.42,0,0,0,8.94-3.53c2.44-1.32,5-3.17,5.44-6.1a4.42,4.42,0,0,0-3.22-5.14c-2.44-.49-4.31,1.77-4.95,3.88a7.72,7.72,0,0,0,1.81,7c4.87,5.65,13,2.88,18.48-.16.55-.31.06-1.1-.49-.84-4.66,2.15-10.56,4-15.23.76a7.09,7.09,0,0,1-3-6.18,3.51,3.51,0,0,1,1.83-3,2.69,2.69,0,0,1,3.59,1.83c.92,2.9-1.89,5.31-4.09,6.57a33.07,33.07,0,0,1-7.87,3.39c-1.21.33-3,.92-4.21.29a4.22,4.22,0,0,1-1.77-2.79c-.71-2.54-1.09-5.25-2-7.72-2-5.28-8.67,3.33-9.69,5.42a.39.39,0,0,0,.67.4Z"/><path d="M36.84,39.88a.94.94,0,0,0-.26.67,1.06,1.06,0,0,0,.3.69,1.13,1.13,0,0,0,1.22.34,1.34,1.34,0,0,0,.83-1,1.38,1.38,0,0,0,0-.67,1.53,1.53,0,0,0-.33-.63,1.91,1.91,0,0,0-1.31-.62.57.57,0,0,0-.35.12.61.61,0,0,0-.2.3,3.08,3.08,0,0,0-.08.68,1.84,1.84,0,0,0,.06.4l.06.17a.62.62,0,0,0,.37.34.55.55,0,0,0,.52-.14.61.61,0,0,0,.17-.42s0-.09,0-.13a5.61,5.61,0,0,1,0-.58l0,.15,0-.16-.55.42h.1l-.15,0a1.39,1.39,0,0,1,.35.09l-.13,0a1.22,1.22,0,0,1,.29.17L37.65,40a.9.9,0,0,1,.19.2L37.76,40a2,2,0,0,1,.11.2l0-.13a1.17,1.17,0,0,1,0,.2l0-.15a.6.6,0,0,1,0,.23l0-.14a1.09,1.09,0,0,1-.07.24l.06-.13-.06.12a.21.21,0,0,0,0,.06c.08-.14.06-.09,0,0l0,0c-.06.06.12-.08,0,0a.6.6,0,0,1-.11.06l.13,0-.16,0,.15,0h-.13l.14,0a.42.42,0,0,1-.15,0l.13.06-.08,0c-.05,0-.09-.1,0,0l-.07-.06c-.08-.09,0,.06,0,0a1.09,1.09,0,0,1-.08-.15c-.05-.11,0,.11,0,0s0-.06,0-.08l0,.13a.4.4,0,0,1,0-.11s0,.12,0,0,0,0,0-.06a.47.47,0,0,0-.78-.46Z"/><path d="M117.11,34.79a1,1,0,0,0-.92.52,1.26,1.26,0,0,0-.11,1,1.28,1.28,0,0,0,.85.8A1.43,1.43,0,0,0,118,37a1.44,1.44,0,0,0,.69-.71,1.89,1.89,0,0,0,.21-1,1.83,1.83,0,0,0-.42-1,1.13,1.13,0,0,0-1.9.21,1.11,1.11,0,0,0-.1.72.71.71,0,0,0,.53.55.56.56,0,0,0,.47-.1.52.52,0,0,0,.22-.42s0-.06,0-.08l0,.16a1.29,1.29,0,0,0,0-.34.09.09,0,0,1,0-.05l0,.16a.14.14,0,0,1,0-.09l0,.16a.58.58,0,0,1,.06-.17l-.07.15a.83.83,0,0,1,.08-.12l-.1.12a.47.47,0,0,1,.1-.1l-.13.1a.57.57,0,0,1,.13-.08l-.15.06.12,0-.17,0h.1l-.16,0,.14,0-.15-.06a.42.42,0,0,1,.14.09l-.13-.1a.47.47,0,0,1,.14.14l-.1-.13a1.59,1.59,0,0,1,.13.22l-.07-.15a1.07,1.07,0,0,1,.08.27l0-.17a1.15,1.15,0,0,1,0,.32l0-.17a2,2,0,0,1-.09.33l.07-.15a2.26,2.26,0,0,1-.16.26l.1-.13a.77.77,0,0,1-.18.18l.13-.1a.64.64,0,0,1-.18.1l.15-.06-.19,0,.17,0h-.24l.17,0a.65.65,0,0,1-.21,0l.15.06a.71.71,0,0,1-.15-.08l.13.1-.12-.12.1.13a.75.75,0,0,1-.07-.12l.06.15a.31.31,0,0,1,0-.13l0,.17a.54.54,0,0,1,0-.18l0,.16a1.09,1.09,0,0,1,0-.17l-.06.15a1,1,0,0,1,.08-.14l-.1.13.16-.21-.09.12s.12-.11,0,0,0,0,0,0-.14,0,0,0a.55.55,0,0,0-.15-1.08Z"/><path d="M212.51,13.24a18.44,18.44,0,0,0-13.72-8.91c-6.59-.59-9.49,6.27-11.23,11.49-2.11,6.36-3.25,13.64-2.19,20.31a12.27,12.27,0,0,0,11.52,10.45c2.43.07,5.34-.73,6.15-3.32.74-2.38-1.17-4.34-3.53-4.31-2.78,0-5.1,2.66-6.85,4.54a34.61,34.61,0,0,0-4.94,6.37c-5.25,9.43-5.86,22.88.34,32.06,3.87,5.73,11.14,7,17.42,4.79a34,34,0,0,0,9.44-5.52c2.73-2.12,5.8-4.35,7.35-7.53.33-.69-.69-1.29-1-.6-1.21,2.43-3.32,4.13-5.39,5.8a45.16,45.16,0,0,1-7,4.78c-4.56,2.39-10.41,3.62-15.14,1-4.43-2.49-6.48-7.81-7.46-12.54a31.9,31.9,0,0,1,.29-13.75,36,36,0,0,1,5.69-12.45,16.61,16.61,0,0,1,5.42-5.13c1.23-.64,3.28-.87,4,.66s-.74,2.81-2,3.25c-4.81,1.66-10.3-1.93-11.73-6.52a25.25,25.25,0,0,1-.75-8.49,49.77,49.77,0,0,1,1.15-8.84,47.51,47.51,0,0,1,3.16-9.5c1.07-2.32,2.68-4.87,5.35-5.49s6.26.63,8.64,2a18.37,18.37,0,0,1,6.29,6,.46.46,0,0,0,.79-.47Z"/><path d="M217.71,49.54c2.31-3.41,4.61-6.82,6.87-10.25a71.43,71.43,0,0,0,5.65-9.77,28.06,28.06,0,0,0,2.65-10.27c.1-2.28,0-5.92-2.74-6.73-3.36-1-4.94,3-5.42,5.54a78.86,78.86,0,0,0-.92,12.28q-.18,6.42-.32,12.82a107.64,107.64,0,0,0,0,12.05c.28,3.19,1.17,6.85,3.36,9.3,2.46,2.75,5.49,1.41,8.14-.31,5.78-3.75,9.79-9.72,13.17-15.58a97.29,97.29,0,0,0,9.24-21.49c.95-3.31,1.61-6.92.24-10.22-.78-1.86-3.52-5.5-5.93-3.8-1.24.87-1.11,3-1.24,4.32-.19,2.14-.27,4.29-.38,6.43-.22,4.39-.33,8.79-.47,13.18q-.42,12.92-.82,25.85c-.07,2.16-.13,4.31-.12,6.46a1,1,0,0,0,2,0c.49-7.43.51-14.92.71-22.37s.5-14.92.57-22.37c0-1.82,0-3.64.1-5.45,0-.83.06-1.65.11-2.47.06-1-.08-2.69,1.32-2.45s2.51,2.28,3,3.46a11,11,0,0,1,.5,5,45.69,45.69,0,0,1-2.77,9.9A97.09,97.09,0,0,1,250.22,42c-2.77,5.72-6.07,11.57-10.41,16.26a27.09,27.09,0,0,1-7.12,5.61c-1.64.85-3.11,1.17-4.48-.27A10.15,10.15,0,0,1,226,59.05a37.68,37.68,0,0,1-.6-9.31c.07-3.75.15-7.51.23-11.26s.12-7.23.14-10.85a57.17,57.17,0,0,1,.7-10.62c.32-1.66,2.17-4.75,4.12-2.71,1,1.09,1.06,2.92,1.06,4.31a26.45,26.45,0,0,1-2.59,10.73c-3.17,7-7.94,13.32-12.13,19.76-.31.48.45.91.76.44Z"/><path d="M251.08,54.75a41.55,41.55,0,0,1,4.27-5c1.45-1.44,4-3.33,5.93-1.63,1.46,1.25,1.63,4,1.86,5.82a25.87,25.87,0,0,1,0,6.52c-.22,1.82-.57,4.19-2.12,5.39a2.92,2.92,0,0,1-2.41.61A2.33,2.33,0,0,1,257.22,64c0-2.06,1.75-3.77,3-5.24s2.71-3.11,4.13-4.61c3.22-3.42,6.67-6.58,10.21-9.67.22-.19-.08-.6-.32-.42A93.36,93.36,0,0,0,262.17,55,46.53,46.53,0,0,0,257,61.06a5.1,5.1,0,0,0-.51,5.44,3.87,3.87,0,0,0,4.9,1.3c2.13-1,3.1-3.23,3.52-5.39a25.69,25.69,0,0,0,.19-8.3c-.3-2.21-.77-5.21-2.48-6.84-1.86-1.79-4.73-.83-6.5.54a30.08,30.08,0,0,0-5.77,6.51c-.32.46.42.87.73.43Z"/><path d="M278.56,41.75c-2.35.34-3.9,2.28-4.86,4.32a14.2,14.2,0,0,0-1.39,8.53c1.18,5.4,8.18,6.41,12.53,4.62a11.32,11.32,0,0,0,6.74-13c-.51-2.37-1.86-5.09-4.1-6.24s-4.6.09-5.62,2.23c-1.28,2.68-.18,5.9.89,8.45a11.61,11.61,0,0,0,4.51,5.76c4.91,2.85,11.39-1.85,14.66-5.31a41.76,41.76,0,0,0,8.88-15.27,19.51,19.51,0,0,0,1-9.21c-.38-2.31-1.45-5.57-4.06-6.21s-3.94,2.06-4.23,4.2a40.89,40.89,0,0,0-.14,5.42c0,2.14,0,4.29,0,6.43,0,8.36,0,16.87.9,25.19.13,1.18,1.9,1.25,1.89,0-.06-5.76-.48-11.52-.64-17.28s-.28-11.7-.46-17.55c-.05-1.54-.24-5.55,2.33-5.13s3.29,4.53,3.4,6.56c.3,5.2-2,10.28-4.47,14.73-2.22,4-5,8.07-9,10.61-2,1.31-4.95,2.64-7.39,2a8.25,8.25,0,0,1-4.72-4.06,16.19,16.19,0,0,1-2.35-6.64c-.24-3,2.46-5.44,5.13-3.14,3.84,3.3,3.57,9.83.44,13.47s-10.27,5.53-13.42,1c-1.7-2.47-1-5.52-.29-8.23.6-2.24,1.55-4.74,4.06-5.31.61-.14.33-1-.26-.92Z"/><path d="M306.91,48.5a20.54,20.54,0,0,1,3.23-2.33c1.37-.64,3.65-1.41,4,.72a3.14,3.14,0,0,1-5.05,3c-.57-.4-1.25.49-.75,1,1.67,1.56,2.56,3.94,3.47,6a48,48,0,0,0,3.11,6.26c1.07,1.68,2.57,3.75,4.68,4.07S323,65.61,324,63.92a.46.46,0,0,0-.79-.47,6,6,0,0,1-2.11,2.08c-1.1.48-2.06-.21-2.81-1A19.29,19.29,0,0,1,315,59.62c-.86-1.7-1.59-3.45-2.54-5.1A33,33,0,0,0,309.19,50l-.87.86a4.56,4.56,0,0,0,5.11.8,4.45,4.45,0,0,0,2.27-4.75c-.93-4.71-7.78-1.52-9.16,1.27-.1.21.13.53.37.36Z"/></svg>
